<svg xmlns="http://www.w3.org/2000/svg" viewBox="-93.8 -20.2 1051.7 1051.7" fill="currentColor"><path d="M99.378 0l-0.133 1.556c-1.218-0.274-2.051-0.667-5.333-0.667-1.82 0-8.397-0.29-15.644 3.333l10.178-2.4h-20.044c-5.613 0-12.903 1.495-19.067 6.889s-9.156 13.979-9.156 20.4c0 5.46-2.65 12.936 5.644 25.378l-3.111-7.111c0.91 3.64 1.111 4.793 1.111 6.311v2.267l0.444 2.222c0.453 2.264 0.269 5.787 2.044 12.889 1.388 5.55 2.247 11.95 3.2 18.622 0.718 5.029 1.887 12.016 3.556 19.111 1.009 12.74 2.799 24.563 3.6 34.178 0.91 10.923 1.801 21.834 2.711 32.756l0.178 1.867 0.444 1.778c0.044 0.176 0.222 1.737 0.222 7.2v0.978l0.089 0.933c1.023 12.278 2.858 22.461 3.644 31.111 0.899 9.889 1.808 20.701 2.711 32.444 0.99 13.77 2.897 27.033 4.711 39.733 1.639 11.474 2.549 24.012 4.444 37.511 0.003 0.028-0.003 0.060 0 0.089 0.032 0.225 0.057 0.397 0.089 0.622 1.086 9.412 2.911 18.445 4.622 28.711 2.090 12.54 5.073 22.45 6.622 29.422l0.267 1.156 0.356 1.111c3.641 10.923 7.211 21.636 10.756 33.156 3.567 11.592 7.632 23.558 14.311 35.2 8.899 20.474 19.942 39.186 35.067 54.311 12.045 12.045 25.983 23.295 41.378 33.156 2.272 3.977 4.242 8.864 6.844 11.467 4.501 4.501 8.024 6.446 10.756 8.267l5.733 3.822h5.156c0.835 0.286 1.667 1.142 2.4 1.289 1.369 0.274 1.374 0.097 2.267 0.178 1.307 0.453 1.316 1.294 2.889 1.556 4.7 0.783 6.597-0.639 9.556-1.556 0.913 2.868 0.885 6.38 2.089 8.933 1.335 4.115 3.012 7.657 4.889 10.8-6.904-0.879-13.093-2.978-20.533-2.978h-17.289c-2.671 0-3.615 0.503-5.378 0.933h-4.578l-2.044 1.022-1.556 0.311c-10.533 2.107-20.32 5.047-29.422 7.778-10.563 3.169-20.854 7.871-30.756 14.356-9.108 5.114-18.866 11.444-27.911 20.489-6.733 6.733-14.098 14.322-21.111 23.022-14.545 14.6-25.8 31.010-35.511 48.489-10.214 18.386-17.001 37.047-22.622 53.911l-0.089 0.222-0.089 0.267c-3.858 12.538-6.65 23.792-9.289 33.467-3.498 12.827-4.444 25.862-4.444 39.689 0 0.944 1.285 5.704 1.822 9.111 0 3.642-0.059 13.133 5.644 21.689l-3.822-11.867c1.070 33.166 13.334 62.907 32.844 88.578l0.489 0.622 0.489 0.578c6.372 7.282 12.89 14.801 19.244 21.156 7.249 7.249 16.056 13.72 26 19.244 32.815 18.834 67.71 29.165 104.178 30.178h0.622c7.787 0 12.12-0.889 6.356-0.889h5.378l4-2c20.877-0.615 40.847-4.046 59.067-13.156l0.667-0.311 0.622-0.4c10.921-6.371 22.984-13.31 34.8-22.978 11.523-9.428 21.227-20.205 28.933-32.178 6.342-9.021 10.185-17.926 13.422-24.4 3.98-7.96 7.737-16.386 11.378-24.578l-1.156 2.222c7.52-12.892 11.954-25.194 15.022-36.444 3.161-11.589 5.114-23.401 6.978-36.444v-0.178c4.921-36.418 2.962-72.572-6.978-108.356l-0.444-1.6-0.711-1.556c-4.213-9.478-9.219-18.484-14.222-26.489-4.425-7.079-8.868-14.143-12.756-20l-0.356-0.578c-4.035-6.505-8.709-15.005-15.289-23.778-3.954-5.272-9.159-9.344-13.911-13.867 1.552-0.984 3.132-1.399 4.533-2.8l-5.156 2.133c-0.13-0.122-0.269-0.234-0.4-0.356 3.104-1.705 7.48-2.331 9.2-4.267 3.689-4.152 5.353-7.781 6.844-11.511l0.489-1.2h2.489l2.356 0.489c11.963 2.393 22.19 2.357 27.156 2.978 9.598 1.2 19.188 1.111 29.2 1.111 17.227 0 33.249-0.984 46.222-1.911 16.477-1.048 30.591-4.112 42.622-6.889 13.063-3.015 24.66-6.872 35.511-10.489l0.089-0.044c24.103-7.72 46.69-17.517 68.267-30.267 20.113-11.885 38.682-24.014 55.822-37.244 13.621-8.796 26.933-18.897 38.578-31.6 9.547-10.415 19.867-20.696 29.644-28.844l0.489-0.4 0.489-0.444c14.812-13.825 28.163-29.127 40.356-44.133 12.778-15.727 24.011-32.683 34.933-49.067l0.178-0.267 0.133-0.222c11.308-17.904 22.595-37.635 32.978-58.4 10.136-20.272 20.28-41.425 29.511-61.733l-4.622 6.667c4.502-4.502 9.378-12.987 9.378-21.778s-3.418-15.016-6.533-19.689c-5.416-8.989-11.497-18.505-17.511-27.956-7.124-12.213-15.152-23.259-23.867-33.911l-0.756-0.889-6-6-1.911-1.289c-2.336-1.558-2.761-5.156-15.467-5.156-4.818 0-10.762 4.724-15.511 9.022l2.089-3.867c-3.166 2.111-2.222 2.687-4.089 5.022-0.763 0.857-2.432 0.842-2.933 1.733-0.8 1.423-0.267 1.631-0.711 2.8-0.965 1.854-4.701 5.935-4.533 5.6l-0.444 0.933-0.4 0.933c-7.694 19.661-17.131 38.625-27.422 55.778l-0.667 1.111-14.222 31.2c-4.408 8.814-8.72 17.412-12.8 24.756l-0.4 0.667-0.311 0.711c-6.989 14.852-13.591 26.979-21.111 36.756l-0.356 0.444-0.311 0.489c-7.201 10.402-16.875 21.894-27.067 34.844-12.582 14.378-24.698 28.198-38.044 40.711l-0.267 0.222-0.267 0.267c-12.622 12.622-26.48 24.74-40.667 37.156-9.292 5.165-18.27 10.402-26.089 16.267-6.842 5.132-13.765 11.515-20.889 18.356-40.488 18.23-83.927 29.118-131.022 30.8l-2.4 0.089-2.311 0.578c-1.909 0.477-6.705-0.365-1.689 0.889-7.97-1.992-12.132-1.706-13.822-2.044l-2.178-0.444h-2.267c2.326 0 2.117-0.889-7.289-0.889l10.178 2.4c-9.296-4.648-13.496-3.283-16.311-3.111 2.126-4.703 5.244-9.268 5.244-13.867 0-2.047-1.309-6.323-1.867-9.822-0.741-6.511-3.029-13.137-6.356-17.067-3.82-4.513-7.6-6.969-11.022-9.022l-0.756-0.444-0.8-0.4c-14.992-7.496-34.279-9.566-50.533-2.178l-1.644 0.8-1.556 0.978c2.124-1.416-1.526-0.479-9.111 4.578 2.129-1.419-1.521-0.527-9.111 4.533l-0.489 0.356-0.533 0.4c-1.729 1.297-2.362 3.377-3.867 4.889l-6.622-6.667-2.489-1.422c-16.004-9.457-25.916-21.439-32.4-37.289l-0.311-0.8-0.4-0.756c-1.142-2.284-1.49-3.403-2.4-6.133-0.911-2.732-2.549-7.957-6.311-13.6l2.4 4.622c-2.731-7.282-5.005-13.413-6.4-19.689-2.054-9.243-4.489-17.43-6.044-26.533l-0.089-0.489c-1.248-8.367-3.004-13.826-3.556-17.689-0.91-6.372-1.944-13.731-4.089-22.311l0.444 2.267c-1.713-11.992-2.564-22.969-4.667-34.533-1.582-8.699-2.5-18.689-4.489-30.622-1.652-9.911-2.512-19.231-3.422-29.244-0.863-9.493-1.857-19.74-3.644-30.933l-0.222-1.689c-1.057-10.588-2.736-20.334-3.467-27.644-0.819-8.195-1.837-18.056-3.556-28.311l-0.089-0.889c-0.986-15.179-2.821-29.958-4.622-43.467l0.044 0.178c-1.719-13.753-2.626-27.406-4.578-42.044l0.178 3.022c0-3.643-0.048-11.876-3.422-20.311l-0.889-2.178-1.333-2c-4.409-6.614-14.994-13.778-24.4-13.778h-10v-0.889h-23.644zM99.111 2.978l-3.156 38.222-10.844-10.844c-0.017 0.183-0.242 0.431-0.267 0.622l-1.156-1.733c0.721 1.081-0.096-0.685 0.311 0l-5.6-5.6 20.711-20.667zM95.022 46.711c1.22 0.271 2.017 0.622 5.244 0.622h18.089c1.334 11.31 2.229 23.033 3.911 36.489l0.044 0.089v0.089c1.803 13.522 3.549 27.579 4.4 41.2l0.089 1.333 0.222 1.333c1.582 8.699 2.453 18.082 3.378 27.333 1.045 10.447 2.858 20.239 3.644 28.889l0.089 0.844 0.133 0.844c1.652 9.912 2.512 19.276 3.422 29.289s1.878 20.688 3.867 32.622c1.652 9.912 2.519 19.963 4.578 31.289 1.538 8.46 2.517 19.306 4.444 32.8l0.133 1.156 0.311 1.156c1.496 5.983 2.245 11.362 3.156 17.733 1.253 8.773 3.077 14.208 3.644 18.178l0.089 0.533c2.090 12.54 5.073 22.45 6.622 29.422 2.246 10.108 5.447 18.54 8.178 25.822l0.933 2.444 1.422 2.178c-0.121-0.181 0.112 0.026 1.022 2.756 0.824 2.471 2.312 6.529 4.4 10.933 9.474 22.904 26.048 42.407 48.267 56.444-0.026 0.037-0.018 0.096-0.044 0.133l-1.644-1.289 1.511 1.511c-5.188 7.337-9.559 15.055-12.933 24.267-0.667 1.7-0.194 2.399-0.622 4-12.163-7.536-23.714-17.047-34.933-28.267-10.061-10.061-18.731-23.839-26.133-41.111l-0.622-1.422-0.8-1.333c-3.625-6.041-6.944-15.325-10.489-26.844-3.616-11.752-7.184-22.486-10.711-33.067-2.033-8.922-4.427-16.96-5.911-25.867-1.888-11.326-3.609-20.256-4.356-26.978l-0.089-0.711c-1.67-11.692-2.607-24.428-4.578-38.222-1.82-12.743-3.522-24.955-4.356-36.622v-0.133c-0.917-11.922-1.834-22.975-2.756-33.111-1.034-11.375-2.847-21.188-3.644-30.756l0.089 1.867c0-5.46 0.176-11.117-1.6-18.222l0.622 3.6c-0.91-10.923-1.845-21.834-2.756-32.756-1.006-12.069-2.779-23.768-3.6-34.444l-0.178-2.311-0.667-2.178c-1.113-3.895-2.025-10.35-2.978-17.022-0.867-6.071-1.836-14.231-4.089-23.244-0.045-0.18-0.232-3.917-1.6-10.756l0.444 4.444c0-2.782-0.618-4.017-0.933-6.356h5.422l1.2-0.622zM786.622 201.156c1.503 2.32 3.499 4.551 4.889 6.933l0.222 0.356 0.222 0.4c5.324 8.365 10.295 16.287 14.933 23.867-8.533 18.65-17.731 37.996-27.022 56.578-9.636 19.273-20.224 37.723-30.756 54.4-0.007 0.010 0.007 0.034 0 0.044-10.811 16.214-21.307 31.885-32.089 45.156-11.473 14.12-23.595 27.894-36.089 39.556l0.978-0.844c-12.068 10.056-23.611 21.636-34.089 33.067-8.233 8.981-18.45 16.934-30.133 24.444l-0.844 0.578-0.8 0.622c-15.326 11.92-32.718 23.23-52.222 34.756-18.444 10.899-37.695 19.294-59.067 26.133l-0.267 0.089c-10.924 3.641-21.096 6.998-31.6 9.422-11.584 2.673-22.862 5.082-35.422 5.867h-0.222c-12.513 0.894-27.437 1.778-42.978 1.778-10.012 0-18.59-0.135-23.556-0.756-8.204-1.025-14.63-1.284-20.4-2.089-1.251-3.452-2.668-6.561-1.778-12.933 0.901-3.852 1.766-7.809 2.533-11.644l0.044-0.356 0.089-0.356c0.168-1.007 0.834-2.109 1.111-2.844h2.8l1.911 0.933h5.378c-5.765 0-0.499 0.889 7.289 0.889l-4.444-0.444c7.412 1.482 12.377 1.772 11.689 1.6 12.298 3.075 18.405 0.41 23.778-0.933l-4.711 0.667c53.985-1.928 104.404-14.529 150.667-35.733l3.689-1.689 2.889-2.889c7.596-7.596 14.045-13.178 20.356-17.911 5.825-4.369 14.141-9.439 23.644-14.622l2.178-1.2 1.867-1.644c14.488-12.677 29.391-25.677 43.689-39.956 15.475-14.547 28.638-29.631 41.289-44.089l0.4-0.444 0.4-0.489c9.518-12.114 19.562-23.98 28.533-36.844 10.512-13.724 18.385-28.704 25.867-44.578 4.697-8.521 9.219-17.459 13.6-26.222l0.178-0.4 13.822-30.4-1.2 2.267c7.033-11.722 12.656-25.162 18.756-38.089zM252.267 465.111c-6.035 0-8.925 2.412-11.778 4.267 0.122-0.115 0.238-0.296 0.356-0.4 1.639-1.229 5.016-3.867 11.422-3.867zM252.8 465.244c-0.376 0.626-0.366 0.771-0.711 1.378-0.032 0.064-0.102 0.114-0.133 0.178l0.844-1.556zM307.689 477.2c-1.566 1.954-3.482 3.062-4.844 5.333l-0.444 0.756-0.4 0.8c-0.030 0.061-0.014-0.016-0.044 0.044-0.715 1.1-2.34 2.723-2.667 3.378-1.579 3.166-1.16 2.498-0.933 2.044l-0.4 0.844-0.356 0.844c-4.515 11.288-7.314 22.988-10.044 33.911-3.019 12.074-5.244 24.604-5.244 37.378l2.4-10.178c-2.862 5.723-2.577 9.483-2.622 12.356-0.521 3.041 1.546 4.802 1.556 7.644-0.771-1.065-2.011-2.682-2.444-3.333-0.521-0.781-1.331-2.747-1.378-2.933l-0.622-2.4-1.111-2.267c-1.374-2.748-2.133-5.444-2.133-8.933 0-7.079 0.086-14.174 0.8-21.689 1.625-6.48 2.705-12.374 3.956-17.378 1.604-6.416 2.434-8.563 4.133-11.111l0.8-1.156 0.622-1.289c2.499-4.998 3.973-8.562 5.556-11.2l0.444-0.756 0.4-0.8c1.68-3.36 1.977-3.307 2.222-3.467-0.981 0.885 1.331 0.461 8.222-4.133-1.068 0.712 2.961-1.615 4.578-2.311zM350.444 562.4l2.133 0.711c-0.912-0.456-1.205-0.060-2.089-0.4-0.034-0.080-0.012-0.231-0.044-0.311zM309.867 585.2c0.332 0.997 1.133 0.846 1.6 1.778 0.442 0.819 0.009 1.911 0.489 2.711l-2.089-4.489zM231.378 618.711l0.311 0.089c-0.059-0.015-0.119 0.015-0.178 0s-0.074-0.074-0.133-0.089zM311.111 626.889c0.088-0.029 0.134 0.029 0.222 0l-7.2 1.156c0 0 3.902-0.348 6.978-1.156zM272 646.622c3.268 1.556 6.101 2.488 9.467 4.267 5.111 3.984 9.696 8.35 13.6 13.556 4.185 5.58 8.462 13.193 13.467 21.2l0.356 0.533c3.317 4.976 7.849 12.185 12.4 19.467 3.707 5.931 7.236 12.528 10.178 18.844 7.991 29.362 9.772 58.392 5.644 88.933-1.767 12.343-3.49 22.368-5.778 30.756-2.393 8.774-5.221 16.513-10.444 25.467l-0.622 1.067-0.489 1.156c-3.641 8.192-7.187 16.108-10.489 22.711-3.98 7.96-7.475 15.264-10 18.8l-0.356 0.489-0.311 0.533c-4.984 7.831-11.452 15.099-19.778 21.911-7.928 6.487-17.482 12.104-27.956 18.222-12.978 6.437-26.054 9.378-43.2 9.378-1.82 0-10.221 1.066-14.756 3.333l10.178-2.4c-8.816 0-7.914 0.744-5.956 0.844-28.87-0.839-55.699-8.618-82.8-24.222l-0.133-0.089-0.178-0.089c-6.44-3.578-12.237-7.97-15.911-11.644-4.332-4.332-10.243-11.077-16.267-17.956-14.972-19.766-22.719-39.082-23.467-62.267l-0.222-6.489-1.6-2.4v-3.867l-1.644-4.089c-0.655-1.636-0.178 1.2-0.178-0.622 0-11.66 0.881-20.491 2.844-27.689 2.795-10.25 5.424-20.769 8.8-31.778 5.282-15.828 11.204-31.686 19.156-46 2.787-5.017 6.365-8.271 9.289-12.756-5.145 15.79-8.222 32.093-8.222 49.022v1.911l0.311 1.822c0.843 5.057 1.733 11.468 2.711 17.333 1.315 7.888 4.19 17.315 11.067 25.911 3.778 5.595 8.11 11.75 13.022 17.644l0.667 0.8 0.711 0.756c5.461 5.461 11.492 11.794 19.867 17.378l0.756 0.533 0.8 0.444c8.981 4.989 18.771 9.294 29.6 11.867 10.649 3.377 21.104 4.667 30.622 4.667 8.113 0 13.886 0.533 22.578-1.6 14.643-3.41 26.917-9.377 36.578-16.622 9.781-7.336 17.925-16.766 24.044-27.6 4.689-7.214 8.9-15.59 12.133-25.289l0.089-0.311 0.089-0.356c2.611-8.702 5.922-18.009 7.2-29.511 0.727-6.541 2.289-13.822 4-20.667l0.667-2.711v-2.8c0-7.578-1.904-14.697-4.178-19.244l2.4 10.178c0-1.839 0.257-7.451-2.089-14.489l1.156 7.2c0-7.787-0.889-9.263-0.889-9.111v-2.8l-0.711-2.711c-1.45-5.802-2-12.022-5.289-20.533-2.731-7.89-6.066-13.422-8.267-17.822-4.088-8.175-8.937-14.027-12.578-18.578-0.403-0.504-1.26-1.284-1.689-1.822zM220.089 662.8l0.267 0.089c3.386 0.847 7.274 3.011 9.511 4.8 1.948 1.558 4.623 4.601 8.267 9.156 3.641 4.551 6.048 7.786 7.422 10.533 3.185 6.37 5.185 9.911 6.044 12.489l0.222 0.622 0.267 0.622c0.065 0.163 1.452 6.548 3.378 14.356 0.226 1.617 0.444 5.691 0.444 4.533v3.689l1.156 3.511c-0.525-1.576-0.222-1.713-0.222 0.089v5.333l1.556 3.111c-1.586 6.703-3.285 13.739-4.178 21.778-0.531 4.78-2.66 11.818-5.422 21.022-2.084 6.17-4.975 11.818-7.289 15.289l-0.489 0.8-0.444 0.8c-2.951 5.312-7.342 10.318-11.956 13.778-4.855 3.642-10.763 6.696-19.689 8.756l-0.222 0.044-0.178 0.044c1.554-0.388-3.586 0.267-11.778 0.267-6.506 0-12.064-0.718-17.378-2.489l-1.111-0.356-1.156-0.267c-4.789-1.064-10.849-3.7-17.467-7.289-2.433-1.724-6.68-5.614-11.422-10.311-3.629-4.42-7.627-9.908-10.8-14.667l-0.578-0.844-0.622-0.756c-0.405-0.506-1.183-1.987-1.689-5.022-0.689-4.134-1.443-9.237-2.222-14.133 0.104-22.979 5.652-42.313 18.844-62.489l0.444-0.711 0.4-0.711c2.952-5.314 7.906-11.194 13.511-16.8 0.959-0.959 4.849-3.559 10.844-8.356 3.71-2.421 6.892-4.838 9.867-7.2 10.685-4.861 21.878-6.266 33.867-3.111zM113.067 674.756c-0.176 0.269-0.226 0.574-0.4 0.844-0.133 0.234-0.313 0.342-0.444 0.578l0.844-1.422zM258.622 736.222l0.622 1.2c-0.453-0.907-0.622-2.591-0.622-1.067v-0.133z"/></svg>