<svg xmlns="http://www.w3.org/2000/svg" viewBox="-79.9 -20.1 1045.7 1045.7" fill="currentColor"><path d="M250.619 0c-3.998 0-10.36 0.296-16.905 1.048-13.318 0.107-17.51 4.017-24.238 7.381-6.81 3.405-14.186 8.52-21.952 16.286l-4.048 4.048-1.857 5.476c0.568-1.704-0.14-0.243-2.571 4.619s-2.682 6.317-3.905 8.762l-0.571 1.143-0.429 1.19c-3.551 9.468-5.831 18.776-7.905 29.143l-0.095 0.381-0.048 0.381c-0.614 3.684-2.335 9.982-4.286 16.81-2.541 8.893-3.65 15.759-4.571 18.524l0.238-0.619c-3.662 10.071-8.032 21.020-10.571 34.429-3.333 12.813-4.489 24.712-5.429 35.048l-0.095 1.095v1.143c0 3.903-0.282 3.75 0.286 2.048-3.030 9.089-2.238 14.524-2.238 18.429 0-7.635 0.841-6.062 0.429-4.619-0.369 1.291-1.111 4.346-1.286 8.476l-0.619 0.19-4.048 4.048c6.671-6.671 1.938-1.741-3.143-0.048l-3.095 1.048-2.762 1.81c0.195-0.13-0.842 0.365-6.238 2.524l-0.952 0.381-0.905 0.476c-7.802 3.901-17.532 8.766-25.333 12.667-9.761 4.88-18.778 10.974-27.381 16.714-10.464 6.54-17.678 16.015-23.381 25.905-1.106 1.497-4.075 3.522-4.619 4.429-1.469 2.449-1.874 3.24-1.81 3.143l-1.81 2.714-1.048 3.095c-2.518 7.553-2.261 20.216 3.81 28.714 5.868 8.214 12.673 10.679 17.857 12.429 11.655 4.92 23.585 7.356 35.381 8.429l1.095 0.095h1.095c8.127 0 16.991 0.856 25.571 1.81 10.55 1.172 20.27 1.095 29.048 1.095 7.802 0 15.183 1.871 8.857-0.238l2.476 0.81 2.429 0.286c0.207 1.196 0.857 2.627 0.857 4.048v9.762l0.238-3.476c-1.453 10.174 0.177 19.221 1.905 28.476 0.026 0.481 1.479 3.943 1.81 5.81-0.006 0.212 0.103 1.042 0.095 1.333-4.389 1.695-8.736 3.673-13 4.952-10.181 3.054-18.135 5.655-26.048 7.238l-0.286 0.048-0.238 0.048c-19.188 4.264-39.128 10.907-59.048 21.952-0.048 0.026-0.095 0.021-0.143 0.048-3.707 1.841-7.758 3.791-12.429 6.905-3.966 2.644-7.102 4.789-8.095 5.286l-1.381 0.667-1.238 0.857c-6.047 4.031-12.716 11.337-17.095 20.095l0.905-1.619c-2.926 4.877-6.002 8.906-5.095 8l-2.81 2.762-1.762 3.571c0.24-0.48 0.429-0.762-0.429 0.667s-4.095 5.524-4.095 14.143l10.857-20.286c-7.186 4.79-13.877 18.615-12.143 28.143s6.051 13.765 9.429 17.143l2.762 2.81 3.571 1.762c5.355 2.677 10.886 4.555 15.714 5.762l-1.81-0.524c4.468 1.489 6.53 2.075 7.524 2.571l0.667 0.333 0.619 0.286c6.054 2.594 12.948 6.101 22.429 8.81 4.762 1.361 10.403 3.749 15.286 6.19l0.667 0.333 0.667 0.286c3.14 1.346 8.478 4.853 13.667 8.429 2.374 5.365 4.747 10.736 8.81 16.286-1.103 0.861-1.798 1.563-3.143 2.571-5.981 4.486-9.586 8.282-14.619 12.476l-0.857 0.714-0.762 0.81c-6.026 6.026-9.453 9.272-9 9-8.156 4.893-13.432 10.48-17.333 14.381-1.764 1.764-4.115 5.259-6.286 7.952-10.222 11.35-7.714 19.131-7.714 20.048 0 0.484-0.795 2.466 1.381 9 1.088 3.267 3.601 8.207 8.476 12s11.217 5.333 15.524 5.333l-13.524-4.095c6.047 4.031 7.891 5.606 4.095 1.81 7.695 7.695 10.604 8.651 6.81 4.857l2.81 2.81 3.524 1.762c0.995 0.497 4.101 2.599 8 5.524 0.978 0.734 2.181 2.412 3.238 3.571-9.722 10.449-16.653 23.094-18.619 36.857l-0.238 1.714v3.238c-3.497 15.093-5.805 29.174-6.762 42.571-0.988 12.851-2 28.082-2 44.667 0 7.803-0.699 14.013 1.667 23.476l-0.524-2.905c0.727 5.816 0.762 12.603 0.762 21.381v106.286c0 9.104 6.391 17.981 9.857 20.952s4.963 3.562 5.905 4.19l1.238 0.857 1.381 0.667c-0.479-0.24-0.763-0.382 0.667 0.476s5.528 4.048 14.143 4.048l-8.619-1.571c38.376 14.521 77.909 22.867 117.524 24.952l0.667 0.048h431.667c13.928 0 28.643-1.073 42.714-3.238 13.885-2.136 26.577-5.045 38.048-6.81l1.714-0.238 1.667-0.524c23.049-7.015 46.51-15.15 69.333-25.524 22.958-10.436 44.564-23.944 64.286-39.381 4.293-2.895 8.472-7.097 12.048-13.048 0.222-0.201 0.575-0.781 0.857-1.095-0.035 0.050-0.062 0.285-0.095 0.333 0.263-0.475 0.653-0.496 0.905-1l0.667-1.381c0.546-0.865 0.536-0.262 1.19-1.571 0.354-0.708 0.065-0.699 0.333-1.381l0.381-0.81v-1c1.087-3.925 1.952-8.31 1.952-8.667 0-3.901 0.359-10.949-3.524-18.714l0.476 1c-3.288-7.399-5.826-14.923-7.429-21.333-2.182-8.729-4.927-17.971-6.571-26.19l-0.095-0.571-0.143-0.571c-1.207-4.829-1.238-6.349-1.238-3.857v-3.381l-0.905-3.286c-4.149-14.522-9.174-28.488-14-42-5.263-15.788-11.409-29.053-17.143-41.476l-0.095-0.143c-9.197-22.459-19.553-43.425-32.381-62.667l0.619 0.952c-0.958-1.597-2.669-5.863-4.619-11.714l-0.286-0.857c-0.009-2.92 0.254-7.539-3-14.048l2.095 6.143c-1.767-8.833-2.729-16.867-5.143-26.524l-0.19-0.762c-1.139-3.987-2.175-11.613-4.619-20.524l-0.048-0.095c-9.546-39.13-33.583-69.894-67.905-87.333-5.436-6.641-11.257-13.43-16.333-16.476-8.156-4.893-15.577-7.097-21.429-9.048l-1.81-0.619-1.905-0.286c-3.252-0.542-9.072-2.496-17.524-3.905-5.418-0.903-8.297-1.567-10.571-2.476l-0.667-0.286-0.667-0.238c-8.164-2.721-14.219-3.661-19.571-5.19-8.516-2.433-15.352-3.39-22.81-5-6.132-2.001-12.405-3.818-17.095-5.381-1.777-0.592-5.17-1.847-7.667-2.81 0.651-1.241 1.464-2.522 2.381-6.19 0.962-3.85 0.106-10.358-1.714-16.238-0.115-0.995-0.334-1.615-0.667-2.905 0.1 0.243 0.341 0.475 0.429 0.714-0.198-0.47 0.086-0.875-0.143-1.333l-0.81-1.571c-0.26-0.655 0.054-0.654-0.286-1.333-0.294-0.588-0.251-0.221-0.524-0.714 0.102 0.191 0.739-0.361 2.952-7 0.975-2.926 1.178-3.195 1.048-3l4.095-6.143v-7.381c0 6.176-0.261 2.878 0.714-0.048 1.489-4.468 2.055-7.066 3.381-10.381l0.619-1.524 0.429-1.619c1.183-4.733 2.159-14.497-3-23.095s-11.957-11.43-16.476-13.238c-9.039-3.616-17.856-5.195-29.095-7.238h-0.19l-0.143-0.048c-3.685-0.614-9.777-2.259-14.857-3.952-3.972-1.324-5.271-1.439-8.238-2.143 0.106-3.859 0.524-7.808 0.524-11.81 0-4.866 0.246-6.829 0.381-10.19 1.575-0.492 6.764-1.815 13.095-4.905 8.36-3.223 17.364-7.165 26.667-12.333 10.654-5.919 21.513-13.748 30.095-25.19 7.022-9.362 11.612-18.264 14.333-26.429l1.286-3.762v-15.238l-0.19-1.524c-1.72-13.757-7.735-24.6-14.143-33.571-7.94-11.116-20.391-19.641-34.286-23.81l-1.714-0.524-1.81-0.238c-2.77-0.396-4.508-0.748-5.905-1.048-1.348-0.289-0.36-1.040-8-1.095-0.274-0.002 0.012-0.048-0.286-0.048-10.626-3.489-21.365-6.857-31.19-6.857h-9.619c-0.442-2.139-1.087-4.931-1.333-6.905v-0.19l-0.048-0.238c-0.929-6.505-1.714-13.23-1.714-19l-1.238 7.714c2.003-6.010 2.238-12.573 2.238-14.524v-5.762l-1.19-2.333-0.238-1.333c-4.524-23.748-14.931-45.956-34.429-60.333-2.286-2.117-5.031-4.754-8.857-6.667 0.957 0.479 3.427 2.617 1.476 0.667l-3.143-3.095-4-1.857c-10.221-4.646-19.923-9.578-29.81-13.286-6.134-2.3-13.959-6.211-23.429-9.762l-0.381-0.143-0.429-0.143c-8.935-2.978-15.761-3.83-20.524-5.19-9.481-2.709-17.339-3.578-24.81-5.238-7.097-1.577-15.175-4.217-23.952-7.143-8.263-2.754-19.102-6.685-31.19-10.714l3.19 1.286c-7.766-3.883-9.722-3.885-5.857-1.952-4.858-2.429-5.814-2.431-4.857-1.952l1.619 0.905c-6.926-4.156-15.765-8.333-27.143-8.333zM250.619 48.762c-1.625 0-0.779-0.315 2.048 1.381l0.81 0.524 0.857 0.381c4.858 2.429 5.814 2.431 4.857 1.952 7.766 3.883 9.722 3.885 5.857 1.952l1.571 0.81 1.619 0.524c11.317 3.772 21.947 7.617 31.238 10.714 8.777 2.926 18.257 6.152 28.714 8.476 10.084 2.241 17.827 3.332 22 4.524 8.686 2.482 15.21 3.566 18.095 4.476 6.081 2.315 13.658 6.038 22.952 9.524 5.402 2.026 14.828 6.596 25.286 11.381 1.937 1.552 3.124 2.991 5.524 4.19-0.957-0.479-3.379-2.617-1.429-0.667l1.429 1.429 1.619 1.19c7.219 5.156 12.363 13.677 15.571 30.524l-0.429-4.524c0 0.577 0.847 3.148 1.048 4.667 0.478 3.612 0.814 7.675 2.524 11.095l-2.571-10.905-1 2.857v3.952c0 9.671 1.134 18.389 2.143 25.476 0.005 0.043-0.005 0.052 0 0.095 1.257 9.973 3.436 17.712 4.048 21.381l0.619 3.619 1.619 3.286c4.122 8.244 9.975 11.281 12.952 12.905s4.538 2.245 5.762 2.857c6.809 3.404 10.589 5.476 20.667 5.476h13.667c6.502 0 13.712 1.311 21.095 4.667l4.81 2.19h5.286c-7.639 0-3.969-0.385-1.952 0.048 1.32 0.283 3.821 0.714 6.048 1.095 5.002 1.574 6.506 2.813 8.238 5.238 3.23 4.522 4.91 8.885 5.238 10.857v1.619c-1.077 2.815-1.992 5.227-5.857 10.381-3.121 4.161-7.861 8.024-14.762 11.857-7.571 4.206-15.336 7.656-22.095 10.19l-1.19 0.429-1.143 0.571c-0.993 0.497-3.056 1.082-7.524 2.571-6.010 2.003-8.762 3.333-8.952 3.381l-4.095 1.048-3.524 2.333c-2.503 1.669-5.775 3.928-9.238 8.381-3.384 4.351-6.2 11.54-6.333 18.286-0.955 7.853-1.143 15.266-1.143 22.857 0 8.777-0.061 14.426-0.714 19l-0.238 1.714v1.762c0 5.635 0.737 13.107 5.905 20.571s14.101 11.763 20.524 13.048c6.907 2.009 13.245 3.32 15.571 4.095 6.622 2.207 14.22 4.473 22.238 5.81 2.392 0.441 2.486 0.637 4.619 1.095-1.57 3.365-3.631 7.273-4.238 9.095 0.567-1.7-2.294 2.985-4.429 11.524l6.429-11.286c-5.886 5.886-11.483 17.383-9.952 28.095 0.81 5.667 3.934 7.957 6.286 11.619l-2.19 2.19c-5.294 5.294-10.855 16.961-7.857 27.952s10.558 16.112 16.143 18.905c1.95 0.975 6.684 4.524 16.762 4.524l-10.905-2.571c-0.479-0.239-0.241-0.002 2.429 1.333s8.295 3.19 13.333 3.19l-7.667-1.238c4.309 1.436 11.13 4.345 18.524 6.81 6.622 2.207 13.443 4.164 18.524 5.857l1.19 0.381 1.238 0.286c9.71 2.158 16.237 3.163 21 4.524 8.301 2.372 13.985 3.392 17.524 4.571l-1.333-0.524c7.478 2.991 14.334 4.286 20.619 5.333 2.653 0.442 8.22 1.933 14.333 3.19 5.491 1.851 9.754 3.462 11.286 4.381 2.827 1.696 3.504 2.156 5.048 4.857l4 7 7.381 3.238c24.47 10.706 38.135 27.951 45.571 58.524l0.095 0.476 0.143 0.476c1.15 4.024 2.172 11.643 4.667 20.667 1.487 5.947 2.485 13.519 4.619 24.19l0.667 3.238 0.524 1.095c0.033 3.008-0.218 7.21 2.857 13.429 0.021 0.042-0.021 0.053 0 0.095 1.771 5.359 3.55 11.25 7.714 18.19l0.333 0.524 0.286 0.476c10.547 15.82 19.611 33.848 27.952 54.238l0.238 0.476 0.19 0.476c5.851 12.678 11.257 24.39 15.619 37.476l0.095 0.238 0.048 0.286c4.876 13.653 9.584 26.807 13.19 39.429l-0.952-6.714c0 8.344 1.971 12.693 2.714 15.667 2.23 10.771 5.157 20.725 6.81 27.333 1.57 6.28 4.321 13.223 6.905 20.048-16.165 12.372-33.586 23.504-51.857 31.81-19.831 9.014-40.999 16.377-62.524 22.952-12.792 2.083-24.735 4.688-35.429 6.333-11.285 1.736-23.906 2.667-35.333 2.667h-430c-32.092-1.712-64.144-9.183-95.667-20.381v-91.762c0-8.776 0.081-17.641-1.143-27.429l-0.19-1.476-0.333-1.381c0.415 1.662-0.238-3.866-0.238-11.667 0-14.588 0.897-28.56 1.857-41.048v-0.143c0.893-12.5 2.637-24.501 6.19-38.714l0.714-2.905v-3c1.288-7.86 3.635-10.99 5.714-12.238l0.476-0.333 0.524-0.333c3.769-2.513 7.263-6.805 10.619-11.429 3.082-3.979 6.81-10.147 6.81-16.286-0-6.852-1.962-10.283-3.19-12.714-2.629-6.058-5.701-11.194-7.476-13.857-5.288-7.931-11.399-14.132-17.381-18.619-1.533-1.149-4.186-2.663-6.048-4 5.597-4.296 10.133-8.489 12.857-11.429l0.143-0.143c6.531-5.455 10.773-9.413 12.571-10.762 3.902-2.926 8.949-6.711 14.286-12.048l-6.333 4.571c1.731-0.865 10.634-8.056 15.19-16.81 1.25-2.432 3.118-4.635 3.524-6.667 0.857-4.287 0.619-6.122 0.619-7.095v-3.952l-1.238-3.762c-2.721-8.163-6.774-16.432-12.905-24.095-0.682-0.852-3.507-6.213-7.476-15.143l-2.571-5.81-5.048-3.81c-8.671-6.503-17.505-12.116-26.952-16.238-6.675-3.305-14.345-6.684-22.952-9.143-3.979-1.137-8.804-3.406-15.81-6.429l0.524 0.238c-0.256-0.128-0.271-0.068-0.524-0.19-0.004 0.004 0.005-0.054 0-0.048-0.074 0.092 0.323-0.628 0.238-0.571l-0.667 0.381-0.048 0.048c-0.047-0.022-0.048-0.026-0.095-0.048 0.026-0.014 0.022-0.033 0.048-0.048 0.019 0.008 0.029-0.008 0.048 0 5.298-2.94 9.813-6.065 11.429-7.143 0.845-0.563 4.194-2.383 8.095-4.333l0.476-0.238 0.476-0.286c15.141-8.412 30.221-13.472 46.095-17l-0.476 0.095c11.592-2.318 21.153-5.536 30.476-8.333 11.18-3.354 21.8-7.636 31.19-11.81l4.143-1.857 3.19-3.19c8.212-8.212 13.163-23.537 10.333-34.857l0.714 5.905c0-0.973 0.238-2.808-0.619-7.095-0.154-0.769-1.036-1.649-1.333-2.524v-5.524l-2.476-3.714c-1.642-8.417-1.945-13.768-1.667-15.714l0.238-1.714v-11.476c-0-8.559-1.717-18.482-5.857-28.143l-0.905-2.048-1.238-1.857c-7.764-11.646-22.179-17.941-34.762-19.714-8.542-2.085-13.995-1.905-20.619-1.905-8.777 0-16.663-0.031-23.667-0.81-8.685-0.965-18.99-1.98-29.952-2.048l1.19 0.048c-0.383-0.035-0.529-0.153-0.905-0.19 8.17-5.428 16.062-10.555 21.333-13.19 7.802-3.901 17.532-8.814 25.333-12.714 2.616-1.002 5.759-2.623 8.905-4.238 3.703-1.070 8.471-4.416 12.762-6.762 13.616-5.737 22.278-18.949 25-28.476l0.952-3.286v-2.571l0.952-1.905v-4.476c0.422-0.599 1-0.106 1-6.143 0-3.897 0.793-6.285-0.286-3.048 2.518-7.554 2.238-13.53 2.238-17.429l-0.095 2.19c0.975-10.727 1.893-19.878 4.095-27.952l0.286-1.048 0.19-1.048c1.392-7.656 4.603-16.064 8.667-27.238l0.143-0.286 0.095-0.333c2.979-8.938 3.83-15.716 5.19-20.476 1.95-6.826 4.14-14.219 5.476-22.238l-0.143 0.81c1.828-9.138 3.461-15.436 5.762-21.571 1.524-3.329 3.21-7.182 2.857-6.476-0.134 0.268 1.134-2.529 1.476-3.048 3.024-2.559 6.378-5.142 7.143-5.524 4.882-2.441 10.672-2.333 2.762-2.333h2l2-0.286c3.251-0.542 7.695-0.667 12.571-0.667zM141.048 200.714c-2.919 5.839-1.838 6.813-1.952 9.714l-0.429 0.143 2.381-9.857zM138.857 211.524c0.014 1.873-1.381 6.191-1.381 6.952l0.952-6.714c-0.088 0.308 0.464-0.424 0.429-0.238zM510.905 364.571c-0-0.001 0.095 0.196 0.095 0.19l-0.238 3.429c0.181-1.268 0.011-2.387 0.143-3.619zM527.905 455.762l-0.857 0.857c0.005-0.122-0.054-0.263-0.048-0.381 0.568-0.813-1.174 1.603 0.905-0.476zM527.857 463.286c1.218 1.443 1.746 4.27 2.952 5.476 0.37 0.37-1.224-1.565-2.81-4.048-0.19-0.525 0-0.891-0.143-1.429zM528.048 465.095c1.262 2.58 2.371 5.228 4.714 7.571l-4.571-6.333c-0.215-0.431 0.034-0.787-0.143-1.238zM573.095 465.286l-1.667 5.143c-0.157-0.061-0.317-0.129-0.476-0.19 0.164-1.424 1.92-3.617 2.143-4.952zM826.524 897.667c0.101 0.245 0.136 0.469 0.238 0.714-0.622 2.078-1.762 2.381-1.762 5.667l1.524-6.381zM827.143 899.429c0.41 0.967 0.521 1.839 0.952 2.81l0.238 0.524c-1.104-2.964-1.381-5.926-1.381-2.619 0 0.035 0.193-0.695 0.19-0.714z"/></svg>