<svg xmlns="http://www.w3.org/2000/svg" viewBox="-60.9 -20.3 1053.8 1053.8" fill="currentColor"><path d="M642.857 0c-14.814 0-28.876 1.054-42.762 3.19-14.071 2.165-27.189 5.476-40.048 9.762h-0.095l-0.048 0.048c-55.557 18.868-101.038 51.227-134.19 95.905-20.118 24.484-34.294 50.563-43.857 78.19l-0.286 0.762c-7.779 25.28-12.194 52.344-13.714 81.286h-23.333l-5.143 2.619c-1.975 0.987-3.524 1.286-6.667 1.286-13.683 0-26.629 2.422-38.238 5.905-10.181 3.054-18.914 6.012-28.238 8.81l-0.381 0.095-0.333 0.095c-24.947 8.316-47.83 18.752-70.286 31-22.832 12.454-44.261 27.498-63.619 46.762-12.588 10.677-23.070 22.095-32.81 33.762-10.627 11.741-19.755 23.911-28.429 35.476l-0.286 0.381c-13.793 19.097-24.087 40.136-32.381 62.476-2.773 5.975-2.735 10.126-2.762 13-0.976 4.556-2.868 10.534 2.524 20.238 0.335 0.603 1.123 0.797 1.524 1.381-1.541 0.452-2.836 1.204-4.667 2.238-1.015 0.728-1.778 0.159-2.667 1.048l-0.429 0.429c-0.551 0.462-0.839 0.124-1.381 0.667-0.541 0.541-0.206 0.831-0.667 1.381l-4.667 4.667v5.143c-0.12 0.565-0.886 1.55-0.952 2l0.857-4.381c-0.612 1.486-0.394 3.032-0.952 4.524-0.048 0.335-0.686 1.268-0.714 1.524-0.241 2.169-0.161 2.51-0.143 2.81-5.822 17.133-9.803 34.491-10.714 51.81l-0.048 0.667v0.619c0 4.877-0.191 6.572-0.238 6.762-1.903 7.61-1.714 13.74-1.714 16.667 0 7.742-0.109 18.36 2.524 30.381 0.020 0.094-0.021 0.144 0 0.238-0.088 6.877-0.662 14.062 2.619 23.905l-1.048-4.714c1.254 10.036 3.299 17.331 3.952 21.905 0.911 6.38 1.969 14.945 4.286 24.381 4.093 19.364 9.272 38.064 16.476 57.619 7.539 20.464 17.317 38.964 29.095 56.095l-1.714-2.905c4.628 9.255 9.804 17.443 13.333 23.619 4.58 8.015 10.532 16.152 17.857 23.667 11.189 13.293 24.871 25.984 42.952 40.048l0.714 0.571 0.762 0.476c3.966 2.644 4.018 2.732 3.095 1.81l5.19 5.238 7.238 1.429c2.577 0.515 6.782-0.542 10.286-0.667 1.793 6.498 4.518 13.131 7.476 15.571 3.873 3.196 6.67 4.278 9.19 5.286l-4.476-2.333c10.164 6.776 21.368 12.815 32.095 18.667l0.048 0.048h0.048c26.942 14.506 54.537 25.147 84.095 31.524 29.285 7.281 58.562 10.429 88.381 10.429 16.539 0 33.266-0.814 48.619-4.619 17.812-2.832 34.776-5.813 51.571-11 17.231-4.36 34.067-10.629 49.19-18.19 14.485-7.243 28.895-15.446 43.238-24.667l-5.429 2.619c10.117-3.372 16.535-13.575 18.048-16.286 0.613-0.662 0.89-3.925 1.619-4.905h5.762c3.225 0 5.7-1.107 8.381-1.952h4.619l6.524-4.905c5.978-4.483 9.597-8.278 13.238-11.19h0.048c5.559-4.45 10.448-9.534 15-15 22.676-21.804 41.507-45.699 57.81-72.19 16.993-27.613 29.418-57.837 38.667-88.667 6.366-21.221 9.621-40.648 10.714-58.143l0.048-0.762v-0.762c0-4.394 0.742-10.231 1.714-18 1.344-9.407 1.238-18.108 1.238-25.905 0-6.821 0.165-16.817-2.714-28.333l0.762 5.905c0-9.834-1.142-18.467-2.095-27.048l-0.19-1.333c-1.049-6.291-2.050-11.16-2.952-16.571-1.046-6.278-2.343-12.887-4.81-20.286l-0.667-2v-4.286l-4.476-4.476c-0.065-0.134-0.027-0.102-0.095-0.238l-0.714-1.429c26.828-9.482 52.072-22.056 74.19-38.143 23.764-17.283 43.207-37.91 60-61l0.095-0.048 0.048-0.095c16.157-22.624 28.994-48.363 37.571-76.238 8.525-27.706 12.81-56.45 12.81-85.19 0-8.56-0.616-12.452-0.238-15.095l0.524-3.714-0.619-3.714c-0.535-3.207-0.553-9.068-1.905-17.333-1.983-13.857-4.128-27.098-8.762-41l-0.095-0.333-0.143-0.286c-3.738-10.279-7.766-22.553-13.381-34.905l-0.095-0.238-0.095-0.19c-23.29-48.697-57.866-87.561-102.095-117.048l-0.571-0.381c-45.496-28.567-96.34-43.714-151.429-43.714zM587.81 37.619c-0.201 0.045-0.371 0.145-0.571 0.19-0.094 0.024-0.192 0.023-0.286 0.048l0.857-0.238zM652.571 61.952c-0.033 0.004-0.156 0.043-0.19 0.048-0.712 0.147-1.069 0.005-1.81 0.19l2-0.238zM628.19 62.429l3.048 0.19c-0.594-0.074-1.351 0.162-1.952 0.095-0.612-0.028-0.438-0.286-1.095-0.286zM683.524 112.286c6.386 1.669 13.447 3.822 21.381 7.429h0.048v0.048c27.352 12.353 49.411 28.55 67.429 50l0.714 0.81 0.714 0.762c4.865 4.865 7.892 11.133 11.524 16.905h-26.429v-1h-26.333v1c-1.266 0.109-2.377-0-3.667 0.143l2.667-0.143c-7.786 0-14.567-0.21-20.952-0.762-3.371-10.054-6.743-20.396-11.476-30.81l0.952 2.381c-4.333-12.999-9.218-23.758-12.667-33.143-1.236-3.708-2.583-8.693-3.905-13.619zM602.762 114.143c-2.699 8.975-5.231 18.299-8.286 26.952-5.383 15.251-10.792 31.21-15.667 48.095h-25.714v-0.952h-24.381c-9.752 0-18.658-0.042-26.81-0.857l-1.238-0.143h-0.762c0.512-0.942 0.841-1.789 1.381-2.762 3.961-7.13 7.61-12.143 12.286-17.667 12.167-12.065 24.159-21.598 37.476-30.476 12.964-8.643 25.831-15.038 41.429-19.143l0.762-0.19 0.762-0.238c2.409-0.803 5.811-1.741 8.762-2.619zM808.333 136.857l1.429 1.571c-0.299-0.357-0.699-0.598-1-0.952-0.162-0.163-0.267-0.457-0.429-0.619zM832.714 172.952l5.381 8.143c-1.18-2.951-3.45-4.385-4.81-7.143-0.409-0.445-0.105-0.533-0.571-1zM815.476 186.286c-0.596 0-3.005 0.787-3.81 0.714 0.013-0.004 0.035-0.044 0.048-0.048 2.921-0.907 3.87-0.667 3.762-0.667zM758.905 190.19l21.952 21.905-1.619 1.619-10.143-1c-2.915-0.291-6.984-0.015-10.19-0.286v-22.238zM881.095 204.762l0.381 1.095c-0.066-0.199-0.219-0.419-0.286-0.619-0.058-0.151-0.037-0.326-0.095-0.476zM583.333 212.619l9.048 1.714c-2.070-0.828-2.923-0.262-4.857-0.762-1.243-0.122-3.315-0.952-4.19-0.952zM767.667 214.571c-0.244 0-0.090-0.153 2.143 0.095 0.251 0.028 1.269 0.71 1.619 0.762-0.994-0.060-3.762-0.857-3.762-0.857zM767.667 217.476c0 0-2.694 0.807-3.619 0.857 0.314-0.045 1.245-0.689 1.476-0.714 2.221-0.246 2.387-0.143 2.143-0.143zM702.571 235.857c0.918 0.102 1.619 0.011 2.524 0.095 0.049 0 0.093 0.048 0.143 0.048l-2.667-0.143zM725.143 236.762c0.060 0 0.13-0 0.19 0l0.143 0.333c0.001 0.004-0.099 0.369-0.095 0.381-0.116-0.285-0.114-0.421-0.238-0.714zM745.238 237h0.667c-0.357 0.956-1.2 1.431-1.429 2.381l-0.143-0.143c0.023-0.292-0.004-0.007 0.048-0.476 0.005-0.047-0.005 0.001 0-0.048 0.031-0.271 0.798-1.331 0.857-1.714zM634.952 257.952c-4.318 0.864-3.17 1.476 8.857 1.476 3.9 0 6.241 0.795 3-0.286l3.762 1.238h3.952c-0.047 0 2.584 0.171 3.095 0.286 0.393 0.61 0.344 1.897 0.762 2.524 0.179 0.269 0.619 0.447 0.81 0.714 0.988 3.559 1.718 6.913 3.905 12.381 0.605 1.513 1.812 5.769 2.905 9.476-0.241 0.131-0.671 0.502-0.905 0.619l-1.381 0.667-1.238 0.857c-5.893 3.929-9.971 6.946-13.667 9.714-0.803 0.536-3.183 1.763-4.714 2.667-4.29-2.701-8.756-5.425-12.429-8.048-3.997-2.855-7.349-5.189-10.857-7.619 1.936-7.724 4.766-16.669 8-26.19 2.189-0.215 3.701 0.012 6.143-0.476zM396.429 262.238c-0.078 0.466 0.073 0.962 0 1.429-0.026 0.436-0.262 0.801-0.286 1.238l0.286-2.667zM811.095 265.952l0.619 1.429c1.451 3.265 1.771 6.609 0.905 16.143v0.333c-1.808 23.499-6.352 46.322-14.81 66.619-4.617 11.081-15.539 21.385-24.048 32.095-0.815-2.119-1.248-3.691-2.238-6l0.762 1.905c-3.902-11.706-7.979-23.794-13.095-37.095-3.855-10.028-7.007-19.499-10.238-29.143 12.753-9.559 25.491-19.132 37.381-27.857l0.619-0.429c8.553-5.903 16.199-11.963 24.143-18zM475.095 267.857c7.13 5.539 13.617 11.252 21.286 16.524 13.701 9.42 26.822 19.069 40.571 29.333-4.52 11.326-8.433 22.503-12 34.095-3.794 12.34-7.67 23.869-11.571 35.571l1.333-3.19c-1.326 2.651-1.496 4.814-2.333 7.333-1.109-1.26-3.271-3.405-3.714-4.143l-0.81-1.381-1.048-1.286c-6.564-8.205-11.092-15.945-13.952-23.095l-0.048-0.095-0.048-0.048c-8.058-19.698-13.393-39.427-16-56.81l-0.286-2.095-0.667-2c-0.667-2.002-0.714-3.012-0.714-8.857v-19.857zM361.952 271.095c-0.244 0 0.672-0.226 4.19 0.476 0.17 0.034 0.391 0.289 0.571 0.333-2.009-0.278-4.762-0.81-4.762-0.81zM688.952 281.762c0.046 0.136 0.285 0.197 0.333 0.333 0.501 1.18 0.337 1.531 1 2.857l-1.333-3.19zM428.571 307.905c0.132 0.877 0.62 1.88 0.762 2.762 0.159 0.527 0.013 0.8 0.19 1.333l-0.952-4.095zM352.667 317.286c0.034 0.014 0.061 0.033 0.095 0.048l-0.19 0.048c-0.019-0.009-0.028-0.038-0.048-0.048 0.050-0.016 0.093-0.032 0.143-0.048zM741.381 317.81l-0.048 0.095-11.714 4.857v-0.048c4.566-1.052 8.887-2.353 11.762-4.905zM353.476 317.905h0.381c0.655 0.24 1.263 0.844 1.857 1-0.367-0.090-0.528-0.033-0.857-0.143-0.459-0.153-0.906-0.657-1.381-0.857zM334.095 321.476c-2.889 9.449-5.917 18.949-8.381 28.19-4.516 14.41-9.188 28.777-13.19 44.429-6.109 18.327-11.008 35.793-16.476 51.286-5.707 16.169-11.54 32.939-16.619 51h-7.857l-0.667 0.048c-16.755 0.931-31.825 0.952-47.429 0.952-16.904-0.942-32.655-1-48.762-1h-81.81c5.245-11.107 9.806-22.917 16.667-32.429 0.020-0.028 0.028-0.067 0.048-0.095 8.682-11.575 16.992-22.51 25.619-32l0.333-0.381 0.333-0.429c9.326-11.191 18.030-20.66 28.095-29.048l0.857-0.714 0.762-0.762c15.639-15.639 33.042-27.902 52.952-38.762 20.41-11.133 40.43-20.196 62.238-27.476 0.048-0.016 0.095-0.032 0.143-0.048 9.854-2.97 18.484-5.845 27.571-8.571 7.896-2.369 16.418-3.857 24.19-3.857 0.416 0 0.957-0.326 1.381-0.333zM371.048 322.619c0.134 0.871 0.572 1.561 0.714 2.429 0.161 0.523 0.064 1.048 0.238 1.571l-0.952-4zM606.571 334.048l-0.095 0.381c0.004-0.011-0.099 0.105-0.095 0.095 0.074-0.258 0.115-0.203 0.19-0.476zM377.905 345.333c2.335 9.561 5.135 18.621 8.286 27.619-0.521 0.042-2.613-0.429-2.762-0.429h-7.381l-6.143 4.095c-1.354 0.903-1.471 3.67-2.81 5 1.902-6.114 3.426-11.82 5.476-18.381l0.143-0.476 0.143-0.524c1.398-5.244 3.397-11.318 5.048-16.905zM646.571 387.905c2.326 0.764 2.923 2.19 6 2.19-3.448 0-3.929-1.198-6.143-2.095 0.046-0.032 0.097-0.064 0.143-0.095zM644.143 389.714c14.986 9.382 29.018 18.693 42.048 28 6.514 4.653 13.944 10.309 20.857 15.524-3.114 1.14-6.99 2.759-9.667 3.429l-0.905 0.238-0.905 0.286c-7.236 2.412-14.009 3.915-22 4.714l-2.714 0.286-2.571 0.857c-9.39 3.13-14.798 3.619-20.571 3.619-22.384 0-41.188-8.374-60.667-15.19 19.071-14.274 38.197-28.681 57.095-41.762zM466.857 408.476c0.262 0.437 0.543 0.578 0.81 1 0.431 0.553 0.607 1.164 1.048 1.714l-1.857-2.714zM788.81 442.429l-1.238 1.19c0.256-0.223 0.317-0.538 0.571-0.762 0.146-0.141 0.532-0.294 0.667-0.429zM807.619 464.571l-0.476 0.429c0.060-0.052 0.083-0.138 0.143-0.19 0.103-0.095 0.231-0.143 0.333-0.238zM478.333 465.381c12.283 11.187 26.411 21.043 41.667 30.048h-31.762l-1.429-2.857v-1.429l-1.476-4.048c-2.533-6.965-4.725-14.396-7-21.714zM382.762 468.571c2.798 9.324 5.586 18.534 8.429 27.81h-17.048c2.829-9.456 5.809-19.073 8.619-27.81zM711 483.429l-1.81 0.524c0.425-0.106 0.631-0.272 1.048-0.381 0.24-0.079 0.522-0.063 0.762-0.143zM630.333 493.286c5.891 0.428 11.346 2.143 17.381 2.143 2.212 0 5.655-1.214 8.095-1.381l11.238 9.19h-46.667l9.952-9.952zM279.333 496.476c-0.083 0.248 0.126-0.177 0.048 0.048-0.114 0.406-0.268 0.736-0.381 1.143l0.333-1.19zM444.286 519.095c0.122 0.238 0.114 0.657 0.238 0.905l-0.333-0.667c0.008-0.074 0.088-0.165 0.095-0.238zM444.19 519.429l3.286 8.238 3.571 3.524c0.961 0.961 3.418 4.59 11.19 8.476 4.309 2.154 8.131 3.6 15.714 4-4.47 0.968-8.147-0.356-13.286 5.429-2.607 2.935-2.737 6.608-3.857 10.238l2.286 3c-0.45-0.788-1.729-0.531-2.238-1.286-0.179-0.22-0.201-0.646-0.381-0.857-0.051 0.184-0.143 0.34-0.19 0.524-7.857-11.207-21.076-18.988-33.476-19.571l4.095-4.095c-1.32 1.32-3.782 2.053-6.048 3.19-0.3-0.003-1.014-0.037-1.333-0.048 6.12-1.578 13.053-3.137 16.905-8.524 3.599-5.034 3.361-8.534 3.762-12.238zM320.238 522c1.408 6.122 3.41 11.505 5.952 14.048 2.79 2.79 7.636 4.894 11.667 6.238l0.714-0.048c-0.109 0-0.271 0.095-0.381 0.095-0.085 0.009-0.153-0.010-0.238 0 0.020 0.006 0.028 0.041 0.048 0.048-5.539 0.047-12.15 0.76-19.095 4.619-5.701 3.167-9.641 9.559-12.857 15.714l0.667-1.619c-1.347 1.347-1.592 2.398-2.571 3.905-0.282 0.681-1.152 1.029-1.381 1.714l5.905-9.524c-3.361 3.361-4.617 5.616-5.952 8.286-0.287 0.573-0.356 2.21-0.667 2.762-0.112 0.22-0.381 0.516-0.476 0.714-0.379-5.619-1.412-12.113-6.476-17.905-2.883-3.298-7.023-3.282-10.905-4.905-0.572-0.441-1.266-0.581-1.905-1h5.571c11.354 0 23.145-6.95 29.81-18.238 1.156-1.739 1.855-3.276 2.571-4.905zM586.81 522.857c0.047 0.013 0.095-0.013 0.143 0 0.085 0.021 0.153 0.074 0.238 0.095l-0.381-0.095zM612.524 540.714l1.476 0.143c-0.514-0.114-0.871 0.009-1.381-0.095-0.018-0.002-0.077-0.045-0.095-0.048zM733.095 540.762l-0.619 0.238c0.138-0.046 0.243-0.144 0.381-0.19 0.077-0.028 0.161-0.020 0.238-0.048zM88.571 545.143h54.619l-1.238 1.238c-1.829 1.16-4.866 1.199-6.286 2.619-4.197 4.197-7.762 9.959-7.762 18.571 0 0.327 0.524 3.459 0.952 6.095-13.351-9.546-26.811-19.134-40.286-28.524zM663.381 553.095c-9.438 6.636-18.913 13.391-28.381 20.143l0.048-5.571c0 0-0.233-4.919-1.381-8.381-0.498-1.501-2.042-3.090-2.952-4.714 2.913 0.166 4.879 0.333 8.238 0.333 5.94 0 12.94-0.154 20.429-1.095 1.354-0.006 2.647-0.683 4-0.714zM459.381 576.952c0.239 0.877 0.563 1.476 0.81 2.333 0.028 0.071 0.019 0.215 0.048 0.286l-0.857-2.619zM700.905 586.19c0.533 2.942 1.129 6.063 1.619 8.952 0.967 8.69 1.762 15.547 1.762 21.19v3l0.714 2.952c1.022 4.087 1.238 9.644 1.238 16.476 0 7.807-0.155 14.753-0.762 19v0.19l-0.048 0.238c-0.944 7.549-2.143 15.322-2.143 24.476l0.048-1.524c-0.857 13.713-3.425 29.401-8.762 47.19-8.305 27.685-19.261 53.996-33.476 77.095-14.69 23.872-30.887 44.502-50.714 63.429l-1.143 1.143-1 1.19c-1.357-4.327-3.071-9.144-4.143-13.048l-0.143-0.476c-3.29-13.025-7.42-24.261-11.143-35.429l-0.143-0.524-0.19-0.476c-7.802-20.48-15.489-40.657-22.095-60.476-6.669-20.008-13.287-40.85-18.952-60.619-0.223-0.893-0.923-3.544-1.238-4.905 26.912-19.735 53.802-39.502 80.714-59.238 23.229-17.034 46.591-33.392 70-49.81zM384.381 587.095c6.827 0 12.474 0.061 17.048 0.714l1.714 0.238h1.714c3.794 0 10.197 0.639 17.286 0.857l0.238 0.429 0.762 0.762c0.848 1.935 1.451 6.093 1.857 6.905l-1.333-3.19c4.029 12.088 7.77 22.504 10.333 31.905l0.19 0.571c3.227 10.756 7.243 21.799 11.143 32.524l0.524 1.333 0.143 0.286-0.143-1.19c0 0.902 1.078 1.996 1.143 2.952-0.16 0.113-0.316 0.22-0.476 0.333-0.52-0.761-1.122-2.011 0.048 2.667l-0.286-2.524c-7.802 5.508-15.733 11.194-23.286 16l-0.667 0.429-0.571 0.429c-11.296 8.215-21.481 16.359-32.333 25.238l-0.952 0.762-0.857 0.857c0.923-0.923 2.474-1.642 0.524-0.667-0.935 0.468-3.765 2.79-5.857 4.095-0.117-0.066 0.563-0.076 0.333-0.19l6.333 4.571c-1.369-1.369-4.361-2.806-6.762-4.333-0.012-0.008-0.036 0.008-0.048 0-0.16 0.1-0.265 0.228-0.429 0.333-0.027-0.021-0.068-0.027-0.095-0.048 0.096-0.022 0.644-0.206 0.524-0.286-1.828-1.16-2.837-2.518-5.143-3.286-0.102-0.034-0.090-0.015-0.19-0.048-18.351-14.195-37.637-28.168-56.952-42.095 3.654-11.249 7.104-22.653 10.476-32.095 5.052-14.147 8.778-26.905 13.81-39.714l2.048-2.048c4.166-0.32 8.729-0.571 14.81-0.571 13.897 0 20.022-2.905 23.381-2.905zM64.762 588c22.114 15.456 43.927 30.883 66.381 47.143l-0.286-0.286c27.53 20.647 56.024 41.327 84.619 61.048l-3.381-2.81c0.713 0.714 2.823 1.996 4.095 3.095-1.262 3.418-2.239 5.669-3.476 10-1.95 6.827-3.656 12.86-6.19 19.619l-0.238 0.524-0.143 0.571c-8.725 27.146-17.509 53.383-26.286 79.714-7.566 22.698-15.148 45.397-22.714 68.095-8.389-7.338-17.933-15.072-23.19-21.381l-0.714-0.857-0.762-0.762c-3.936-3.936-7.682-9.074-10.714-14.381-4.273-7.478-8.873-14.89-12.048-21.238l-0.762-1.524-0.952-1.381c-9.677-14.076-17.41-28.738-23.524-45.333-6.402-17.376-10.922-33.631-14.619-51.19l-0.095-0.476-0.143-0.429c-1.487-5.947-2.36-12.804-3.381-19.952-1.297-9.080-3.161-15.479-3.857-21.048l-0.286-2.381-0.762-2.286c0.106 0.317-0.714-5.96-0.714-13.762v-2.667l-0.571-2.619c-1.204-5.417-1.381-12.246-1.381-20.048 0-2.924 0.19-4.666 0.238-4.857 1.903-7.612 1.714-13.696 1.714-18.571l-0.048 1.286c0.412-7.837 2.916-13.879 4.19-20.857zM217.81 588.048h30.571c-1.082 3.605-1.949 7.133-3.19 10.857l-0.19 0.619-0.19 0.667c-0.513 1.879-1.365 3.802-1.952 5.714-8.184-5.888-16.267-11.597-25.048-17.857zM514.667 588.048h28.476c-7.78 5.674-15.355 10.887-22.905 16.143-1.292-3.614-2.418-7.244-3.714-10.81-0.741-2.037-1.152-3.423-1.857-5.333zM263.81 621.333c0.644 0.495 1.796 0.701 2.286 1.19l0.238 0.619c-0.856-0.904-1.626-1.099-2.524-1.81zM493.619 652.429c1.173 1.613 1.661 3.127 3.19 4.476-0.189-0.080-0.336-0.106-0.524-0.19l-2.095-2.095-0.333-1.286c-0.018-0.073-0.235-0.822-0.238-0.905zM270.476 658.667l-0.333 0.905-0.333 1.714c-1.853 9.266 0.196 19.57 7.667 29.19h-11.619c-0.090-3.645 0.952-7.238-0.238-10.333-2.413-6.276-5.897-10.374-9.286-13.762-0.52-0.52-2.17-1.487-3-2.238-0.591 0.053 0.154 0-0.571 0 0.106 0 0.179-0.046 0.286-0.048 0.045-0.008 0.147 0.008 0.19 0-0.015-0.013-0.033-0.034-0.048-0.048 4.911-0.112 10.32-1.803 12.905-3.095 2.67-1.335 2.907-1.573 2.429-1.333l1.952-0.952zM497.524 660.238h1.667c1.442 0.863 0.912 3.066 2.571 3.619 5.505 1.835 8.533-1.918 13.19-3.286-0.21 0.154-0.409 0.322-0.619 0.476l-1.524 1.095-8 8.048-1.762 3.524c-0.484 0.968-1.921 3.221-3.095 7.905-0.467 1.862 0.792 5.179 0.81 7.857h-10.667l1.143-1.143 1.762-3.524c0.975-1.95 4.524-6.684 4.524-16.762v-7.81zM448.857 667.095c1.183 6.249 1.664 12.807 7.048 18.19l-7.143-17.238c0-1.162 0.010-0.152 0.095-0.952zM221.476 700.19c0.755 0.465 1.022 0.987 1.81 1.381-0.957-0.479-3.379-2.617-1.429-0.667 0.111 0.111-0.359-0.702-0.381-0.714zM381.524 710.19l0.143 0.048c-2.101 1.361-3.454 1.692-5.714 3.952l3.714-3.048c1.551-1.034 1.404-0.891 1.857-0.952zM426.333 743.143c7.559 0 12.169 3.53 13.476 4.571 0.016 0.015 0.122 0.314 0.143 0.333-2.997-2.071-6.654-4.905-13.619-4.905zM474.238 752.143c3.662 9.415 7.174 18.835 10.381 28.095-8.304-5.932-16.345-11.951-24.429-17.952 2.087-1.476 5.049-3.445 6.952-4.714 2.493-1.662 4.653-3.668 7.095-5.429zM290.286 752.476c2.265 1.556 4.346 2.907 6.81 4.667 3.344 2.388 5.937 4.072 8.905 6.095-8.638 6.696-17.404 13.66-26.048 20.143 0.214-0.615 0.45-1.292 0.667-1.905 3.578-10.139 6.557-19.407 9.667-29zM400.333 753.619c-1.517 3.020-3.762 3.505-3.762 8.524 0 5.962 2.504 6.945 4.429 10.143-0.236-0.128-1.177-0.69-1.143-0.667l1.333 1.095c0.176 0.28 0.25 0.644 0.429 0.905-3.707-3.299-8.066-6.51-14.429-7.667-7.226-1.314-16.046 0.57-22.19 4.667-0.067 0.045-0.080 0.053-0.143 0.095 1.163-2.947 3.429-4.447 3.429-8.095 0-3.832-2.356-5.423-3.619-8.476 11.129 4.514 23.934 4.631 35.667-0.524zM381.333 818.333c27.446 19.875 54.94 39.773 81.524 58.762 21.74 15.528 44.771 32.239 67.238 48.429-6.030 3.418-12.096 7.334-18.095 10.333-11.992 5.996-26.156 11.325-39.905 14.762l-0.667 0.143-0.667 0.238c-13.561 4.238-28.969 7.020-47.238 9.905l-1.095 0.19-1.048 0.238c-7.992 1.998-22.412 3.19-37 3.19-26.6 0-51.766-2.751-76.952-9.048l-0.429-0.095-0.381-0.095c-24.869-5.329-47.86-14.104-71.476-26.81l-0.095-0.048c-0.775-0.423-1.279-0.77-2.048-1.19 5.805-4.389 11.481-8.844 17.524-13.238 10.726-7.801 21.151-15.354 32.333-22.81l0.524-0.381 0.571-0.429c15.214-11.41 31.894-23.146 48.952-36.19l-0.571 0.381c17.718-12.797 33.439-24.567 49-36.238zM503.524 832.476c0.567 2.576 0.445 4.414 1.429 6.381l-1.476-6.238c0-0.034 0.047-0.108 0.048-0.143zM548.381 843.381c3.178 9.404 6.294 18.224 8.381 26.571l0.048 0.286 0.095 0.238c1.658 6.081 3.785 12.258 5.762 18.429-12.745-9.169-25.597-18.433-38.619-27.857 6.865-0.062 16.232-3.504 21.571-9.905 2.286-2.74 1.771-5.060 2.762-7.762zM215.381 854.286h9.714c0.030 0.028 0.065 0.020 0.095 0.048 0.198 0.164 0.127 0.363 0.333 0.524 0.192 0.15 0.422 0.048 0.619 0.19 1.799 1.46 3.655 3.089 5.19 3.857 3.223 1.612 6.35 1.834 9.524 2.238-6.356 4.494-13.037 9.056-19.048 13.429-5.682 4.132-11.726 8.945-17.619 13.381 3.739-11.218 7.451-22.448 11.19-33.667zM193.619 917.857l-1.524 2.619c0.668-1.002 0.226-1 0.762-1.905 0.141-0.259 0.635-0.461 0.762-0.714z"/></svg>