<svg xmlns="http://www.w3.org/2000/svg" viewBox="-20.4 -21.5 1057.7 1057.7" fill="currentColor"><path d="M532.65 0c-0.256-0-0.824-0.142-3.45 0.15s-9.452 1.402-15.55 7.5c-1.527 1.527-0.888 2.357-1.85 3.9-1.285 1.055-3.078 0.801-4.1 2.050l-12.6-12.6h-10.6c-11.264 0-22.053-0.1-32.85 1.25-8.192 1.024-17.46 2.115-27.6 4.65-15.417 2.217-29.079 5.222-41.55 8.1-14.807 3.417-27.962 7.804-40.25 11.9l-0.050 0.050h-0.1c-47.261 16.112-89.365 37.709-127.050 63.55-38.044 26.087-72.297 58.314-104.050 94.3l-1.3 1.5-1.1 1.7c-6.791 10.671-13.682 20.56-20.85 30.8s-14.71 20.884-21.5 32.2l-0.5 0.85-0.45 0.9c-10.393 20.785-19.798 40.708-27.35 59.050l5.55-8.35c-13.093 13.093-8.55 21.18-8.55 22.2s1.198-6.347 1.7-7.35l-2.7 5.4v6.050c0 1.869 0.365 8.725 3.4 16 0.708 2.088 2.584 4.877 4.65 7.8-5.671 1.5-12.256 3.556-14.9 6.2l-7.5 7.5v6.4c-0.091 0.246-0.523 0.619-0.6 0.85-2.288 6.86-1.45 8.986-1.45 9.5l0.8-6.2c-0.293 1.173-2.345 6.281-4.1 13.3-1.511 6.046-2.312 10.786-3.55 14.5l-0.65 1.9-0.35 2c-2.048 12.288-4.052 24.562-6.1 36.85l-0.2 1.050-0.1 1.050c-0.995 11.935-1.989 24.73-2.050 38.85-1.002 12.745-2.504 25.178 0.45 39.95 1.597 7.987 2.634 19.588 3.65 32.8l0.1 1.1 0.2 1.15c3.198 19.19 7.354 38.944 11.45 58.4 4.413 20.962 10.756 42.020 16.9 62.5l0.4 1.4 0.6 1.3c6.376 14.877 13.767 30.684 22.15 47.45 8.141 16.282 16.498 30.727 25.6 45.050 6.036 12.071 12.593 21.855 18.35 31.45 7.177 11.962 15.404 22.492 24.3 32.5l0.5 0.55 0.55 0.55c6.144 6.144 11.881 11.934 19.1 17.95 5.069 4.224 9.556 8.656 15.7 14.8 5.604 5.604 11.407 10.168 16.050 13.65l1.050 0.8 1.15 0.7c5.981 3.589 11.787 6.465 18 8.95l0.7 0.3 0.7 0.25c5.21 1.737 12.522 1.813 18.8 0.1-0.102 0.952-0.95 1.204-0.95 2.2 0 9.557 4.959 17.159 9 21.2l6.1 6.1 2.4 1.5c55.851 35.443 117.559 60.346 185.45 72.2l0.4 0.1 0.35 0.050c4.127 0.59 10.768 2.286 17.25 4l6.5 6.5h117.1c9.045 0 15.093-3.743 19.5-8.15 0.047-0.047 0.054-0.153 0.1-0.2 7.441-0.169 13.235-1.443 17.4-2.3 21.281-3.217 39.006-7.615 54.8-13.2 22.893-6.297 44.371-13.711 64.3-23.6 20.19-9 40.937-21.013 60.65-35.25l1.65-1.2 1.45-1.45c3.072-3.072 4.558-3.379 0.5-1.35l3.7-1.85 2.95-2.95c3.233-3.233 6.861-11.101 7.55-18.1h5.1c3.083 1.521 6.15 3.89 14.6 2.2 10.939-2.188 17.512-11.223 19.55-15.3l-2.6 3.6c4.534-3.532 9.865-7.929 11.8-11.8l-5.45 7.25c15.36-14.336 31.212-29.031 46.35-45.25 15.333-16.428 29.396-34.958 41.5-54.65 57.951-82.897 88.166-179.271 90.3-284.9v-0.5c0-14.482-1.010-30.309-4.8-45.7-1.412-15.882-4.239-30.531-7.050-43.65l-0.2-0.8c-1.683-6.731-2.523-14.018-5.65-23.4-1.229-3.686-2.617-8.796-4.6-14.5-1.663-6.652-10.609-14.661-19.55-18.8l3.65-10.95c0.242-0.726 0.552-1.488 1.1-2.95s2.25-2.255 2.25-11.3v-12.050l-1.8-4.6c-4.642-11.606-9.75-21.826-13.3-30.7-4.424-11.060-9.933-23.236-16.65-35.55l-0.55-1-0.65-0.95c-8.738-13.107-17.954-25.381-25.6-36.85-9.284-13.926-20.291-27.015-31.050-38.85-47.364-52.71-105.39-95.62-173.35-129.6l-0.25-0.1-0.25-0.15c-20.468-9.695-40.119-17.332-60.6-23.8-20.005-6.317-41.572-11.571-65.15-14.9-9.907-2.37-19.958-3.531-29.6-3.6-10.094-1.087-20.173-1.1-30.7-1.1zM530.6 2.050c-5.42 0-12.215 4.611-18.050 9.1 0.568-0.708 0.153-1.053 0.85-1.75 5.97-5.97 12.612-6.94 14.95-7.2s2.506-0.15 2.25-0.15zM549.4 21.3l2.3 9.75-0.25-0.45v-0.050c-0.349-3.1 0.221-4.708-2.050-9.25zM559.55 52.1l1.2 0.1h1.6c6.059 0 13.643 0.911 19.4 2.35l1.35 0.3 1.4 0.2c20.813 2.838 39.769 7.58 58.2 13.4 18.346 5.793 35.503 12.473 53.85 21.15 62.935 31.504 115.385 70.436 158.050 117.95l0.050 0.1 0.050 0.050c9.721 10.693 19.2 22.15 26.3 32.8 8.465 12.698 17.3 24.54 24.8 35.7 5.391 9.967 10.026 20.065 13.7 29.25 1.504 3.76 2.765 6.477 4.3 9.95h-245.75c-8.192 0-15.485-0.112-19.95-0.75l-1.8-0.3h-1.8c-2.048 0-2.811-1.855 4.3 1.7-4.864-2.432-5.231-1.221-8.1-1.6-1.141-0.608-1.899-0.999-2.7-1.8l-2.85-2.9c-1.521-6.082-3.248-12.822-5.2-15.75l2.75 5.4c-11.155-30.422-21.243-59.717-30.3-88.9-9.216-29.696-18.369-59.215-26.45-87.5-4.406-15.42-10.026-31.142-17.8-47.8-3.766-8.069-5.904-15.503-8.6-23.1zM458 53.050c0.063-0.008 0.236 0.008 0.3 0-14.46 38.266-26.832 75.246-39.050 111.9-12.333 36.999-24.574 74.749-37.75 112.25l-0.1 0.4c-1.508 4.525-4.612 11.687-7.2 19.45-2.305 6.916-4.329 14.025-6.1 19.35l0.5-1.3c-1.909 4.772 0.324 1.933 1.3 1.3h-85.050c-22.528 0-43.656-0.015-64.35-1h-127.85c5.55-12.43 11.033-24.792 18.050-38.85 5.417-8.945 11.98-18.443 18.95-28.4 6.587-9.409 13.437-19.339 20.35-30.050 29.519-33.375 60.578-62.432 94-85.35 33.996-23.311 71.799-42.692 114.65-57.3 12.21-4.070 23.598-7.838 35.35-10.55 13.312-3.072 25.644-5.939 39.6-7.8l1.45-0.15 1.4-0.35c6.244-1.561 13.358-2.526 21.55-3.55zM508.3 60.7c3.82 11.797 7.577 23.565 13.45 36.15 6.562 14.062 11.164 26.998 14.95 40.25 8.303 29.059 17.584 58.904 26.8 88.6 9.375 30.209 19.727 60.332 31.1 91.35l1.050 2.85 1.7 2.5c1.32 1.98-1.2-3.383-1.2-6 0 7.171 2.915 13.462 6 19.2 4.587 9.394 13.982 16.727 16.050 17.8 3.526 2.655 7.011 5.655 10.5 7.4l5.4 2.7h6.050c2.048 0 2.861 1.905-4.25-1.65 10.906 5.453 15.932 3.692 18.1 3.6 8.57 0.951 16.807 1.15 24.050 1.15h258.75c-22.16 17.123-44.144 34.082-64.75 48.8-21.573 15.409-43.132 31.865-64.65 49.25-17.904 10.94-36.395 22.146-53.6 35.050-15.565 11.674-34.235 24.139-53.6 39.2l-4.55 3.55-2.6 5.2c2.022-4.045 0.151-1.298 0.4-1.45-10.567 7.183-15.4 20.598-15.4 29.3v6.050l2.7 5.4c-1.005-2.010 0.892 4.427 3.75 13 9.189 28.589 18.428 57.366 28.75 87.3 10.128 29.37 19.284 57.878 28.5 86.55 5.336 18.063 11.397 35.269 16.2 51.6 4.336 14.741 9.294 29.087 14.2 43.6-12.117-8.046-25.042-17.229-37.35-26.9-15.047-11.823-30.316-21.994-43.95-31.7l-1-0.75c-24.598-19.447-49.324-38.013-76.1-56.55-26.007-18.005-51.424-37.31-78.3-56.95l-1.75-1.3-0.65-0.35c-1.464-1.405-2.491-2.77-6.35-4.7 1.005 0.503-0.049-0.5-5.15-3.050l-5.4-2.7h-17.25l-6.050 3.65c-4.259 2.555-7.502 4.176-9.55 5.2l-2.35 1.15-2.050 1.65c-38.352 30.278-79.040 59.754-120 89.45-38.324 27.785-76.727 55.868-114.55 84.75 14.414-45.91 28.782-90.383 43.25-134.75l0.050-0.15c15.416-46.251 30.751-94.302 47.050-143.2l0.5-1.55 0.35-1.55c0.895-4.476 2.55-8.539 2.55-17.3l-7.5 18.1c3.529-3.529 9.53-15.149 7.6-24.8-1.375-6.876-3.894-8.594-6.15-11.050-4.244-6.642-10.040-12.27-16.3-15.4l4.35 2.75c-29.498-23.177-59.513-43.838-87.95-64.15l-0.2-0.15-0.15-0.1c-29.401-20.277-57.864-40.613-87.4-62-0.069-0.050-0.131-0.1-0.2-0.15-9.849-7.89-20.611-16.75-31.55-25.7-9.346-7.646-19.616-14.98-29.85-22.15l135.3-0.050c22.314 1.063 44.222 1.050 66.75 1.050h89.45l1.4-0.15c19.145-2.127 34.337-18.192 40.4-33.35l0.3-0.7 0.25-0.7c2.318-6.954 4.372-14.116 6.15-19.45 1.477-4.432 4.447-11.472 7-19.050l0.15-0.4c13.392-38.137 25.701-76.052 37.9-112.65 12.288-36.864 24.446-73.374 38.55-110.65l1.65-4.4v-4.65c0 0.059 0.253-0.766 0.25-0.75zM511.15 145.4l2.5 1.050c-4.555-1.328-8.488-3.685-15.2-1-7.144 2.858-8.721 7.807-11.050 12.2-0.011 0.013 0.011 0.037 0 0.050-0.973 1.84-4.254 3.779-4.65 5.1-0.93 3.099-0.828 4.621-0.9 6.4l-3.75 3.75-1.8 6.4c-5.938 20.782-12.89 41.476-20.7 61-8.323 20.807-15.663 41.83-22 63.85-0.083 0.249-0.12 0.356-0.2 0.6-0.049 0.17-0.101 0.33-0.15 0.5-1.063 3.309-1.908 6.399-2.45 8.35-0.614 2.21-1.678 4.105 0.1 0.55l-2.7 5.4v2.050c-1.142 4.122-2.050 8.726-2.050 9.1 0 6.315 1.536 13.465 6.4 19.95 4.822 6.43 13.636 11.61 23.1 11.7 6.788 0.834 15.348 1.29 24.75 0.8v4.4h73.75c2.931 0 3.928-0.527 5.9-1h5.25l3.25-1.65c1.319-0.161 1.954-0.087 3.050-0.4 2.589-0.74 5.223-1.966 7.6-3.55 4.753-3.169 8.112-7.573 10.15-11.65 2.551-5.101 3.7-14.526 3.7-15.55v-5.25l-2.050-4.8c-2.608-6.086-4.229-10.901-6.1-17.45-2.667-9.335-5.992-17.025-7.5-21.55l-0.3-0.9-0.4-0.9c-7.6-18.050-13.516-36.848-19.75-55.55-5.784-17.353-10.946-36.789-17.45-56.3l-0.55-1.7v-0.050c-0.017-0.075-0.032-0.129-0.050-0.2-0.615-2.46-1.525-5-2.8-7.55l-7.1-14.15h-6.9c-0.313-0.182-0.308-0.313-0.65-0.5-0.836-0.456-3.501 0.177-4.7-0.3-0.525-0.084-1.83-1.009-2.2-1.050-2.626-0.292-3.144-0.2-3.4-0.2zM539.050 170.45c0.032 0.117 0.069 0.126 0.1 0.25 0.359 1.436 0.65 5.45 0.65 5.45s-0.349-3.259-0.75-5.7zM481.55 171.3c-0 0.098-0.050 0.304-0.050 0.4-0.52 2.585-3.15 4.357-3.15 7.5 0-4.677 1.578-5.907 3.2-7.9zM489.15 180.5c0.067 0.556 0.112 0.706 0.2 1.25-0.026-0.097-0.075-0.098-0.1-0.2-0.070-0.278-0.038-0.626-0.1-1.050zM508.4 243.8c6.036 18.116 12.344 38.206 21.1 59 1.83 5.277 3.398 9.644 4.75 13.6h-2.65v-0.15l-21.4-3.6c-8.119-1.353-16.576-0.805-25.35-0.1 5.41-18.063 11.279-35.648 18.3-53.2 2.021-5.052 3.356-10.414 5.25-15.55zM564.4 314.35c-1.16 0-5.633 1.359-9.4 2.15 0.104-0.043 0.196-0.108 0.3-0.15l3.95-0.95c-1.514 0-1.723 0.311-3.050 0.5 0.466-0.166 0.88-0.466 1.35-0.6 2.365-0.676 6.85-0.95 6.85-0.95zM646.75 314.65c0.104 0.123 0.098 0.125 0.2 0.25 0.144 0.669 0.4 0.704 0.4 1.5 0-0.687-0.547-1.057-0.6-1.75zM474.95 340.35c-0.196 0.462 0.037 0.376-0.2 0.85-2.925 5.85-4.412 6.112-3.9 5.6 0.296-0.296 2.398-4.004 4.1-6.45zM961.7 356.35c-6.498 0-7.666 1.316-9.7 2.4-0.38 0.192-1.393 0.121-1.75 0.3l11.45-2.7zM26.7 363.6c-0.955 0.909-1.152 1.747-1.9 2.7 0.552-0.775 0.762-1.912 1.3-2.45l0.6-0.25zM58.45 364.8c2.538 0.635 3.708 0.386 5.95 0.65 0.066 0.001 0.186 0.1 0.25 0.1l-6.2-0.75zM660.65 368.65c-2.048 0-7.443-1.903-18.65 3.7l-3.7 1.85-2.95 2.95c-6.546 6.546-6.925 10.359-8 14.3s-1.55 7.819-1.55 12v9.55l16.7 46.7c5.444 16.331 11.679 31.944 17.7 48l0.2 0.5c2.445 6.112 8.926 15.645 19.3 19.35s18.349 1.334 23.85-0.5l5.75-1.9 8.15-8.15c18.97-14.968 36.627-28.698 54.9-41.2l0.3-0.2 0.25-0.2c17.197-12.42 36.95-24.286 58.15-36.4l2.95-1.7 7.55-7.55c8.082-8.082 8.615-13.28 9.9-15.85l3.75-7.45v-6.050c0-1.271-1.751-2.010-2.050-3.35v-9.3l-7.5-7.5c-1.533-1.533-2.512-0.895-4.050-1.9-0.481-0.317-0.585-1.518-1.050-1.75-2.728-1.364-3.084-0.829-5.15-1.2-2.342-0.739-5.525-3.166-7-3.35-3.629-0.454-5.464-0.35-7-0.35h-56.3v-2.050h-97.8c-1.781-0.444-3.114-1-6.65-1zM502.95 369.65c-6.144 0-16.748-0.095-29.1 2.65l5.55-0.6c-8.536 0-17.91 0.116-27.6 1.15-4.635-0.061-10.056-0.386-18.2 2.050-15.31 4.209-24.75 17.752-28.2 31.55l-1.5 5.3c-4.165 11.481-7.924 22.447-12.95 32.5l-0.4 0.75-0.35 0.85c-5.508 13.22-10.894 28.33-15.3 43.75l1.7-4.4c-4.599 9.197-6.802 17.732-8.85 24.9-1.429 5.001-4.262 11.637-6.85 19.4l-0.75 2.2-0.3 2.3c-1.603 11.223-4.816 21.934 9.3 36.050l4.35 4.35 2.8 1.65c17.295 10.173 31.783 18.911 45.95 29.3 15.36 11.264 30.579 22.419 47.75 35.55l-2.55-2.25c5.065 5.065 10.752 7.876 12.8 8.9s0.419 0.269-0.55-0.7l4.3 4.25 5.75 1.9c2.486 0.829 6.794 2.136 13.15 2.75 11.517 1.597 26.966-1.247 37.95-10.4l-4.95 3.2c5.101-2.55 7.878-4.652 10.95-6.7-4.574 3.050 0.437 0.438 8.2-2.15l5.3-1.75c-1.887 1.334-4.062 2.513-5.9 3.85l-3.1 2.3-2.35 3.050c-2.253 3.004-2.726 3.426-3.75 4.45l-1.8 1.8-1.4 2.1c-2.48 3.721-5.85 9.413-5.85 18.15s5.009 17.259 9.050 21.3l-5.65-8.6 4.85 12.25 6.3 4.35c20.808 14.566 41.964 28.689 62.65 44.45l0.3 0.25 0.3 0.2c21.379 15.271 44.228 31.92 68.5 47.75l1.2 0.8 1.35 0.65c2.048 1.024 6.969 4.75 17.55 4.75 0.512 0 6.189-0.095 11.2-2.1s8.468-4.918 11-7.45l7.5-7.5v-10.6c0-2.048 0.051-4.484-0.2-7.75-0.126-1.633-0.272-3.462-0.95-6.25s-1.060-7.010-7.35-13.3l6.5 11.050c-14.589-51.061-31.263-99.077-50.050-145l-1-2.35-1.4-2.15c0.137 0.205 0.050-0.349-2.5-5.45l2.2 6.45c-0.739-3.694-1.884-7.989-5.55-13s-11.426-10.613-19.8-11.45c-11.761-1.176-17.725 3.098-22.1 7.6-2.532 1.591-5.387 3.137-7 4.75l3.050-2.6c-9.846 7.161-21.893 14.262-35 23-9.927 5.846-19.354 12.335-28.6 18.8l3.7-4.2c7.267-8.306 12.498-13.927 16.1-16.5 7.168-5.12 14.731-10.534 21.95-16.55l0.9-0.75 0.85-0.8c1.079-1.079 4.937-3.937 9.4-5.85l0.65-0.3 0.7-0.35c8.179-4.090 15.53-9.014 21.95-14.15l1.1-0.9 1-1c-2.505 2.505-0.905 0.884 0.7-0.4s3.908-3.208 6.45-5.75c7.058-7.058 9.55-15.489 9.55-24.25v-1.4l-0.15-1.4c-1.277-11.491-3.932-20.846-6.25-27.8-1.508-4.525-2.562-9.637-5.15-17.4l-0.1-0.35-0.1-0.3c-4.096-11.264-8.358-23.009-13.75-35.95-5.12-12.288-10.213-24.483-14.2-34.45l1.85 9.5c0-8.761-2.2-14.549-4.75-19.65l2.7 11.45c0-10.581-2.2-13.499-4.75-18.6l-0.8-1.55c-0.293-0.757 0.045-0.761-0.35-1.55-3.181-6.362-5.188-7.138-5.7-7.65l2.85 4.95-0.1-0.1c-6.458-14.591-18.679-27.851-33.75-31.2l-1.35-0.3-1.35-0.15c-11.285-1.254-22.312-1.2-34.6-1.2h-34.8zM197.8 370.7c-1.024 0-2.948-0.3-7.45 0.6-0.825 0.165-1.76 1.128-2.7 1.45h-23.65v27.65c0 12.629 3.518 20.268 11.6 28.35l1.65 1.65 1.95 1.3c16.384 11.264 32.821 22.614 48.4 33 14.486 9.657 30.475 21.575 48.7 35.75 6.575 5.218 12.24 8.743 14.65 10.55l-0.6-0.5c5.445 4.356 10.739 8.353 17.15 12.2l0.85 0.5 0.85 0.45c-1.005-0.502-3.55-2.75-3.55-2.75l-0.1-0.2c1.467 1.497 2.441 2.157 3.65 2.95 1.265 0.83 3.1 2.675 3.85 3.050 3.565 1.782 2.802 1.301 2.3 1.050s0.325 0.775 5.95 2.65c5.625 1.875 16.497 1.152 22.1-1.65l3.7-1.85 2.95-2.95c1.024-1.024 9.55-11.619 9.55-22.2l-1.5 8.55c6.039-17.111 12.054-33.075 17.85-46.6 6.724-15.688 12.030-31.69 17.15-47.050l1.3-3.9v-4.15c0-6.022-0.288-12.22-4.45-19.95-3.846-7.142-14.724-13.599-24.25-14.7-4.659-0.574-10.601-2.25-14.3-2.25h-47.1v-1h-106.5zM828.55 373.75c-0.256 0-0.088-0.11 2.25 0.15 0.242 0.027 1.221 0.703 1.55 0.75-0.969-0.053-3.8-0.9-3.8-0.9zM842.3 379.45c1.406 0.906 2.106 0.306 3.5 1.7 5.97 5.97 6.94 12.612 7.2 14.95 0.092 0.831 0.031 0.441 0.050 0.8-1.627-7.004-5.852-13.76-10.75-17.45zM61.15 414.25c6.428 4.727 13.043 9.235 19.050 14.15 11.264 9.216 22.597 18.478 33 26.8l0.45 0.35 0.5 0.4c29.782 21.566 58.628 42.164 88.55 62.8 27.668 19.757 55.641 39.279 82.4 60.1-16.032 48.183-31.108 95.274-46.050 140.1l-0.050 0.050v0.1c-13.115 40.218-26.29 81.014-39.45 122.65-0.634-0.577-1.589-1.239-2.1-1.75-6.144-6.144-11.881-11.934-19.1-17.95-4.828-4.024-9.244-8.398-14.95-14.1-7.324-8.272-13.371-16.069-18.4-24.45-6.531-10.885-12.246-19.541-16.45-27.95l-0.65-1.25-0.75-1.15c-8.75-13.61-16.39-27.079-24.2-42.7-7.769-15.538-14.5-29.942-20.3-43.4-5.98-19.942-11.765-39.397-15.45-56.9-4.096-19.456-8.104-38.626-11.050-56.3-0.972-12.591-1.896-24.879-4.25-36.65-1.083-5.412-0.647-13.188 0.4-26.8l0.1-0.95v-1c0-11.731 0.903-22.972 1.9-34.95 1.979-11.871 3.971-23.728 5.95-35.6 0.441-1.58 0.565-2.259 0.9-3.65zM953.050 418.45c0.651 3.017 1.014 4.57 2.050 8.8 3.072 14.336 5.782 27.326 6.65 40.35l0.15 2.3 0.55 2.25c2.24 8.96 3.281 21.496 3.3 33.4-1.993 96.773-29.029 182.344-81.35 256.95l-0.45 0.7-0.4 0.65c-10.324 16.894-22.653 33.014-35.8 47.1-9.533 10.214-20.274 20.156-30.85 30.15-3.389-10.097-7.055-20.645-9.85-30.15-5.381-18.294-11.541-35.678-16.4-52.2l-0.050-0.35-0.1-0.3c-9.216-28.672-18.498-57.528-28.85-87.55-10.128-29.37-19.284-57.828-28.5-86.5l-0.050-0.15-0.050-0.1c-0.279-0.836-1.211-3.374-1.45-4.45-0.003 0.008 0.053-0.058 0.050-0.050 17.499-13.611 35.697-25.748 52.9-38.65 15.019-11.264 32.818-22.186 51.25-33.45l1.4-0.85 1.35-1.1c21.122-17.099 42.184-33.153 63.25-48.2 16.789-11.992 34.072-25.38 51.25-38.6zM502.95 420.85h34.8c11.036 0 19.149 0.213 26 0.8-0.473-0.841-1.504-2.83-0.5 0.85l1.8 6.55 1.15 1.15c0.012 0.024-0.012 0.026 0 0.050 0.143 0.286 0.112 0.086 0.25 0.35v2.45l2.050 4.1v3l1.8 4.55c4.205 10.513 9.38 22.862 14.5 35.15 4.833 11.6 8.718 22.423 12.8 33.65 0.013 0.035 0.037 0.065 0.050 0.1 1.42 4.401 2.409 9.278 4.9 16.75 0.846 2.537 1.249 5.573 1.9 8.2-3.412 2.528-7.178 5.164-10.55 6.85l1.35-0.6c-9.873 4.231-18.287 9.587-25.4 16.7l1.7-1.6c-5.069 4.224-11.782 9.080-18.95 14.2-8.559 6.113-14.095 12.91-19.85 19.5-3.753 0.806-6.808 0.655-14.3 5.65-3.072 2.048-6.455 4.002-5.45 3.5l-2.65 1.35-1.5 1.2-0.7-0.1c-0.011-0.007-0.039 0.007-0.050 0-1.641-0.961-4.155-3.053-4.95-3.45-2.048-1.024-0.469-0.269 0.5 0.7l-1.2-1.2-1.35-1.050c-17.645-13.493-33.19-24.886-48.55-36.15-13.323-9.77-26.759-17.653-40.5-25.85 1.611-4.265 3.161-7.962 4.9-14.050 2.048-7.168 3.904-12.959 5.45-16.050l1.1-2.15 0.65-2.3c3.786-13.252 8.618-26.744 13.35-38.1l-0.75 1.6c7.162-14.323 11.574-27.754 15.5-38.55l0.3-0.85 1.1-3.8h0.7l1.6-0.2c5.847-0.731 14.234-0.85 23.45-0.85h2.8l2.75-0.6c6.080-1.351 11.856-1.45 18-1.45zM683 420.85h30.9v2.050h46.6c-5.557 3.655-11.702 6.799-17.050 10.65-0.1 0.068-0.2 0.132-0.3 0.2-0.066 0.048-0.134 0.102-0.2 0.15-14.991 10.279-29.098 21.416-43.4 32.55-2.869-7.612-6.117-15.802-8.5-22.95l-0.050-0.25-8-22.4zM257.1 422.9h79.3c-2.472 6.909-4.83 14.42-7.5 20.65-3.239 7.558-6.338 16.502-9.5 24.8-4.423-3.158-8.494-5.775-11.4-8.1l-0.3-0.2c-18.244-14.19-34.685-26.481-50.6-37.15zM819.8 422.9h1.4c0.375 0.081 0.97 0.593 1.3 0.65-1.070-0.18-1.365-0.21-2.7-0.65zM693.75 545.1l-4.1 4.1 3.85-3.15c-0.125 0.237 2.872-3.572 0.25-0.95zM375.8 584.1c-6.126-2.12-15.528-1.336-21 1.4-10.945 5.472-11.012 9.568-12.4 11.65-4.233 6.349-6.202 11.905-5.7 10.9l-1.1 2.15-0.65 2.3c-1.871 6.549-3.396 10.941-5.45 15.050-3.581 7.162-6.962 15.037-9.55 22.8-6.090 17.255-12.218 34.605-17.4 50.15-5.336 16.008-10.565 33.782-15.75 52.45l-0.25 0.9-0.2 0.95c-0.895 4.476-2.55 5.669-2.55 16.25-0 1.536-1.653 3.367 2.1 12.75 0.432 1.080 2.189 2.043 2.95 3.25 1.007 2.006 2.307 4.565 5.85 7.9 0.457 0.43 1.687 0.468 2.25 0.9 0.792 0.542 1.034 1.592 1.85 2 3.344 1.672 5.081 1.397 7.4 1.7 2.569 0.857 4.221 2.75 6.9 2.75 6.783 0 6.729-2.491 9.75-4.3-1.255 0.244-0.469 0.7-3.2 0.7 4.538 0 5.886-1.858 8.85-3.2 0.929-0.967 4.516-1.616 5.15-2.25-0.596 0.596-0.665 0.424-1.1 0.8 1.185-0.753 4.053-1.143 4.75-1.7 1.362-1.090 1.702-1.519 2.4-2.2 8.986-6.211 18.742-12.104 29.45-19.6 10.897-7.628 20.992-15.504 31-24.4 7.72-6.863 16.431-13.006 27.65-19.55 13.357-7.792 24.148-15.349 33-21.25l-2.75 1.6c10.202-5.101 16.1-13.549 18.65-18.65l2.7-5.4v-20.75l-7.15-7.15c-0.294-0.507-0.703-0.933-1.050-1.45-0.663-0.846-0.517-1.117-1.35-1.95-1.152-1.407-1.177-2.738-2.8-4-0.281-0.219-0.61-0.096-0.9-0.3-12.066-10.059-25.183-21.14-41.65-30.55l1.9 1.2c-14.042-9.721-27.136-17.84-38.15-26.1l2.75 2.4c-0.269-0.269-2.852-1.952-4.050-3-0.017-0.015-0.033-0.035-0.050-0.050-0.028-0.028-0.122-0.072-0.15-0.1-1.093-0.923-0.601-1.126-3.45-2.55-0.435-0.218-0.423-0.014-0.85-0.2-1.875-1.48-2.981-2.98-6.65-4.25zM370.85 585.75c-0.256 0 0.698-0.29 4.4 0.45 0.514 0.103 1.159 0.761 1.75 0.95-2.216-0.298-5.897-1.4-6.15-1.4zM505.9 604.45l1.2 0.75h-1.1c6.485 0 2.972 0.274-0.1-0.75zM376.9 646.1c6.828 4.557 13.903 9.437 20.35 13.9l0.9 0.65 0.95 0.55c5.582 3.19 11.189 8.19 16.65 12.3-4.571 2.99-8.674 5.939-13.75 8.9-13.357 7.792-25.138 15.979-35.85 25.5-5.193 4.616-10.811 8.607-16.25 12.75 0.39-1.193 0.812-2.785 1.2-3.95 5.012-15.036 11.106-32.342 17.25-49.75l0.1-0.2 0.050-0.2c1.508-4.525 4.237-11.024 6.8-16.15 0.737-1.474 0.955-2.843 1.6-4.3zM638.25 648c9.045 22.915 16.808 47.467 24.8 71.65-6.358-4.54-13.042-8.98-19.3-13.45-15.692-11.925-30.465-21.884-45.25-32.1 6.603-4.434 13.083-9.111 19.75-13l1.3-0.8c5.843-3.895 12.422-8.289 18.7-12.3zM507.15 738.4c0.87 0.546 0.685 0.767 1.75 1.3l-1.9-1.15c0.055-0.043 0.095-0.107 0.15-0.15zM506.85 738.65c25.811 18.891 51.113 38.075 77.8 56.55 26.119 18.082 50.217 36.165 74.45 55.35l0.5 0.4 0.5 0.35c14.805 10.575 29.822 20.618 43.1 31.050 8.491 6.672 17.508 12.654 26.4 19-11.241 6.967-22.629 14.657-33.3 19.4l-0.5 0.2-0.55 0.3c-16.397 8.198-35.249 14.85-56.7 20.7l-0.95 0.25-0.95 0.35c-12.591 4.497-27.191 8.226-46.35 11.1l-0.65 0.050-0.6 0.15c-5.764 1.153-7.593 1.55-9.3 1.55-11.947 0-19.823 4.289-23.85 5.9l9.5-1.8c-3.858 0-8.919 1.851-13.050 4.1h-86.9l-1.2-1.2-6.2-1.85c-11.29-3.387-21.492-5.685-30.35-6.95l0.8 0.15c-51.287-8.955-97.488-27.759-141.2-52 33.448-25.28 67.328-50.267 101.65-75.15 39.697-28.78 79.542-57.824 117.9-87.95zM252.050 870.4c-2.932 0-3.42 1.682-6.15 2.65-1.498 0.159-1.672 0.541-2.85 0.85 0.053-0.17 0.097-0.33 0.15-0.5l8.85-3zM241.55 873.95c-0.005 0.075-0.043 0.261-0.050 0.35-0.2 0.070-0.361 0.128-0.55 0.2 0.015-0.17 0.138-0.227 0.15-0.4l0.45-0.15zM758.75 882.3c-4.102 2.051-4.893 3.649-6.95 5.5 0.113-0.126 0.193-0.593 0.3-0.7l6.65-4.8zM588.95 987.15l-6.8 16.4c-0.035 0.038-0.064 0.062-0.1 0.1 3.492-4.186 6.9-8.846 6.9-16.5z"/></svg>