<svg xmlns="http://www.w3.org/2000/svg" viewBox="-13.6 -103.2 1208.6 1208.6" fill="currentColor"><path d="M529.767 0c-7.87-0-17.533 2.696-24.558 9.721s-9.721 16.688-9.721 24.558v9.535c0 12.172-1.699 25.379-3.581 38.558l-0.233 1.674v1.674c0-0.149 0.251-0.846-0.698 2s-1.145 3.067-1.023 2.884l-0.558 0.837-0.465 0.837c-3.286 5.916-6.376 9.377-11.209 13.070-7.015 4.355-13.721 8.399-17.349 9.953l-0.651 0.233-0.605 0.326c-7.171 3.585-18.159 6.214-34.419 7.070l-2 0.093-1.907 0.419c-7.297 1.621-14.007 2.489-21.628 3.442-5.682 0.71-11.199 0.735-18.233-0.047l-1.116-0.093c-17.353-1.085-33.755 1.45-48.977 6.977-24.526 5.872-46.717 18.744-65.163 38-8.148 7.187-13.645 14.705-18.837 21.628l-0.791 1.116-0.698 1.209c-6.717 11.514-14.445 25.037-22.233 39.628-6.297 11.544-12.787 25.431-17.256 41.070-3.728 13.048-7.613 25.57-10.698 37.907-1.905 7.62-3.617 14.478-6.14 22.047-2.69 8.071-5.151 14.27-7.628 18.605l-0.047 0.093-0.093 0.14c-5.126 9.227-10.128 19.306-15.116 30.279-4.837 10.641-9.609 22.232-14.372 34.558-7.088 12.558-12.792 25.552-18.884 38.605-6.496 13.921-13.174 27.218-19.116 40.093l0.977-1.86c-4.779 8.364-8.544 16.995-13.023 25.953-5.047 10.094-9.106 18.589-10.884 21.256-2.745 3.725-4.938 6.965-6.651 9.535 0.128-0.191-2.883 3.084-6.884 8.419-0.445 0.527-2.76 2.755-1.767 2.093l-1.953 1.302-1.674 1.674c-2.44 2.44-5.831 6.127-9.209 10.326-4.049 4.248-6.275 7.809-8.047 10.465-0.425 0.638-1.157 1.326-2.14 2.326-4.713 3.798-9.837 8.093-13.907 11.349l-1.023 0.791-0.93 0.93c-3.64 3.64-7.712 6.977-13.628 11.907l4.558-3.023c-5.213 2.606-8.794 6.237-11.302 10-0.555 0.832-0.519 2.529-1.023 3.349-0.96 1.637-2.628 3.709-2.93 4.465-0.645 1.612-0.374 0.933-0.14 0.465l-2.512 5.023v9.023l0.186 1.488c1.748 13.987 2.694 25.924 4.651 38.233 0.008 0.083 0.039 0.15 0.047 0.233 1.156 12.442 4.159 24.015 6.884 34.884 0.003 0.019-0.003 0.028 0 0.047 2.401 14.367 6.922 25.511 9.442 33.070 3.36 10.079 7.37 18.983 10.977 28l0.372 0.93 2.047 4.093 0.837 1.256c0.614 0.921 1.19 2.335 4.093 5.721s11.575 9.628 20.465 9.628c1.429 0 3.182 0.143 6.558-0.279s9.911-1.539 16-7.628l-2.558 2.186c6.604-4.953 13.947-9.497 21.488-14.884l-3.209 1.907c9.75-4.875 17.471-10.493 24.14-15.256l0.419-0.279 0.372-0.326c9.248-7.193 17.724-14.562 26.047-22.884l23.814-23.814-2.233 1.953c10.115-7.868 18.426-16.24 26.047-23.86 9.726-9.725 17.508-21.083 24.047-33.070l0.233-0.372 0.186-0.372c2.745-5.491 6.735-11.219 10.884-17.442l-1.535 2c6.595-7.914 10.774-15.393 13.907-20.093l0.837-1.256 0.651-1.302c7.445-14.889 14.916-28.839 21.209-39.628 6.667-11.429 13.39-23.029 19.349-33.953l0.465-0.791 0.372-0.837c8.696-19.324 17.288-39.44 25.86-59.442 5.418-12.641 11.575-22.746 17.581-33.302 0.295 1.364 0.747 2.434 1.023 3.814 2.898 14.488 5.69 27.591 7.442 38.977l0.233 1.488 0.419 1.442c1.164 4.076 2.117 10.705 3.070 18.326 0.892 7.136 1.907 17.258 3.953 29.535l0.047 0.372 0.093 0.372c1.546 7.729 2.496 18.194 4.651 30.047 1.564 8.604 2.542 20.419 3.488 33.674l0.093 0.837 0.093 0.791c1.725 12.078 2.605 25.286 2.605 39.535 0 15.241-0.017 29.033-0.884 41.163l-0.047 0.837v0.837c0 11.431-0.136 19.282-1.442 25.814-1.845 9.226-3.723 17.613-5.628 26.186l-0.14 0.605-0.093 0.651c-0.6 3.599-2.354 10.066-4.372 18.14-1.339 5.355-3.732 11.011-6.14 18.233l-0.419 1.163-0.233 1.209c-1.986 8.938-3.955 18.614-5.86 28.14-1.966 9.829-3.83 20.312-5.674 29.535l0.419-1.907c-4.303 15.061-6.351 28.737-8.279 42.233-1.883 13.181-3.794 25.58-5.721 39.070-0.862 6.034-2.14 11.635-2.14 19.581l0.465-4.698c-1.671 8.355-1.517 13.801-2.046 16.977l-0.326 1.907v25.256l13.163 6.605c-0.464-0.232-0.747-0.419 0.651 0.419 0.715 0.429 4.754 1.14 7.070 2.047 6.655 2.626 15.094 5.139 23.814 3.395 2.368-0.474 3.864-0.512 7.674-0.512h465.814c6.721 0 15.751-3.084 21.395-9.535s7.163-14.079 7.163-19.953c0-4.755 0.233-10.743-1.628-18.186-0.035-0.14-0.655-4.353-1.349-8.233-1.047-14.981-2.995-28.646-4.837-42.465-1.929-14.467-4.933-28.081-8.651-41.535-2.985-18.904-6.887-37.39-10.698-55.488l-0.14-0.558-0.14-0.605c-4.564-17.343-8.357-35.382-13.256-54.977l-0.512-2-0.837-1.86c-2.348-5.283-3.886-12.147-4.698-21.070-0.909-10.903-1.843-20.872-2.744-30.791v-34.698c0-12.383 0.174-23.748 1.488-30.977l-0.326 1.535c1.632-6.528 1.674-12.445 1.674-15.302v-8.419c0.932-13.882 1.943-25.613 3.349-32.651 2.269-11.329 3.199-21.809 4.744-29.535l0.14-0.512 0.047-0.512c2.059-13.381 3.214-25.046 4.512-30.884l5.907-26.605 0.093-0.884c1.623-11.357 3.193-19.666 4.744-27.023 1.564 2.953 3.049 6.605 4.512 9.163 10.479 21.91 20.846 43.555 30.14 64.93 9.958 22.903 20.907 43.848 32 62 5.241 12.143 10.022 23.15 16.698 33.163 6.169 9.253 12.194 17.266 17.907 24.884l-2.233-3.628c10.378 20.755 22.093 37.977 35.209 52.186 12.144 13.156 25.683 25.691 39.721 38.791 0.082 0.082 0.197 0.15 0.279 0.233 0.116 0.109 0.209 0.217 0.326 0.326 10.845 10.816 22.887 21.987 36.372 30.977 10.67 7.113 22.309 15.847 36.512 24.977l0.512 0.372 12.698 7.256h6.326c1.429 0 2.923 0.218 7.023-0.465s11.322-4.206 14.605-7.488l1.209-1.209 0.977-1.349c4.382-5.842 7.456-12.035 9.767-17.814 2.515-6.288 3.422-9.588 3.907-10.558l0.884-1.721 0.558-1.767c5.871-18.593 10.874-36.58 14.884-55.628 4.175-19.829 6.13-39.751 8.047-60.837l0.093-1.070v-1.070c0-13.442-5.569-18.382-8.186-22.744l-2.558-4.233-4-2.884c-11.067-7.905-22.712-19.409-36.047-32.744l2.512 3.023c-6.010-8.414-12.050-14.422-15.86-18.233-3.604-3.604-6.449-6.54-9.163-9.86-3.437-5.179-6.515-9.96-8.279-13.488l-0.698-1.349-0.791-1.209c-0.764-1.147-3.708-8.046-6.372-17.814l-0.884-3.163-1.674-2.837c-5.115-8.525-9.87-18.032-16.186-28.558-4.634-7.724-10.121-19.414-15.674-32.372l-0.279-0.651-0.326-0.651c-5.951-11.902-12.473-24.063-17.767-35.535-5.748-12.454-12.009-25.931-17.256-40.791l-1.209-3.442-2.186-2.93c-2.481-3.311-3.274-4.454-4.465-6.837l-0.651-1.302-0.791-1.256c-2.367-3.55-4.105-6.051-4.791-7.256-2.007-5.703-4.079-10.913-5.256-14.837l-0.093-0.372c-0.029-0.098-0.112-0.276-0.14-0.372-1.947-7.722-3.882-14.54-5.721-20.977-0.781-4.228-1.592-10.004-4.605-17.535-0.471-1.177-1.642-6.85-4.14-14.465-4.148-14.391-9.227-27.617-14.372-38.93l-0.372-0.791-0.419-0.744c-5.425-9.95-11.255-21.672-18.419-33.954l-0.093-0.14-0.047-0.14c-9.294-15.49-19.070-28.604-30.279-39.814-14.236-14.236-32.382-25.325-53.721-33.86l-0.465-0.186c-18.296-6.861-38.71-10.195-60.093-9.070l1.256-0.047c-6.809 0-13.948-0.977-22.884-0.977-4.4 0-10.378-0.658-17.674-2.279l-1.953-0.419-1.953-0.093c-16.259-0.856-27.248-3.484-34.419-7.070l-1.116-0.558-1.163-0.419c-4.125-1.547-10.359-5.27-17.953-10.279-5.916-4.697-7.814-7.304-8.791-10.233l-0.233-0.651-0.279-0.651c-2.59-6.476-4-14.347-4-20.698v-1.953l-0.326-1.953c-0.6-3.599-0.605-6.54-0.605-11.302 0-3.8 0.111-10.236-1.442-18l0.465 4.651v-12.186l-0.233-1.674c-0.881-6.166-2.726-12.861-8.14-19.256s-15.211-10.698-23.070-10.698h-125.721zM542.791 47.628h96.791l0.186 0.837c0.352 1.762 0.512 4.878 0.512 8.698 0 3.907 0.31 9.685 1.023 15.721 0.061 12.249 2.433 24.882 7.163 37.023 4.771 13.816 14.338 24.614 24.791 32.744l0.698 0.512 0.744 0.465c8.436 5.624 17.016 10.992 27.116 15.023 15.412 7.55 32.608 10.665 52.093 11.721 8.477 1.698 16.657 2.977 24.465 2.977 4.4 0 12.547 0.977 22.884 0.977h0.605l0.651-0.047c14.712-0.774 28.479 1.585 40.605 6.093 16.607 6.68 28.916 14.59 37.488 23.163 7.842 7.842 15.264 17.564 23.116 30.651 5.926 10.18 11.278 20.899 17.023 31.488 4.247 9.392 8.52 20.517 11.907 32.372l0.14 0.465 0.186 0.512c1.154 3.462 1.93 9.174 5.256 17.488 0.479 1.198 1.484 5.701 2.558 11.070l0.186 0.93 0.279 0.93c1.905 6.668 3.696 13.019 5.488 20.186l0.093 0.419 0.14 0.372c2.483 8.689 5.529 15.843 6.93 20.047l0.558 1.581 0.744 1.535c3.322 6.643 6.953 11.174 8.186 13.023l-1.488-2.558c1.972 3.943 4.341 7.247 6.698 10.605 5.892 16.127 12.398 30.559 17.721 42.093 6.136 13.295 12.939 25.877 18.419 36.837l-0.558-1.256c5.877 13.713 11.808 26.766 18.605 38.093 4.95 8.249 9.658 17.55 15.674 27.674 2.556 9.065 4.876 17.828 10.512 26.372 3.466 6.492 7.232 12.383 10.605 17.442l0.558 0.837 0.651 0.791c4.775 5.968 9.396 10.558 13.209 14.372 3.81 3.81 7.275 7.31 10.791 12.233l1.116 1.628 1.395 1.395c11.48 11.48 23.352 22.436 36.233 32.512-1.706 18.147-3.381 34.886-6.465 49.535-3.61 17.149-8.162 33.512-13.721 51.116l1.442-3.488c-0.884 1.767-0.889 2.308-1.488 3.767-7.629-5.283-15.224-10.584-23.070-15.814-9.144-6.096-19.753-15.614-29.721-25.581l-0.279-0.279-0.326-0.279c-14.315-13.361-27.23-25.468-37.767-36.884-9.745-10.557-19.001-23.816-27.674-41.163l-0.93-1.907-1.302-1.721c-5.717-7.623-11.11-14.851-16.372-22.744-4.135-6.202-8.532-15.474-14.14-28.558l-0.651-1.581-0.884-1.442c-9.863-16.14-19.883-35.225-28.977-56.14-9.758-22.443-20.36-44.604-30.837-66.512l-0.372-0.791-0.465-0.744c-3.81-6.668-6.82-12.108-8.837-17.488l-0.651-1.814-0.977-1.674c-2.962-5.183-5.553-11.198-8.884-17.86-1.911-3.822-2.849-6.684-3.442-10.837l-0.698-4.744-2.465-4.14c-1.796-2.992-4.055-6.331-8.884-9.721s-13.994-6.124-21.953-3.953c-5.715 1.559-8.131 4.301-10.884 6.884h-2.93l-1.349 2.698c-0.024 0.034-0.023 0.059-0.047 0.093l-5.163 10.372c0 0-3.488 4.602-3.488 14.465l2.512-10.651c-2.615 5.23-4.164 9.794-5.116 12.651-0.451 1.352-3.116 7.013-3.116 15.163l0.558-5.163c-1.54 6.932-4.267 15.16-6.512 24.14l-0.093 0.279-0.047 0.326c-1.963 8.833-3.845 19.614-5.721 32.465l-5.721 25.628c-2.513 11.308-3.318 22.568-5.070 33.953-2.093 10.853-3.068 21.024-4.558 28.465-2.38 11.912-3.27 24.871-4.233 39.302l-0.047 0.791v10.326c0 2.858 0.041 2.629-0.233 3.721l-0.186 0.744-0.14 0.791c-2.496 13.727-2.279 27.105-2.279 39.488v36.326l0.093 1.070c0.953 10.478 1.894 20.911 2.837 32.233v0.186c1.094 12.033 3.332 24.23 8.605 36.093l-1.302-3.907c4.534 18.135 8.299 35.971 13.116 54.419 3.807 18.083 7.551 35.791 10.279 53.070l0.186 1.442 0.419 1.349c3.522 12.328 6.111 24.461 7.86 37.581 1.923 14.426 3.727 27.205 4.605 40.372l0.14 2.093 0.512 2h-444.605c-0.708 0-2.305 0.271-3.163 0.279l0.326-1.721v-2.326c0-1.58 0.631-5.535 1.674-12.837 1.883-13.181 3.794-25.58 5.721-39.070 1.882-13.176 3.613-24.25 6.93-35.86l0.279-0.93 0.186-0.977c1.966-9.829 3.876-20.266 5.721-29.488 1.83-9.15 3.592-18.12 5.349-26.093 1.524-4.342 4.42-11.17 6.744-20.465 1.792-7.167 3.858-14.029 5.163-21.86l-0.233 1.256c1.905-8.573 3.849-17.338 5.814-27.163 2.491-12.453 2.373-23.609 2.372-34.977 0.933-14.057 0.93-28.307 0.93-43.023 0-16.233-0.985-31.639-3.070-46.233-0.917-12.801-1.805-25.297-3.953-37.116-1.615-8.883-2.55-19.132-4.698-30.14-1.764-10.584-2.661-19.476-3.674-27.581-0.953-7.62-1.912-16.275-4.558-25.535l0.651 2.93c-2.059-13.381-4.996-26.981-7.814-41.070-3.097-15.486-7.195-29.723-11.256-41.907l-1.767-5.302-1.907-1.953c-0.899-4.342-1.258-8.889-3.302-12.977l-0.326-0.605-10.977-19.256h-42.372v22c-0.299 0.874-1.195 1.745-1.349 2.512-0.281 1.405-0.1 1.401-0.186 2.326-1.605 5.072-3.36 10.628-2.651 9.209-1.919 3.837-3.392 8.224-4.837 12.651-9.606 15.53-19.361 32.911-28.14 53.395-8.423 19.654-16.765 39.141-25.070 57.628-5.411 9.893-11.824 20.915-18.372 32.14-6.755 11.58-14.242 25.724-21.721 40.605-4.153 6.287-7.501 11.875-10.279 15.209l-0.837 0.977-0.698 1.070c-3.472 5.208-8.985 12.808-13.86 22.558l0.372-0.744c-4.892 8.969-10.392 16.671-15.907 22.186-7.62 7.62-14.597 14.485-21.628 19.953l-1.163 0.884-24.837 24.884c-6.847 6.847-13.602 12.715-21.395 18.791-6.391 4.558-11.893 8.365-17.209 11.023l-1.674 0.837-1.488 1.070c-1.080 0.772-2.967 2.051-4.186 2.884-0.993-2.543-2.45-5.909-3.209-8.186-3.193-9.578-6.263-17.44-7.674-25.907l-0.186-0.93-0.233-0.93c-2.858-11.431-5.341-21.964-6.047-29.721l-0.047-0.884-0.186-0.837c-1.3-7.802-2.351-18.637-3.628-29.907l1.116-1.116v-0.372c3.004-2.512 6.013-5.029 9.163-8.047 5.066-4.053 10.796-8.804 15.256-12.372l1.023-0.837 0.93-0.93c1.904-1.904 5.437-5.388 8.698-10.279 1.906-2.858 3.646-4.902 2.744-4l1.163-1.209 1.023-1.349c1.715-2.287 3.515-4.12 6.372-6.977l-3.628 2.977c7.938-5.292 10.269-9.618 11.256-10.605l1.163-1.163 1.023-1.349c1.714-2.286 4.481-4.698 8.419-10.605 1.905-2.858 3.384-5.163 5.86-8.465l0.419-0.512 0.372-0.558c5.843-8.764 9.382-17.415 13.86-26.372 5.047-10.093 8.926-18.656 11.767-23.628l0.512-0.884 0.419-0.93c5.488-11.891 12.184-25.251 19.023-39.907 6.864-14.709 12.456-27.58 18.047-37.163l0.977-1.628 0.651-1.814c4.616-12.001 9.23-22.993 13.767-32.977s9.043-18.965 13.442-26.884l-0.186 0.279c5.143-9.001 8.417-18.088 11.442-27.163 3.192-9.577 5.304-17.961 7.209-25.581 2.631-10.525 6.387-22.748 10.279-36.372 3.152-11.032 8.122-21.937 13.256-31.349l0.093-0.186c7.125-13.359 14.211-25.763 20.605-36.744 5.421-7.195 9.524-12.448 11.721-14.279l1.116-0.884 0.977-1.023c13.438-14.228 26.724-21.788 43.209-25.535l1.628-0.372 1.628-0.605c9.023-3.47 18.525-4.961 30.93-4.186l-1.163-0.093c10.112 1.124 19.836 1.148 29.395-0.047 7.62-0.953 16.197-1.997 26.047-4.186l-3.907 0.512c19.835-1.044 37.301-4.197 52.93-11.953 8.967-3.975 16.817-8.958 24.14-13.535l0.884-0.512 0.791-0.651c9.929-7.447 17.991-17.017 24.093-27.767 3.381-5.429 5.249-10.585 6.14-13.256 0.956-2.869 3.116-9.3 3.116-17.070l-0.233 3.395c1.765-12.357 3.409-26.627 3.721-41.488zM327.814 412.465c0 1.094 1.131 1.999 1.302 3.163l-1.023-1.814-0.605-1.163c0.485 0.97 0.326 2.248 0.326-0.186zM1123.953 642.326c-0.083 0.9-0.242 1.528-0.326 2.419l-0.837-0.93c2.598 4.331 1.487 2.779 1.163-1.488z"/></svg>