<svg xmlns="http://www.w3.org/2000/svg" viewBox="141.6 141.6 740.9 740.9" fill="currentColor"><path d="M512 155.8l-18.1 18.1c-25.966 25.966-75.809 47.263-128.5 61.4s-107.667 22.067-145 27.4l-22 3.1v22.2c0 48-0.007 120.938 8.2 194.8s23.731 148.846 60.1 203.4c35.277 52.915 80.679 80.089 121.9 100.7s77.826 35.726 105.3 63.2l18.1 18.1 18.1-18.1c27.474-27.474 64.079-42.589 105.3-63.2s86.623-47.785 121.9-100.7c36.369-54.554 51.893-129.538 60.1-203.4s8.2-146.8 8.2-194.8v-22.2l-22-3.1c-37.332-5.333-92.309-13.263-145-27.4s-102.534-35.434-128.5-61.4zM512 222.2c37.031 29.381 84.213 49.303 133.4 62.5 48.055 12.893 91.75 18.982 128.1 24.3-0.092 46.956 0.028 105.847-6.9 168.2-7.793 70.138-24.269 139.154-51.9 180.6-28.723 43.084-63.321 63.911-102.1 83.3-32.866 16.433-68.105 35.385-100.6 61.7-32.495-26.315-67.734-45.267-100.6-61.7-38.779-19.389-73.377-40.216-102.1-83.3-27.631-41.446-44.107-110.462-51.9-180.6-6.928-62.353-6.806-121.244-6.9-168.2 36.35-5.318 80.045-11.407 128.1-24.3 49.187-13.197 96.369-33.119 133.4-62.5z"/><path d="M512 237.2l-24.3 74.9-37.4 115h-199.7l161.6 117.3-61.7 190 161.5-117.4 161.5 117.3-61.7-189.9 161.6-117.3h-199.7zM512 402.8l24.5 75.5h79.4l-64.2 46.6 24.5 75.4-64.2-46.6-64.2 46.6 24.5-75.4-64.2-46.6h79.4z"/></svg>