<svg xmlns="http://www.w3.org/2000/svg" viewBox="-12.0 -89.1 1177.5 1177.5" fill="currentColor"><path d="M457.024 198.912l-17.741 19.355 7.53 6.901h10.211v-26.256zM457.024 190.51h26.256v-5.389l-2.122-4.954-24.135 10.343zM446.524 169.505l-23.486 11.742 0.733 1.462 0.906 1.36 21.848-14.564zM434.972 149.55l-24.379 9.751 1.013 2.538 1.518 2.275 21.848-14.564zM421.316 119.093l24.909-8.303-1.111-3.336-1.951-2.926-21.848 14.564zM401.363 83.384l24.907-8.303-0.588-1.77-0.835-1.669-23.484 11.742zM399.26 74.982l-25.831 4.697 1.465 8.070 5.8 5.8 18.566-18.566zM412.916 47.675l13.509 22.515 0.536-0.322 0.52-0.347-14.564-21.847zM427.62 39.273l11.742 23.485 0.901-0.451 0.864-0.519-13.506-22.515zM445.472 38.223l11.744-23.485-0.691-0.345-0.709-0.304-10.345 24.134zM452.823 44.524l-23.484 11.742 1.906 3.811 3.012 3.013 18.566-18.566zM458.077 49.776v0zM463.326 57.127l-21.845 14.564 1.441 2.163 1.838 1.838 18.566-18.566zM483.281 86.535l24.909-8.303-1.111-3.336-1.951-2.925-21.848 14.564zM502.185 112.791l-21.845 14.564 1.441 2.163 1.838 1.838 18.566-18.566zM520.040 142.198l-25.33 6.909 0.192 0.703 0.231 0.691 24.907-8.303zM545.246 177.907l22.798-13.027-2.035-3.559-3.019-2.77-17.744 19.355zM558.902 201.013l23.484-11.742-0.922-1.843-1.197-1.676-21.365 15.261zM572.553 225.168l-23.484 11.742 0.517 1.034 0.607 0.985 22.36-13.761zM601.96 265.079l-20.044 16.959 0.339 0.396 0.352 0.386 19.354-17.741zM635.568 300.788l18.566-18.569-0.441-0.441-0.462-0.42-17.663 19.43zM654.473 315.492l13.916-22.265-1.058-0.662-1.116-0.559-11.742 23.486zM702.784 357.502l20.173-16.809-1.413-1.694-1.673-1.434-17.088 19.936zM740.594 391.108l18.566-18.566-1.993-1.993-2.374-1.525-14.199 22.084zM783.654 428.919l18.569-18.569-0.843-0.84-0.916-0.764-16.809 20.173zM803.609 446.774v0zM823.564 469.879l-21.845 14.564 1.011 1.515 1.21 1.363 19.624-17.442zM847.722 498.236l-20.727 16.119 0.528 0.68 0.572 0.643 19.627-17.442zM873.979 526.593l21.845-14.564-1.441-2.164-1.838-1.841-18.566 18.569zM910.735 575.955l-20.645 16.221 0.347 0.438 0.365 0.425 19.934-17.085zM933.841 607.463l-22.36 13.761 0.987 1.602 1.203 1.444 20.17-16.807zM969.549 637.92l18.566-18.569-1.838-1.838-2.164-1.441-14.564 21.848zM1007.359 666.277l-15.754 21.005 0.583 0.436 0.607 0.404 14.564-21.845zM1031.517 684.132l16.807-20.173-0.751-0.625-0.796-0.57-15.26 21.367zM1050.422 701.986l-18.569 18.566 0.546 0.544 0.578 0.515 17.445-19.624zM1077.726 727.192l-18.566 18.566 0.546 0.544 0.578 0.515 17.442-19.624zM1115.535 765.002l-23.484 11.742 1.906 3.81 3.012 3.014 18.566-18.566zM1116.585 771.303l24.358 9.802 1.898-4.718v-5.083h-26.256zM942.243 970.849v26.256h6.895l6.005-3.387-12.9-22.869zM940.142 971.902v26.256h26.256v-26.256h-26.256zM934.891 972.952l-18.566 18.566 7.691 7.691h10.875v-26.256zM924.388 964.55l23.486-11.744-2.773-5.543-4.96-3.718-15.754 21.005zM900.235 943.542l18.566-18.566-0.62-0.617-0.656-0.575-17.29 19.758zM873.979 919.389l17.442-19.627-0.817-0.725-0.874-0.654-15.751 21.005zM851.923 904.686l-17.445 19.624 2.594 2.305 3.106 1.554 11.744-23.484zM777.353 894.183l-4.317-25.899-0.189 0.032-0.192 0.034 4.697 25.834zM666.025 904.686l3.715 25.991 0.719-0.102 0.717-0.144-5.152-25.744zM643.97 906.786v-26.256h-1.864l-1.848 0.263 3.713 25.994zM622.967 910.987l5.695 25.629 0.764-0.168 0.754-0.215-7.213-25.246zM598.809 915.188l3.715 25.991 0.302-0.042 0.299-0.053-4.317-25.897zM526.341 925.688l-5.695-25.629-0.764 0.168-0.754 0.215 7.213 25.246zM502.185 925.688l6.37-25.471-3.135-0.785h-3.235v26.256zM451.773 931.992l5.698 25.629 0.336-0.074 0.336-0.084-6.37-25.471zM421.316 938.294l-4.697-25.834-0.226 0.042-0.226 0.045 5.149 25.747zM387.707 939.344l2.379-26.149-1.187-0.108h-1.192v26.256zM354.099 934.090l8.305-24.907-0.958-0.32-0.977-0.244-6.37 25.471zM339.396 936.193l7.215 25.246 1.289-0.37 1.247-0.499-9.752-24.376zM316.29 941.445l-6.367-25.474-0.425 0.108-0.42 0.118 7.213 25.248zM295.285 946.696l-4.317-25.899-3.894 0.649-3.531 1.764 11.742 23.486zM249.075 935.14l-23.485 11.744 1.905 3.81 3.013 3.014 18.566-18.569zM246.974 931.992l18.567-18.566-7.69-7.691h-10.878v26.256zM244.873 928.842h26.256v-7.95l-4.408-6.614-21.847 14.564zM240.673 901.535l23.485 11.742 0.835-1.67 0.588-1.77-24.908-8.302zM248.025 889.979l18.567 18.569 1.318-1.321 1.121-1.494-21.006-15.754zM283.732 851.123l-14.564-21.848-1.754 1.171-1.547 1.436 17.865 19.241zM307.891 838.517l7.213 25.248 2.345-0.672 2.185-1.090-11.742-23.486zM350.948 826.967l1.749 26.196 0.756-0.050 0.754-0.095-3.258-26.052zM374.054 824.866v-26.256h-1.864l-1.848 0.263 3.713 25.994zM423.416 820.662v26.256h6.199l5.545-2.77-11.744-23.486zM460.175 809.112l5.905 25.582 3.043-0.701 2.796-1.397-11.744-23.484zM473.828 803.858l9.752 24.379 1.013-0.404 0.977-0.488-11.742-23.486zM488.532 798.61l5.149 25.744 6.73-1.344 5.209-4.466-17.088-19.934zM502.185 774.454l26.128 2.613 0.129-1.305v-1.308h-26.256zM502.185 763.951h26.256v-4.261l-1.347-4.043-24.909 8.305zM493.783 727.192l-25.246 7.213 0.158 0.549 0.181 0.541 24.907-8.302zM483.281 704.087l23.486-11.744-2.458-4.913-4.219-3.516-16.809 20.173zM458.077 678.88l-20.173 16.807 0.764 0.916 0.843 0.843 18.566-18.566zM426.567 645.272l14.564-21.848-0.52-0.347-0.536-0.32-13.509 22.515zM374.054 603.262l-21.845 14.564 1.441 2.161 1.838 1.841 18.566-18.566zM344.65 572.805l-16.809 20.17 1.077 0.898 1.166 0.777 14.567-21.845zM304.737 544.448l-16.626 20.32 0.992 0.814 1.069 0.712 14.564-21.845zM269.028 519.242l14.097-22.153-0.428-0.273-0.438-0.255-13.231 22.68zM234.371 498.236l13.509-22.515-0.337-0.202-0.343-0.194-12.829 22.911zM83.135 405.814l-18.566 18.566 2.531 2.528 3.116 1.762 12.92-22.856zM72.632 396.362l-18.566 18.566 1.319 1.318 1.493 1.121 15.754-21.005zM62.129 387.959l15.754-21.005-1.084-0.814-1.161-0.696-13.509 22.515zM50.576 379.557l-19.624 17.442 2.246 2.528 2.813 1.875 14.564-21.845zM36.923 349.1h-26.256v1.189l0.108 1.187 26.149-2.376zM54.777 309.19l12.573 23.051 1.023-0.559 0.969-0.646-14.564-21.845zM67.381 303.939l-2.613-26.128-1.278 0.129-1.259 0.252 5.149 25.747zM100.989 308.14l11.742-23.486-1.351-0.675-1.419-0.515-8.973 24.676zM111.491 310.24v0zM134.597 321.793v0zM138.798 323.894l18.566-18.569-7.69-7.688h-10.876v26.256zM142.999 325.994l20.503-16.402-7.883-9.854h-12.619v26.256zM173.456 345.949l7.213-25.248-1.022-0.291-1.042-0.207-5.149 25.747zM197.612 356.449l-11.742 23.486 0.69 0.344 0.709 0.305 10.343-24.135zM267.978 393.211l18.566-18.569-2.284-2.284-2.773-1.662-13.509 22.515zM304.737 415.266l14.564-21.848-2.274-1.518-2.539-1.013-9.752 24.379zM345.7 438.372l-13.028 22.796 2.258 1.289 2.465 0.822 8.305-24.907zM361.451 445.724v0zM376.155 452.025l23.486-11.744-4.466-8.927-9.269-3.707-9.752 24.379zM380.356 452.025l18.566 18.566 7.691-7.691v-10.875h-26.256zM380.356 449.925h26.256v-6.199l-2.77-5.545-23.486 11.744zM378.255 446.774l-18.561 18.569 7.688 7.688h10.873v-26.256zM376.155 443.62l23.486-11.742-1.906-3.81-3.014-3.014-18.566 18.566zM273.229 341.748l-19.239 17.865 1.194 1.287 1.355 1.116 16.69-20.267zM187.11 268.23l-18.566 18.566 1.705 1.704 1.987 1.365 14.875-21.635zM170.305 254.576l15.261-21.366-1.676-1.198-1.843-0.921-11.742 23.484zM130.396 230.42l-17.29 19.76 1.979 1.732 2.284 1.305 13.027-22.797zM104.139 205.214l-19.624 17.444 0.513 0.577 0.546 0.546 18.566-18.566zM61.078 148.5h26.256v-3.232l-0.784-3.136-25.473 6.368zM67.381 106.489l21.847 14.564 1.517-2.275 1.015-2.538-24.379-9.752zM78.934 94.937l13.509 22.515 2.772-1.663 2.286-2.286-18.566-18.566zM93.637 86.535l-11.742-23.485-3.811 1.905-3.013 3.013 18.566 18.566zM111.491 82.334l5.149-25.747-2.549-0.51h-2.6v26.256zM128.295 87.585l18.566-18.566-3.013-3.013-3.811-1.905-11.742 23.484zM146.15 98.087l18.566-18.566-4.383-4.383-5.88-1.96-8.303 24.909zM158.752 106.489l16.809-20.171-2.341-1.951-2.726-1.363-11.742 23.484zM190.261 132.746l-18.566 18.566 0.842 0.842 0.915 0.762 16.809-20.171zM214.417 146.399l-9.751 24.379 1.654 0.662 1.729 0.432 6.368-25.473zM251.175 169.505l18.567-18.566-1.029-1.028-1.137-0.908-16.401 20.503zM281.634 198.912l-18.569 18.566 0.444 0.442 0.462 0.42 17.663-19.428zM315.242 225.168l16.119-20.725-0.979-0.761-1.045-0.665-14.094 22.151zM338.345 241.973l-14.564 21.846 1.36 0.906 1.462 0.733 11.742-23.485zM365.652 253.525l18.566-18.566-4.382-4.383-5.879-1.96-8.305 24.909zM374.054 253.525l14.564 21.847 11.692-7.796v-14.051h-26.256zM376.155 252.475l23.489 11.738 18.986-37.994h-42.475v26.256zM375.107 254.576h-26.256l49.743 11.738-23.486-11.738zM344.65 228.319l16.402-20.505-0.284-0.221-16.119 20.725zM318.393 204.163l-22.363 13.761 1.615 2.625 2.179 2.18 18.569-18.566zM294.235 174.756l17.088-19.935-0.336-0.29-0.349-0.278-16.402 20.503zM249.075 132.746l-23.485 11.742 1.905 3.811 3.013 3.013 18.566-18.566zM241.723 121.193l-23.485 11.742 0.731 1.462 0.907 1.36 21.847-14.564zM234.371 109.64l23.485-11.742-0.326-0.652-0.362-0.633-22.797 13.027zM223.868 57.127l26.126 2.613 0.13-1.303v-1.31h-26.256zM234.371 38.223l13.027 22.797 3.053-1.744 2.486-2.486-18.566-18.566zM251.175 27.72l-6.368-25.472-4.412 1.103-3.784 2.523 14.564 21.847zM274.282 28.771l-10.345 24.133 1.531 0.656 1.599 0.457 7.215-25.246zM308.938 57.127l-23.484 11.742 1.058 2.118 1.42 1.894 21.005-15.754zM355.149 98.087l14.564-21.847-1.36-0.907-1.46-0.731-11.744 23.484zM370.903 109.64l18.569-18.566-1.321-1.32-1.494-1.12-15.754 21.005zM384.557 124.344l-21.845 14.564 1.441 2.163 1.838 1.838 18.566-18.566zM390.858 132.746l-23.484 11.742 1.132 2.262 1.541 2.004 20.811-16.009zM459.125 198.912v26.256h26.256v-26.256h-26.256zM483.281 198.912v-8.402h-52.513v8.402h52.513zM481.159 180.167c-2.951-6.883-7.010-16.558-12.789-25.226l-43.693 29.129c2.623 3.934 4.865 8.963 8.216 16.783l48.267-20.686zM470.008 157.763c-3.597-7.194-8.336-15.497-13.191-22.777l-43.693 29.129c3.55 5.323 7.21 11.723 9.914 17.133l46.97-23.485zM459.348 139.799c-1.764-4.411-3.896-8.184-5.102-10.352-1.42-2.559-1.914-3.511-2.25-4.352l-48.756 19.503c1.764 4.411 3.896 8.184 5.102 10.352 1.42 2.559 1.914 3.511 2.25 4.352l48.756-19.503zM451.996 125.095c-3.025-7.561-3.933-8.796-5.771-14.306l-49.819 16.606c2.366 7.093 5.658 14.26 6.835 17.202l48.756-19.503zM443.164 104.528c-5.832-8.747-7.725-10.652-9.914-15.032l-46.97 23.485c4.112 8.224 10.621 16.821 13.191 20.676l43.693-29.129zM433.249 89.496c-4.264-8.524-5.664-10.474-6.979-14.415l-49.816 16.606c2.886 8.662 7.785 17.215 9.825 21.294l46.97-23.485zM424.847 71.642c0.268 0.535 0.916 1.974 1.342 4.097 0.428 2.139 0.378 3.926 0.378 3.445h-52.513c0 0.569-0.047 3.407 0.643 6.858 0.688 3.436 1.862 6.45 3.18 9.085l46.97-23.485zM426.567 79.183c0-0.375 0.047-3.206-0.488-6.419-0.433-2.609-1.906-10.003-8.252-16.348l-37.132 37.132c-2.815-2.816-4.327-5.719-5.128-7.672-0.798-1.955-1.134-3.568-1.284-4.476-0.273-1.637-0.228-2.892-0.228-2.218h52.513zM425.094 70.285c-0.063-0.35-0.005-0.301-0.055 0.042-0.047 0.356-0.171 0.734-0.328 1.041-0.323 0.631-0.276 0.016 1.715-1.178l-27.018-45.029c-8.512 5.108-16.345 12.369-21.394 22.19-5.178 10.064-6.603 21.234-4.584 32.328l51.665-9.394zM427.481 69.522c2.213-1.477 6.519-4.084 11.881-6.764l-23.486-46.969c-7.242 3.621-13.438 7.316-17.524 10.040l29.129 43.693zM441.126 61.788c0.404-0.242-0.78 0.545-2.991 0.746-2.292 0.208-3.529-0.401-3.006-0.177l20.687-48.267c-6.829-2.927-14.368-4.587-22.436-3.853-7.987 0.726-14.423 3.613-19.27 6.522l27.015 45.029zM433.73 61.707c0.599 0.299 0.11 0.137-0.843-0.709-1.061-0.943-2.434-2.505-3.547-4.731l46.97-23.485c-4.474-8.949-11.92-14.457-19.094-18.044l-23.486 46.969zM434.257 63.090c1.053 1.051 1.841 1.839 2.628 2.626s1.575 1.575 2.626 2.625l37.132-37.132c-1.053-1.051-1.841-1.839-2.628-2.627s-1.575-1.575-2.623-2.625l-37.134 37.132zM439.511 68.342c-0.609-0.608-0.901-1.087-0.656-0.721 0.189 0.284 0.399 0.615 0.887 1.385 0.436 0.688 1.032 1.629 1.738 2.687l43.693-29.129c-0.347-0.518-0.667-1.020-1.084-1.678-0.365-0.576-0.943-1.493-1.541-2.39-1.331-1.997-3.198-4.576-5.905-7.285l-37.132 37.132zM444.76 75.694c-1.013-1.014-1.62-1.874-1.867-2.245-0.221-0.329-0.263-0.439 0.011 0.060 0.134 0.247 0.265 0.494 0.499 0.928 0.207 0.388 0.483 0.903 0.79 1.457 0.617 1.116 1.462 2.588 2.539 4.201l43.693-29.129c0.026 0.038-0.047-0.066-0.284-0.493-0.121-0.218-0.255-0.466-0.449-0.828-0.168-0.317-0.431-0.808-0.691-1.283-0.895-1.64-3.182-5.874-7.11-9.799l-37.132 37.132zM446.732 80.094c2.135 3.203 4.576 6.869 8.192 11.692l42.010-31.508c-2.683-3.579-4.443-6.214-6.509-9.313l-43.693 29.129zM454.924 91.786c2.686 3.579 4.445 6.214 6.512 9.313l43.693-29.129c-2.135-3.203-4.576-6.869-8.195-11.692l-42.010 31.508zM458.374 94.838c2.381 7.145 6.74 13.356 8.313 15.714l43.693-29.129c-0.544-0.815-0.961-1.443-1.35-2.042-0.378-0.585-0.643-1.016-0.838-1.348-0.436-0.751-0.265-0.593-0.003 0.2l-49.816 16.606zM466.687 110.551c1.602 2.403 5.241 8.063 9.581 12.404l37.134-37.132c0.349 0.351 0.223 0.289-0.486-0.686-0.677-0.932-1.426-2.047-2.536-3.715l-43.693 29.129zM476.268 122.955c1.084 1.084 1.98 1.983 2.815 2.903 0.399 0.439 0.712 0.803 0.948 1.094 0.242 0.3 0.328 0.432 0.31 0.403l43.693-29.129c-3.799-5.699-8.909-10.68-10.631-12.404l-37.134 37.132zM483.619 131.357c5.994 5.992 9.413 11.605 11.091 17.75l50.662-13.817c-4.626-16.961-13.808-30.253-24.618-41.065l-37.134 37.132zM495.133 150.501c6.060 18.184 17.715 33.326 32.372 46.761l35.486-38.71c-10.55-9.671-15.699-17.635-18.041-24.657l-49.816 16.606zM522.45 190.934c3.195 5.593 8.806 16.55 15.084 25.34l42.732-30.523c-4.225-5.914-7.016-11.761-12.222-20.871l-45.594 26.053zM535.415 212.755c2.626 5.248 5.511 10.036 7.796 13.844 2.442 4.068 4.282 7.157 5.858 10.311l46.97-23.484c-2.626-5.248-5.511-10.036-7.798-13.844-2.439-4.069-4.28-7.158-5.855-10.312l-46.97 23.485zM550.193 238.929c9.266 15.058 19.564 28.739 31.723 43.109l40.088-33.92c-10.946-12.936-19.551-24.462-27.089-36.711l-44.723 27.522zM582.606 282.821c10.379 11.324 22.57 25.821 35.302 37.394l35.323-38.857c-10.374-9.431-19.191-20.141-31.915-34.022l-38.71 35.485zM617.002 319.354c7.010 7.008 15.672 14.593 25.729 19.621l23.484-46.97c-2.544-1.273-6.485-4.191-12.081-9.786l-37.132 37.134zM640.557 337.757c6.989 4.366 13.771 9.468 20.556 16.255l37.132-37.134c-10.017-10.017-20.042-17.518-29.856-23.652l-27.832 44.531zM661.113 354.013c8.221 8.221 16.318 16.339 24.584 23.423l34.175-39.87c-6.438-5.519-13.044-12.104-21.627-20.687l-37.132 37.134zM682.614 374.309c12.057 14.467 26.632 27.861 43.783 38.886l28.396-44.171c-12.256-7.88-22.888-17.592-31.836-28.331l-40.343 33.616zM722.028 409.676c7.932 7.929 16.922 17.027 26.411 23.804l30.523-42.732c-5.215-3.723-10.928-9.332-19.803-18.206l-37.132 37.134zM748.439 433.48c6.567 4.689 9.395 8.1 18.408 15.609l33.616-40.343c-3.592-2.993-13.365-12.186-21.501-17.999l-30.523 42.732zM765.088 447.485c4.054 4.051 8.313 7.635 11.584 10.403 3.555 3.009 6.123 5.201 8.371 7.452l37.132-37.134c-4.051-4.051-8.31-7.635-11.582-10.403-3.555-3.009-6.123-5.201-8.371-7.452l-37.134 37.134zM785.043 465.34c6.425 6.422 12.002 12.094 16.675 19.104l43.693-29.131c-7.932-11.894-17.056-20.926-23.237-27.107l-37.132 37.134zM803.94 487.322c8.523 9.586 16.329 18.385 23.056 27.034l41.451-32.24c-7.977-10.256-16.975-20.362-25.259-29.68l-39.248 34.887zM828.096 515.679c8.339 9.381 17.235 19.398 27.315 29.481l37.134-37.134c-8.825-8.822-16.733-17.71-25.198-27.233l-39.251 34.887zM852.131 541.158c13.286 19.926 26.585 36.541 37.959 51.019l41.293-32.445c-11.731-14.929-23.639-29.822-35.559-47.703l-43.693 29.129zM890.801 593.040c5.737 6.695 13.223 16.066 20.68 28.184l44.723-27.522c-9.347-15.192-18.666-26.826-25.532-34.834l-39.87 34.173zM913.671 624.27c6.267 7.522 12.645 13.898 20.165 20.168l33.619-40.343c-5.081-4.233-9.205-8.36-13.441-13.441l-40.343 33.616zM933.835 644.437c7.538 6.281 14.974 11.211 21.15 15.328l29.129-43.693c-6.428-4.285-11.592-7.756-16.66-11.978l-33.619 40.343zM950.984 656.486c4.343 4.34 10.004 7.982 12.404 9.581l29.129-43.693c-1.667-1.113-2.783-1.859-3.715-2.539-0.974-0.709-1.037-0.835-0.685-0.483l-37.132 37.134zM963.387 666.067c1.575 1.050 3.151 2.101 4.726 3.151s3.151 2.101 4.726 3.151l29.129-43.693c-1.575-1.050-3.148-2.101-4.724-3.151s-3.151-2.101-4.729-3.151l-29.129 43.693zM972.839 672.369c3.253 2.169 4.364 2.983 5.451 4.072l37.134-37.134c-5.215-5.212-10.408-8.599-13.456-10.631l-29.129 43.693zM978.29 676.441c4.884 4.884 10.45 8.691 13.315 10.841l31.508-42.010c-5.535-4.154-6.273-4.548-7.688-5.965l-37.134 37.134zM992.794 688.123c3.999 2.665 7.656 5.398 11.456 8.313 3.589 2.749 7.851 6.094 12.004 9.061l30.523-42.732c-3.198-2.284-6.288-4.716-10.576-8.006-4.078-3.125-8.822-6.693-14.278-10.329l-29.129 43.693zM1014.708 704.302c5.215 4.345 10.652 9.754 17.145 16.25l37.134-37.134c-6.11-6.107-13.275-13.301-20.664-19.459l-33.616 40.343zM1032.977 721.61c9.576 8.51 18.427 16.389 26.183 24.148l37.132-37.134c-9.045-9.045-19.096-17.97-28.428-26.264l-34.887 39.251zM1060.284 746.816c9.576 8.51 18.427 16.389 26.183 24.148l37.132-37.134c-9.045-9.045-19.099-17.97-28.428-26.264l-34.887 39.251zM1086.467 770.964c-0.444-0.446-0.683-0.824 0.189 0.339 0.704 0.937 2.518 3.416 5.062 5.963l37.134-37.134c0.444 0.446 0.683 0.824-0.189-0.339-0.704-0.937-2.518-3.416-5.065-5.963l-37.132 37.134zM1091.718 777.266c0.27 0.268 0.496 0.494 0.714 0.714 0.213 0.215 0.394 0.399 0.551 0.562 0.328 0.339 0.494 0.52 0.559 0.596 0.029 0.032 0.013 0.016-0.034-0.042-0.045-0.058-0.139-0.176-0.263-0.349-0.123-0.171-0.297-0.423-0.496-0.746-0.197-0.323-0.441-0.743-0.698-1.258l46.97-23.486c-3.371-6.74-9.119-12.073-10.169-13.126l-37.134 37.134zM1096.969 783.567c-1.334-1.334-2.796-3.146-4.030-5.477-1.234-2.329-1.885-4.511-2.229-6.231-0.315-1.57-0.365-2.733-0.375-3.004-0.008-0.221-0.005-0.328-0.005 0.344h52.513c0-0.102 0.116-3.868-0.641-7.646-1.116-5.577-3.794-10.815-8.1-15.121l-37.132 37.134zM1090.329 769.2v2.103h52.513v-2.103h-52.513zM1092.227 761.499c-32.484 80.725-86.279 143.271-162.884 186.484l25.8 45.736c87.237-49.21 148.971-121.097 185.801-212.614l-48.716-19.606zM942.243 944.593c-0.076 0-1.239-0.011-2.518 0.076-1.213 0.081-3.975 0.318-7.231 1.405-3.411 1.137-8.651 3.644-12.897 9.103-4.422 5.687-5.711 11.923-5.711 16.725h52.513c0 4.275-1.155 10.117-5.346 15.507-4.017 5.165-8.932 7.475-11.949 8.481-2.862 0.956-5.165 1.126-5.884 1.176-0.785 0.053-1.426 0.039-0.977 0.039v-52.513zM940.142 945.646c-4.561 0-8.055 1.134-9.542 1.659-0.79 0.278-1.436 0.546-1.675 0.643-0.071 0.029-0.134 0.055-0.179 0.074-0.053 0.021-0.068 0.029-0.095 0.039-0.045 0.018-0.018 0.008 0.034-0.013 0.226-0.092 1.184-0.473 2.523-0.793 1.405-0.336 3.004-0.559 4.731-0.559v52.513c2.778 0 5.299-0.357 7.522-0.89 2.161-0.517 3.841-1.161 4.724-1.515 0.218-0.087 0.402-0.163 0.515-0.207 0.173-0.074 0.129-0.055 0.184-0.076 0.063-0.026-0.297 0.123-0.809 0.305-0.927 0.328-3.899 1.334-7.935 1.334v-52.513zM935.941 946.696h-1.050v52.513h1.050v-52.513zM953.457 954.384c-1.951-1.951-5.703-5.934-12.073-9.119l-23.486 46.97c-0.276-0.139-0.706-0.373-1.216-0.706-0.517-0.336-0.935-0.659-1.226-0.903-0.255-0.213-0.349-0.312-0.176-0.144 0.084 0.081 0.202 0.197 0.383 0.375 0.186 0.184 0.391 0.389 0.662 0.662l37.132-37.134zM941.384 945.265c-0.604-0.302-0.68-0.341-0.677-0.341 0.042 0.024 0.512 0.278 1.174 0.754 1.41 1.006 4.054 3.253 5.994 7.129l-46.97 23.486c5.632 11.261 16.589 15.741 16.993 15.943l23.486-46.97zM940.142 943.545c-7.349-5.514-14.816-12.041-21.341-18.569l-37.134 37.134c8.179 8.176 17.516 16.352 26.968 23.444l31.508-42.010zM917.525 923.785c-3.799-3.324-7.669-6.947-12.049-11.062-4.277-4.020-9.011-8.476-14.055-12.96l-34.887 39.251c4.408 3.917 8.602 7.864 12.989 11.983 4.285 4.025 8.817 8.279 13.42 12.306l34.582-39.519zM889.73 898.384c-3.967-2.977-8.843-6.645-12.742-9.245l-29.129 43.693c2.405 1.602 5.931 4.235 10.366 7.562l31.505-42.010zM876.988 889.139c-3.146-2.098-7.507-5.031-13.323-7.94l-23.486 46.97c2.586 1.292 4.527 2.56 7.68 4.663l29.129-43.693zM869.365 885.059c-15.029-13.357-33.13-19.235-54.204-19.235v52.513c10.434 0 15.441 2.526 19.317 5.973l34.887-39.251zM815.162 865.824c-0.013 0-0.029 0-0.042 0-0.016 0-0.029 0-0.045 0-0.013 0-0.026 0-0.042 0-0.013 0-0.029 0-0.042 0-0.016 0-0.029 0-0.045 0-0.013 0-0.029 0-0.042 0-0.016 0-0.029 0-0.045 0-0.013 0-0.026 0-0.042 0-0.013 0-0.029 0-0.042 0-0.016 0-0.029 0-0.045 0-0.013 0-0.029 0-0.042 0-0.016 0-0.029 0-0.045 0-0.013 0-0.029 0-0.042 0s-0.029 0-0.042 0c-0.016 0-0.029 0-0.045 0-0.013 0-0.029 0-0.042 0-0.016 0-0.029 0-0.045 0-0.013 0-0.026 0-0.042 0-0.013 0-0.029 0-0.042 0-0.016 0-0.029 0-0.045 0-0.013 0-0.029 0-0.042 0-0.016 0-0.029 0-0.045 0-0.013 0-0.026 0-0.042 0-0.013 0-0.029 0-0.042 0-0.016 0-0.029 0-0.045 0-0.013 0-0.029 0-0.042 0-0.016 0-0.029 0-0.045 0-0.013 0-0.026 0-0.042 0-0.013 0-0.029 0-0.042 0-0.016 0-0.029 0-0.045 0-0.013 0-0.029 0-0.042 0-0.016 0-0.029 0-0.045 0-0.013 0-0.026 0-0.042 0-0.013 0-0.029 0-0.042 0-0.016 0-0.029 0-0.045 0-0.013 0-0.029 0-0.042 0s-0.029 0-0.042 0c-0.016 0-0.029 0-0.045 0-0.013 0-0.029 0-0.042 0-0.016 0-0.029 0-0.045 0-0.013 0-0.026 0-0.042 0-0.013 0-0.029 0-0.042 0-0.016 0-0.029 0-0.045 0-0.013 0-0.029 0-0.042 0-0.016 0-0.029 0-0.042 0-0.016 0-0.029 0-0.045 0-0.013 0-0.029 0-0.042 0-0.016 0-0.029 0-0.045 0-0.013 0-0.026 0-0.042 0-0.013 0-0.029 0-0.042 0-0.016 0-0.029 0-0.045 0-0.013 0-0.029 0-0.042 0s-0.029 0-0.042 0c-0.016 0-0.029 0-0.045 0-0.013 0-0.029 0-0.042 0s-0.029 0-0.042 0c-0.016 0-0.029 0-0.045 0-0.013 0-0.029 0-0.042 0-0.016 0-0.029 0-0.042 0-0.016 0-0.029 0-0.045 0-0.013 0-0.029 0-0.042 0-0.016 0-0.029 0-0.042 0-0.016 0-0.029 0-0.045 0-0.013 0-0.029 0-0.042 0-0.016 0-0.029 0-0.042 0-0.016 0-0.029 0-0.045 0-0.013 0-0.029 0-0.042 0-0.016 0-0.029 0-0.042 0-0.016 0-0.029 0-0.045 0-0.013 0-0.029 0-0.042 0-0.016 0-0.029 0-0.042 0-0.016 0-0.029 0-0.045 0-0.013 0-0.029 0-0.042 0s-0.029 0-0.042 0c-0.016 0-0.029 0-0.045 0-0.013 0-0.029 0-0.042 0s-0.029 0-0.042 0c-0.016 0-0.029 0-0.045 0-0.013 0-0.026 0-0.042 0-0.013 0-0.029 0-0.042 0-0.016 0-0.029 0-0.042 0-0.016 0-0.029 0-0.045 0-0.013 0-0.029 0-0.042 0s-0.029 0-0.042 0c-0.016 0-0.029 0-0.045 0-0.013 0-0.026 0-0.042 0-0.013 0-0.029 0-0.042 0-0.016 0-0.029 0-0.042 0-0.016 0-0.029 0-0.045 0-0.013 0-0.026 0-0.042 0-0.013 0-0.029 0-0.042 0-0.016 0-0.029 0-0.042 0-0.016 0-0.029 0-0.045 0-0.013 0-0.026 0-0.042 0-0.013 0-0.029 0-0.042 0-0.016 0-0.029 0-0.042 0-0.016 0-0.029 0-0.045 0-0.013 0-0.026 0-0.042 0-0.013 0-0.029 0-0.042 0-0.016 0-0.029 0-0.042 0-0.016 0-0.029 0-0.045 0-0.013 0-0.026 0-0.042 0-0.013 0-0.029 0-0.042 0s-0.029 0-0.042 0c-0.016 0-0.029 0-0.042 0-0.016 0-0.029 0-0.045 0-0.013 0-0.026 0-0.042 0-0.013 0-0.029 0-0.042 0s-0.029 0-0.042 0c-0.016 0-0.029 0-0.042 0-0.016 0-0.029 0-0.045 0-0.013 0-0.026 0-0.042 0-0.013 0-0.029 0-0.042 0s-0.029 0-0.042 0c-0.016 0-0.029 0-0.042 0-0.016 0-0.029 0-0.042 0-0.016 0-0.029 0-0.045 0-0.013 0-0.026 0-0.042 0-0.013 0-0.029 0-0.042 0s-0.029 0-0.042 0c-0.016 0-0.029 0-0.042 0-0.016 0-0.029 0-0.042 0-0.016 0-0.029 0-0.045 0-0.013 0-0.026 0-0.042 0-0.013 0-0.026 0-0.042 0-0.013 0-0.029 0-0.042 0s-0.029 0-0.042 0c-0.013 0-0.029 0-0.042 0-0.016 0-0.029 0-0.042 0-0.016 0-0.029 0-0.042 0-0.016 0-0.029 0-0.042 0-0.016 0-0.029 0-0.045 0-0.013 0-0.026 0-0.042 0-0.013 0-0.026 0-0.042 0-0.013 0-0.026 0-0.042 0-0.013 0-0.029 0-0.042 0s-0.029 0-0.042 0c-0.013 0-0.029 0-0.042 0s-0.029 0-0.042 0c-0.013 0-0.029 0-0.042 0-0.016 0-0.029 0-0.042 0-0.016 0-0.029 0-0.042 0-0.016 0-0.029 0-0.042 0-0.016 0-0.029 0-0.042 0-0.016 0-0.029 0-0.042 0-0.016 0-0.029 0-0.042 0-0.016 0-0.029 0-0.042 0-0.016 0-0.029 0-0.042 0-0.016 0-0.029 0-0.042 0-0.016 0-0.029 0-0.042 0-0.016 0-0.029 0-0.042 0-0.016 0-0.029 0-0.042 0-0.016 0-0.029 0-0.042 0-0.016 0-0.029 0-0.042 0-0.016 0-0.029 0-0.042 0-0.016 0-0.029 0-0.042 0-0.016 0-0.029 0-0.042 0-0.016 0-0.029 0-0.042 0-0.016 0-0.029 0-0.042 0-0.016 0-0.029 0-0.042 0-0.016 0-0.029 0-0.042 0-0.016 0-0.029 0-0.042 0s-0.029 0-0.042 0c-0.013 0-0.029 0-0.042 0s-0.029 0-0.042 0c-0.013 0-0.029 0-0.042 0s-0.026 0-0.042 0c-0.013 0-0.026 0-0.042 0-0.013 0-0.026 0-0.042 0-0.013 0-0.026 0-0.039 0-0.016 0-0.029 0-0.042 0-0.016 0-0.029 0-0.042 0s-0.029 0-0.042 0c-0.013 0-0.029 0-0.042 0s-0.029 0-0.042 0c-0.013 0-0.026 0-0.042 0-0.013 0-0.026 0-0.039 0-0.016 0-0.029 0-0.042 0-0.016 0-0.029 0-0.042 0s-0.029 0-0.042 0c-0.013 0-0.029 0-0.042 0s-0.026 0-0.042 0c-0.013 0-0.026 0-0.039 0-0.016 0-0.029 0-0.042 0-0.016 0-0.029 0-0.042 0s-0.029 0-0.042 0c-0.013 0-0.026 0-0.042 0-0.013 0-0.026 0-0.039 0-0.016 0-0.029 0-0.042 0s-0.029 0-0.042 0c-0.013 0-0.026 0-0.042 0-0.013 0-0.026 0-0.039 0-0.016 0-0.029 0-0.042 0s-0.029 0-0.042 0c-0.013 0-0.026 0-0.042 0-0.013 0-0.026 0-0.039 0-0.016 0-0.029 0-0.042 0s-0.029 0-0.042 0c-0.013 0-0.026 0-0.039 0-0.016 0-0.029 0-0.042 0s-0.029 0-0.042 0c-0.013 0-0.026 0-0.042 0-0.013 0-0.026 0-0.039 0s-0.029 0-0.042 0c-0.013 0-0.026 0-0.042 0-0.013 0-0.026 0-0.039 0s-0.029 0-0.042 0c-0.013 0-0.026 0-0.039 0-0.016 0-0.029 0-0.042 0s-0.029 0-0.042 0c-0.013 0-0.026 0-0.039 0-0.016 0-0.029 0-0.042 0s-0.026 0-0.042 0c-0.013 0-0.026 0-0.039 0s-0.029 0-0.042 0c-0.013 0-0.026 0-0.039 0s-0.029 0-0.042 0c-0.013 0-0.026 0-0.039 0-0.016 0-0.029 0-0.042 0s-0.026 0-0.042 0c-0.013 0-0.026 0-0.039 0s-0.026 0-0.042 0c-0.013 0-0.026 0-0.039 0s-0.026 0-0.042 0c-0.013 0-0.026 0-0.039 0s-0.026 0-0.042 0c-0.013 0-0.026 0-0.039 0s-0.026 0-0.042 0c-0.013 0-0.026 0-0.039 0s-0.026 0-0.042 0c-0.013 0-0.026 0-0.039 0s-0.026 0-0.039 0c-0.016 0-0.029 0-0.042 0s-0.026 0-0.039 0c-0.013 0-0.029 0-0.042 0s-0.026 0-0.039 0c-0.013 0-0.026 0-0.042 0-0.013 0-0.026 0-0.039 0s-0.026 0-0.039 0c-0.013 0-0.029 0-0.042 0s-0.026 0-0.039 0c-0.013 0-0.026 0-0.039 0-0.016 0-0.029 0-0.042 0s-0.026 0-0.039 0c-0.013 0-0.026 0-0.039 0-0.016 0-0.029 0-0.042 0s-0.026 0-0.039 0c-0.013 0-0.026 0-0.039 0-0.016 0-0.029 0-0.042 0s-0.026 0-0.039 0c-0.013 0-0.026 0-0.039 0s-0.026 0-0.042 0c-0.013 0-0.026 0-0.039 0s-0.026 0-0.039 0c-0.013 0-0.026 0-0.039 0s-0.029 0-0.042 0c-0.013 0-0.026 0-0.039 0s-0.026 0-0.039 0c-0.013 0-0.026 0-0.039 0s-0.026 0-0.039 0c-0.016 0-0.029 0-0.042 0s-0.026 0-0.039 0c-0.013 0-0.026 0-0.039 0s-0.026 0-0.039 0c-0.013 0-0.026 0-0.039 0s-0.026 0-0.039 0c-0.016 0-0.029 0-0.042 0s-0.026 0-0.039 0c-0.013 0-0.026 0-0.039 0s-0.026 0-0.039 0c-0.013 0-0.026 0-0.039 0s-0.026 0-0.039 0c-0.013 0-0.026 0-0.039 0s-0.026 0-0.039 0c-0.013 0-0.026 0-0.039 0s-0.026 0-0.039 0c-0.013 0-0.026 0-0.039 0s-0.026 0-0.039 0c-0.013 0-0.026 0-0.039 0s-0.026 0-0.039 0c-0.013 0-0.026 0-0.039 0s-0.026 0-0.039 0c-0.013 0-0.026 0-0.039 0s-0.026 0-0.039 0c-0.013 0-0.026 0-0.039 0s-0.026 0-0.039 0c-0.013 0-0.026 0-0.039 0s-0.026 0-0.039 0c-0.013 0-0.026 0-0.039 0s-0.026 0-0.039 0c-0.013 0-0.026 0-0.039 0s-0.026 0-0.039 0c-0.013 0-0.026 0-0.039 0s-0.026 0-0.039 0c-0.011 0-0.024 0-0.037 0s-0.026 0-0.039 0c-0.013 0-0.026 0-0.039 0s-0.026 0-0.039 0c-0.013 0-0.026 0-0.039 0s-0.026 0-0.037 0c-0.013 0-0.026 0-0.039 0s-0.026 0-0.039 0c-0.013 0-0.026 0-0.039 0s-0.026 0-0.039 0c-0.013 0-0.024 0-0.037 0s-0.026 0-0.039 0c-0.013 0-0.026 0-0.039 0s-0.026 0-0.039 0c-0.011 0-0.024 0-0.037 0s-0.026 0-0.039 0c-0.013 0-0.026 0-0.039 0s-0.024 0-0.037 0c-0.013 0-0.026 0-0.039 0s-0.026 0-0.039 0c-0.011 0-0.024 0-0.037 0s-0.026 0-0.039 0c-0.013 0-0.026 0-0.037 0-0.013 0-0.026 0-0.039 0s-0.026 0-0.039 0c-0.013 0-0.024 0-0.037 0s-0.026 0-0.039 0c-0.013 0-0.026 0-0.037 0-0.013 0-0.026 0-0.039 0s-0.026 0-0.037 0c-0.013 0-0.026 0-0.039 0s-0.026 0-0.037 0c-0.013 0-0.026 0-0.039 0s-0.026 0-0.037 0c-0.013 0-0.026 0-0.039 0s-0.026 0-0.037 0c-0.013 0-0.026 0-0.039 0s-0.024 0-0.037 0c-0.013 0-0.026 0-0.039 0s-0.024 0-0.037 0c-0.013 0-0.026 0-0.039 0-0.011 0-0.024 0-0.037 0s-0.026 0-0.037 0c-0.013 0-0.026 0-0.039 0-0.011 0-0.024 0-0.037 0s-0.026 0-0.037 0c-0.013 0-0.026 0-0.039 0s-0.024 0-0.037 0c-0.013 0-0.026 0-0.037 0-0.013 0-0.026 0-0.039 0-0.011 0-0.024 0-0.037 0s-0.024 0-0.037 0c-0.013 0-0.026 0-0.037 0-0.013 0-0.026 0-0.039 0-0.011 0-0.024 0-0.037 0s-0.024 0-0.037 0c-0.013 0-0.026 0-0.037 0-0.013 0-0.026 0-0.039 0-0.011 0-0.024 0-0.037 0-0.011 0-0.024 0-0.037 0s-0.024 0-0.037 0c-0.013 0-0.026 0-0.037 0-0.013 0-0.026 0-0.037 0-0.013 0-0.026 0-0.037 0-0.013 0-0.026 0-0.039 0-0.011 0-0.024 0-0.037 0-0.011 0-0.024 0-0.037 0-0.011 0-0.024 0-0.037 0s-0.024 0-0.037 0c-0.013 0-0.024 0-0.037 0s-0.024 0-0.037 0c-0.013 0-0.024 0-0.037 0s-0.024 0-0.037 0c-0.013 0-0.024 0-0.037 0s-0.024 0-0.037 0c-0.013 0-0.024 0-0.037 0s-0.024 0-0.037 0c-0.013 0-0.024 0-0.037 0-0.011 0-0.024 0-0.037 0-0.011 0-0.024 0-0.037 0-0.011 0-0.024 0-0.037 0-0.011 0-0.024 0-0.034 0-0.013 0-0.026 0-0.037 0-0.013 0-0.026 0-0.037 0-0.013 0-0.024 0-0.037 0s-0.024 0-0.037 0c-0.011 0-0.024 0-0.037 0-0.011 0-0.024 0-0.034 0-0.013 0-0.026 0-0.037 0-0.013 0-0.024 0-0.037 0s-0.024 0-0.037 0c-0.011 0-0.024 0-0.037 0-0.011 0-0.024 0-0.034 0-0.013 0-0.024 0-0.037 0s-0.024 0-0.037 0c-0.011 0-0.024 0-0.034 0-0.013 0-0.026 0-0.037 0-0.013 0-0.024 0-0.037 0-0.011 0-0.024 0-0.034 0-0.013 0-0.024 0-0.037 0s-0.024 0-0.037 0c-0.011 0-0.024 0-0.034 0-0.013 0-0.024 0-0.037 0-0.011 0-0.024 0-0.034 0-0.013 0-0.024 0-0.037 0s-0.024 0-0.037 0c-0.011 0-0.024 0-0.034 0-0.013 0-0.024 0-0.037 0-0.011 0-0.024 0-0.034 0-0.013 0-0.024 0-0.037 0-0.011 0-0.024 0-0.034 0-0.013 0-0.024 0-0.037 0-0.011 0-0.024 0-0.034 0s-0.024 0-0.034 0c-0.013 0-0.024 0-0.037 0-0.011 0-0.024 0-0.034 0-0.013 0-0.024 0-0.037 0-0.011 0-0.024 0-0.034 0s-0.024 0-0.034 0c-0.013 0-0.024 0-0.037 0-0.011 0-0.024 0-0.034 0-0.013 0-0.024 0-0.034 0-0.013 0-0.024 0-0.037 0-0.011 0-0.024 0-0.034 0s-0.024 0-0.034 0c-0.013 0-0.024 0-0.037 0-0.011 0-0.021 0-0.034 0-0.011 0-0.024 0-0.034 0s-0.024 0-0.034 0c-0.013 0-0.024 0-0.034 0-0.013 0-0.024 0-0.037 0-0.011 0-0.021 0-0.034 0-0.011 0-0.024 0-0.034 0s-0.024 0-0.034 0c-0.011 0-0.024 0-0.034 0-0.013 0-0.024 0-0.034 0-0.013 0-0.024 0-0.034 0-0.013 0-0.024 0-0.034 0-0.013 0-0.024 0-0.037 0-0.011 0-0.021 0-0.034 0-0.011 0-0.021 0-0.034 0-0.011 0-0.021 0-0.034 0-0.011 0-0.021 0-0.034 0-0.011 0-0.021 0-0.034 0-0.011 0-0.021 0-0.034 0-0.011 0-0.021 0-0.034 0-0.011 0-0.021 0-0.032 0-0.013 0-0.024 0-0.034 0-0.013 0-0.024 0-0.034 0-0.013 0-0.024 0-0.034 0s-0.024 0-0.034 0c-0.011 0-0.024 0-0.034 0s-0.021 0-0.034 0c-0.011 0-0.021 0-0.034 0-0.011 0-0.021 0-0.032 0-0.013 0-0.024 0-0.034 0s-0.024 0-0.034 0c-0.011 0-0.021 0-0.034 0-0.011 0-0.021 0-0.032 0-0.013 0-0.024 0-0.034 0s-0.024 0-0.034 0c-0.011 0-0.021 0-0.034 0-0.011 0-0.021 0-0.032 0s-0.024 0-0.034 0c-0.011 0-0.021 0-0.034 0-0.011 0-0.021 0-0.032 0s-0.024 0-0.034 0c-0.011 0-0.021 0-0.032 0-0.013 0-0.024 0-0.034 0s-0.021 0-0.034 0c-0.011 0-0.021 0-0.032 0s-0.021 0-0.034 0c-0.011 0-0.021 0-0.032 0s-0.021 0-0.034 0c-0.011 0-0.021 0-0.032 0s-0.021 0-0.034 0c-0.011 0-0.021 0-0.032 0s-0.021 0-0.032 0c-0.013 0-0.024 0-0.034 0s-0.021 0-0.032 0c-0.011 0-0.024 0-0.034 0s-0.021 0-0.032 0c-0.011 0-0.021 0-0.032 0s-0.024 0-0.034 0c-0.011 0-0.021 0-0.032 0s-0.021 0-0.032 0c-0.011 0-0.021 0-0.034 0-0.011 0-0.021 0-0.032 0s-0.021 0-0.032 0c-0.011 0-0.021 0-0.032 0s-0.021 0-0.034 0c-0.011 0-0.021 0-0.032 0s-0.021 0-0.032 0c-0.011 0-0.021 0-0.032 0s-0.021 0-0.032 0c-0.011 0-0.021 0-0.032 0s-0.021 0-0.032 0c-0.011 0-0.021 0-0.032 0-0.013 0-0.024 0-0.034 0s-0.021 0-0.032 0c-0.011 0-0.021 0-0.032 0s-0.021 0-0.032 0c-0.011 0-0.021 0-0.032 0s-0.021 0-0.032 0c-0.011 0-0.021 0-0.032 0s-0.021 0-0.032 0c-0.011 0-0.018 0-0.029 0s-0.021 0-0.032 0c-0.011 0-0.021 0-0.032 0s-0.021 0-0.032 0c-0.011 0-0.021 0-0.032 0s-0.021 0-0.032 0c-0.011 0-0.021 0-0.032 0s-0.021 0-0.029 0c-0.011 0-0.021 0-0.032 0s-0.021 0-0.032 0c-0.011 0-0.021 0-0.032 0s-0.021 0-0.029 0v52.513c0.008 0 0.018 0 0.029 0s0.021 0 0.032 0c0.011 0 0.021 0 0.032 0s0.021 0 0.032 0c0.008 0 0.018 0 0.029 0s0.021 0 0.032 0c0.011 0 0.021 0 0.032 0s0.021 0 0.032 0c0.011 0 0.021 0 0.032 0s0.021 0 0.032 0c0.011 0 0.021 0 0.032 0s0.018 0 0.029 0c0.011 0 0.021 0 0.032 0s0.021 0 0.032 0c0.011 0 0.021 0 0.032 0s0.021 0 0.032 0c0.011 0 0.021 0 0.032 0s0.021 0 0.032 0c0.011 0 0.021 0 0.032 0s0.021 0 0.034 0c0.011 0 0.021 0 0.032 0s0.021 0 0.032 0c0.011 0 0.021 0 0.032 0s0.021 0 0.032 0c0.011 0 0.021 0 0.032 0s0.021 0 0.032 0c0.011 0 0.021 0 0.032 0 0.013 0 0.024 0 0.034 0s0.021 0 0.032 0c0.011 0 0.021 0 0.032 0s0.021 0 0.032 0c0.013 0 0.024 0 0.034 0s0.021 0 0.032 0c0.011 0 0.021 0 0.032 0s0.024 0 0.034 0c0.011 0 0.021 0 0.032 0s0.021 0 0.032 0c0.011 0 0.024 0 0.034 0s0.021 0 0.032 0c0.011 0 0.021 0 0.034 0 0.011 0 0.021 0 0.032 0s0.021 0 0.032 0c0.013 0 0.024 0 0.034 0s0.021 0 0.032 0c0.013 0 0.024 0 0.034 0s0.021 0 0.032 0c0.013 0 0.024 0 0.034 0s0.021 0 0.032 0c0.013 0 0.024 0 0.034 0s0.021 0 0.034 0c0.011 0 0.021 0 0.032 0s0.024 0 0.034 0c0.011 0 0.021 0 0.032 0 0.013 0 0.024 0 0.034 0s0.024 0 0.034 0c0.011 0 0.021 0 0.032 0 0.013 0 0.024 0 0.034 0s0.024 0 0.034 0c0.011 0 0.021 0 0.034 0 0.011 0 0.021 0 0.032 0 0.013 0 0.024 0 0.034 0s0.024 0 0.034 0c0.011 0 0.021 0 0.034 0 0.011 0 0.021 0 0.032 0 0.013 0 0.024 0 0.034 0 0.013 0 0.024 0 0.034 0s0.024 0 0.034 0c0.011 0 0.024 0 0.034 0s0.021 0 0.034 0c0.011 0 0.021 0 0.034 0 0.011 0 0.021 0 0.034 0 0.011 0 0.021 0 0.032 0 0.013 0 0.024 0 0.034 0 0.013 0 0.024 0 0.034 0 0.013 0 0.024 0 0.034 0 0.013 0 0.024 0 0.034 0 0.013 0 0.024 0 0.034 0 0.013 0 0.024 0 0.034 0 0.013 0 0.024 0 0.034 0 0.013 0 0.024 0 0.037 0 0.011 0 0.021 0 0.034 0 0.011 0 0.021 0 0.034 0 0.011 0 0.021 0 0.034 0 0.011 0 0.024 0 0.034 0s0.024 0 0.034 0c0.011 0 0.024 0 0.034 0 0.013 0 0.024 0 0.034 0 0.013 0 0.024 0 0.037 0 0.011 0 0.021 0 0.034 0 0.011 0 0.024 0 0.034 0s0.024 0 0.034 0c0.013 0 0.024 0 0.034 0 0.013 0 0.024 0 0.037 0 0.011 0 0.024 0 0.034 0s0.024 0 0.034 0c0.013 0 0.024 0 0.037 0 0.011 0 0.021 0 0.034 0 0.011 0 0.024 0 0.034 0 0.013 0 0.024 0 0.037 0 0.011 0 0.024 0 0.034 0s0.024 0 0.034 0c0.013 0 0.024 0 0.037 0 0.011 0 0.024 0 0.034 0 0.013 0 0.024 0 0.037 0 0.011 0 0.024 0 0.034 0s0.024 0 0.034 0c0.013 0 0.024 0 0.037 0 0.011 0 0.024 0 0.034 0 0.013 0 0.024 0 0.037 0 0.011 0 0.024 0 0.034 0 0.013 0 0.024 0 0.037 0 0.011 0 0.024 0 0.034 0 0.013 0 0.024 0 0.037 0s0.024 0 0.037 0c0.011 0 0.024 0 0.034 0 0.013 0 0.024 0 0.037 0 0.011 0 0.024 0 0.034 0 0.013 0 0.024 0 0.037 0s0.024 0 0.037 0c0.011 0 0.024 0 0.034 0 0.013 0 0.024 0 0.037 0 0.011 0 0.024 0 0.037 0 0.011 0 0.024 0 0.034 0 0.013 0 0.024 0 0.037 0s0.024 0 0.037 0c0.011 0 0.024 0 0.034 0 0.013 0 0.026 0 0.037 0 0.013 0 0.024 0 0.037 0s0.024 0 0.037 0c0.011 0 0.024 0 0.037 0 0.011 0 0.024 0 0.034 0 0.013 0 0.026 0 0.037 0 0.013 0 0.024 0 0.037 0s0.024 0 0.037 0c0.011 0 0.024 0 0.037 0 0.011 0 0.024 0 0.037 0 0.011 0 0.024 0 0.034 0 0.013 0 0.026 0 0.037 0 0.013 0 0.026 0 0.037 0 0.013 0 0.026 0 0.037 0 0.013 0 0.024 0 0.037 0s0.024 0 0.037 0c0.013 0 0.024 0 0.037 0s0.024 0 0.037 0c0.013 0 0.024 0 0.037 0s0.024 0 0.037 0c0.013 0 0.024 0 0.037 0s0.024 0 0.037 0c0.013 0 0.024 0 0.037 0s0.024 0 0.037 0c0.013 0 0.026 0 0.037 0 0.013 0 0.026 0 0.037 0 0.013 0 0.026 0 0.037 0 0.013 0 0.026 0 0.039 0 0.011 0 0.024 0 0.037 0 0.011 0 0.024 0 0.037 0 0.011 0 0.024 0 0.037 0s0.024 0 0.037 0c0.013 0 0.026 0 0.037 0 0.013 0 0.026 0 0.037 0 0.013 0 0.026 0 0.039 0 0.011 0 0.024 0 0.037 0s0.024 0 0.037 0c0.013 0 0.026 0 0.037 0 0.013 0 0.026 0 0.039 0 0.011 0 0.024 0 0.037 0s0.024 0 0.037 0c0.013 0 0.026 0 0.037 0 0.013 0 0.026 0 0.039 0 0.011 0 0.024 0 0.037 0s0.024 0 0.037 0c0.013 0 0.026 0 0.039 0 0.011 0 0.024 0 0.037 0s0.026 0 0.037 0c0.013 0 0.026 0 0.039 0 0.011 0 0.024 0 0.037 0s0.026 0 0.037 0c0.013 0 0.026 0 0.039 0s0.024 0 0.037 0c0.013 0 0.026 0 0.039 0s0.024 0 0.037 0c0.013 0 0.026 0 0.039 0 0.011 0 0.024 0 0.037 0s0.026 0 0.039 0c0.011 0 0.024 0 0.037 0s0.026 0 0.039 0c0.011 0 0.024 0 0.037 0s0.026 0 0.039 0c0.011 0 0.024 0 0.037 0s0.026 0 0.039 0c0.011 0 0.024 0 0.037 0s0.026 0 0.039 0c0.013 0 0.024 0 0.037 0s0.026 0 0.039 0c0.013 0 0.026 0 0.039 0 0.011 0 0.024 0 0.037 0s0.026 0 0.039 0c0.013 0 0.026 0 0.037 0 0.013 0 0.026 0 0.039 0s0.026 0 0.039 0c0.013 0 0.024 0 0.037 0s0.026 0 0.039 0c0.013 0 0.026 0 0.039 0s0.026 0 0.037 0c0.013 0 0.026 0 0.039 0s0.026 0 0.039 0c0.013 0 0.026 0 0.039 0s0.024 0 0.037 0c0.013 0 0.026 0 0.039 0s0.026 0 0.039 0c0.013 0 0.026 0 0.039 0s0.026 0 0.039 0c0.011 0 0.024 0 0.037 0s0.026 0 0.039 0c0.013 0 0.026 0 0.039 0s0.026 0 0.039 0c0.013 0 0.026 0 0.039 0s0.026 0 0.037 0c0.013 0 0.026 0 0.039 0s0.026 0 0.039 0c0.013 0 0.026 0 0.039 0s0.026 0 0.039 0c0.013 0 0.026 0 0.039 0s0.026 0 0.039 0c0.013 0 0.026 0 0.039 0s0.026 0 0.039 0c0.013 0 0.026 0 0.039 0s0.026 0 0.039 0c0.013 0 0.026 0 0.039 0s0.026 0 0.039 0c0.013 0 0.026 0 0.039 0s0.026 0 0.039 0c0.013 0 0.026 0 0.039 0s0.026 0 0.039 0c0.013 0 0.026 0 0.039 0s0.026 0 0.039 0c0.013 0 0.026 0 0.039 0s0.026 0 0.039 0c0.013 0 0.026 0 0.039 0s0.026 0 0.039 0c0.013 0 0.026 0 0.039 0s0.026 0 0.039 0c0.013 0 0.026 0 0.039 0s0.026 0 0.039 0c0.013 0 0.026 0 0.039 0s0.026 0 0.042 0c0.013 0 0.026 0 0.039 0s0.026 0 0.039 0c0.013 0 0.026 0 0.039 0s0.026 0 0.039 0c0.013 0 0.026 0 0.039 0s0.026 0 0.042 0c0.013 0 0.026 0 0.039 0s0.026 0 0.039 0c0.013 0 0.026 0 0.039 0s0.026 0 0.039 0c0.013 0 0.029 0 0.042 0s0.026 0 0.039 0c0.013 0 0.026 0 0.039 0s0.026 0 0.039 0c0.016 0 0.029 0 0.042 0s0.026 0 0.039 0c0.013 0 0.026 0 0.039 0s0.026 0 0.042 0c0.013 0 0.026 0 0.039 0s0.026 0 0.039 0c0.013 0 0.026 0 0.042 0 0.013 0 0.026 0 0.039 0s0.026 0 0.039 0c0.013 0 0.026 0 0.042 0 0.013 0 0.026 0 0.039 0s0.026 0 0.039 0c0.013 0 0.029 0 0.042 0s0.026 0 0.039 0c0.013 0 0.026 0 0.039 0 0.016 0 0.029 0 0.042 0s0.026 0 0.039 0c0.013 0 0.029 0 0.042 0s0.026 0 0.039 0c0.013 0 0.026 0 0.042 0 0.013 0 0.026 0 0.039 0s0.026 0 0.039 0c0.016 0 0.029 0 0.042 0s0.026 0 0.039 0c0.016 0 0.029 0 0.042 0s0.026 0 0.039 0c0.016 0 0.029 0 0.042 0s0.026 0 0.039 0c0.016 0 0.029 0 0.042 0s0.026 0 0.039 0c0.016 0 0.029 0 0.042 0s0.026 0 0.039 0c0.016 0 0.029 0 0.042 0s0.026 0 0.042 0c0.013 0 0.026 0 0.039 0s0.029 0 0.042 0c0.013 0 0.026 0 0.039 0s0.029 0 0.042 0c0.013 0 0.026 0 0.039 0 0.016 0 0.029 0 0.042 0s0.026 0 0.042 0c0.013 0 0.026 0 0.039 0s0.029 0 0.042 0c0.013 0 0.026 0 0.042 0 0.013 0 0.026 0 0.039 0s0.029 0 0.042 0c0.013 0 0.026 0 0.039 0 0.016 0 0.029 0 0.042 0s0.029 0 0.042 0c0.013 0 0.026 0 0.039 0 0.016 0 0.029 0 0.042 0s0.029 0 0.042 0c0.013 0 0.026 0 0.042 0 0.013 0 0.026 0 0.039 0s0.029 0 0.042 0c0.013 0 0.026 0 0.042 0 0.013 0 0.026 0 0.039 0 0.016 0 0.029 0 0.042 0s0.029 0 0.042 0c0.013 0 0.026 0 0.042 0 0.013 0 0.026 0 0.039 0 0.016 0 0.029 0 0.042 0s0.029 0 0.042 0c0.013 0 0.026 0 0.042 0 0.013 0 0.026 0 0.039 0 0.016 0 0.029 0 0.042 0s0.029 0 0.042 0c0.013 0 0.026 0 0.042 0 0.013 0 0.026 0 0.042 0 0.013 0 0.026 0 0.039 0 0.016 0 0.029 0 0.042 0s0.029 0 0.042 0c0.013 0 0.029 0 0.042 0s0.026 0 0.042 0c0.013 0 0.026 0 0.042 0 0.013 0 0.026 0 0.039 0 0.016 0 0.029 0 0.042 0s0.029 0 0.042 0c0.013 0 0.029 0 0.042 0s0.029 0 0.042 0c0.013 0 0.026 0 0.042 0 0.013 0 0.026 0 0.042 0 0.013 0 0.026 0 0.039 0 0.016 0 0.029 0 0.042 0 0.016 0 0.029 0 0.042 0 0.016 0 0.029 0 0.042 0s0.029 0 0.042 0c0.013 0 0.029 0 0.042 0s0.029 0 0.042 0c0.013 0 0.029 0 0.042 0s0.026 0 0.042 0c0.013 0 0.026 0 0.042 0 0.013 0 0.026 0 0.042 0 0.013 0 0.026 0 0.042 0 0.013 0 0.026 0 0.042 0 0.013 0 0.026 0 0.042 0 0.013 0 0.026 0 0.042 0 0.013 0 0.026 0 0.042 0 0.013 0 0.026 0 0.042 0 0.013 0 0.026 0 0.042 0 0.013 0 0.026 0 0.042 0 0.013 0 0.026 0 0.042 0 0.013 0 0.026 0 0.042 0 0.013 0 0.026 0 0.042 0 0.013 0 0.026 0 0.042 0 0.013 0 0.026 0 0.042 0 0.013 0 0.026 0 0.042 0 0.013 0 0.026 0 0.042 0 0.013 0 0.026 0 0.042 0 0.013 0 0.026 0 0.042 0 0.013 0 0.026 0 0.042 0 0.013 0 0.026 0 0.042 0 0.013 0 0.029 0 0.042 0s0.029 0 0.042 0c0.013 0 0.029 0 0.042 0s0.029 0 0.042 0c0.013 0 0.029 0 0.042 0 0.016 0 0.029 0 0.042 0 0.016 0 0.029 0 0.042 0 0.016 0 0.029 0 0.042 0 0.016 0 0.029 0 0.045 0 0.013 0 0.026 0 0.042 0 0.013 0 0.026 0 0.042 0 0.013 0 0.026 0 0.042 0 0.013 0 0.029 0 0.042 0s0.029 0 0.042 0c0.013 0 0.029 0 0.042 0 0.016 0 0.029 0 0.042 0 0.016 0 0.029 0 0.042 0 0.016 0 0.029 0 0.045 0 0.013 0 0.026 0 0.042 0 0.013 0 0.026 0 0.042 0 0.013 0 0.029 0 0.042 0s0.029 0 0.042 0c0.016 0 0.029 0 0.042 0 0.016 0 0.029 0 0.045 0 0.013 0 0.026 0 0.042 0 0.013 0 0.026 0 0.042 0 0.013 0 0.029 0 0.042 0s0.029 0 0.042 0c0.016 0 0.029 0 0.042 0 0.016 0 0.029 0 0.045 0 0.013 0 0.026 0 0.042 0 0.013 0 0.029 0 0.042 0s0.029 0 0.042 0c0.016 0 0.029 0 0.042 0 0.016 0 0.029 0 0.045 0 0.013 0 0.026 0 0.042 0 0.013 0 0.029 0 0.042 0s0.029 0 0.042 0c0.016 0 0.029 0 0.042 0 0.016 0 0.029 0 0.045 0 0.013 0 0.026 0 0.042 0 0.013 0 0.029 0 0.042 0 0.016 0 0.029 0 0.042 0 0.016 0 0.029 0 0.045 0 0.013 0 0.026 0 0.042 0 0.013 0 0.029 0 0.042 0 0.016 0 0.029 0 0.042 0 0.016 0 0.029 0 0.045 0 0.013 0 0.026 0 0.042 0 0.013 0 0.029 0 0.042 0 0.016 0 0.029 0 0.042 0 0.016 0 0.029 0 0.045 0 0.013 0 0.026 0 0.042 0 0.013 0 0.029 0 0.042 0 0.016 0 0.029 0 0.042 0 0.016 0 0.029 0 0.045 0 0.013 0 0.029 0 0.042 0s0.029 0 0.042 0c0.016 0 0.029 0 0.045 0 0.013 0 0.026 0 0.042 0 0.013 0 0.029 0 0.042 0 0.016 0 0.029 0 0.042 0 0.016 0 0.029 0 0.045 0 0.013 0 0.029 0 0.042 0s0.029 0 0.042 0c0.016 0 0.029 0 0.045 0 0.013 0 0.029 0 0.042 0s0.029 0 0.042 0c0.016 0 0.029 0 0.045 0 0.013 0 0.026 0 0.042 0 0.013 0 0.029 0 0.042 0 0.016 0 0.029 0 0.045 0 0.013 0 0.026 0 0.042 0 0.013 0 0.029 0 0.042 0 0.016 0 0.029 0 0.045 0 0.013 0 0.026 0 0.042 0 0.013 0 0.029 0 0.042 0 0.016 0 0.029 0 0.045 0 0.013 0 0.026 0 0.042 0 0.013 0 0.029 0 0.042 0 0.016 0 0.029 0 0.045 0 0.013 0 0.026 0 0.042 0 0.013 0 0.029 0 0.042 0 0.016 0 0.029 0 0.045 0 0.013 0 0.029 0 0.042 0s0.029 0 0.042 0c0.016 0 0.029 0 0.045 0 0.013 0 0.029 0 0.042 0s0.029 0 0.042 0c0.016 0 0.029 0 0.045 0 0.013 0 0.029 0 0.042 0 0.016 0 0.029 0 0.042 0 0.016 0 0.029 0 0.045 0 0.013 0 0.029 0 0.042 0 0.016 0 0.029 0 0.045 0 0.013 0 0.026 0 0.042 0 0.013 0 0.029 0 0.042 0 0.016 0 0.029 0 0.045 0 0.013 0 0.029 0 0.042 0 0.016 0 0.029 0 0.042 0 0.016 0 0.029 0 0.045 0 0.013 0 0.029 0 0.042 0 0.016 0 0.029 0 0.045 0 0.013 0 0.029 0 0.042 0s0.029 0 0.042 0c0.016 0 0.029 0 0.045 0 0.013 0 0.029 0 0.042 0 0.016 0 0.029 0 0.042 0 0.016 0 0.029 0 0.045 0 0.013 0 0.029 0 0.042 0 0.016 0 0.029 0 0.045 0 0.013 0 0.029 0 0.042 0 0.016 0 0.029 0 0.042 0 0.016 0 0.029 0 0.045 0 0.013 0 0.029 0 0.042 0 0.016 0 0.029 0 0.045 0 0.013 0 0.029 0 0.042 0 0.016 0 0.029 0 0.042 0 0.016 0 0.029 0 0.045 0 0.013 0 0.029 0 0.042 0 0.016 0 0.029 0 0.045 0 0.013 0 0.029 0 0.042 0 0.016 0 0.029 0 0.042 0 0.016 0 0.029 0 0.045 0 0.013 0 0.029 0 0.042 0 0.016 0 0.029 0 0.045 0 0.013 0 0.029 0 0.042 0s0.029 0 0.042 0c0.016 0 0.029 0 0.045 0 0.013 0 0.029 0 0.042 0 0.016 0 0.029 0 0.045 0 0.013 0 0.029 0 0.042 0 0.016 0 0.029 0 0.042 0 0.016 0 0.029 0 0.045 0 0.013 0 0.029 0 0.042 0 0.016 0 0.029 0 0.045 0 0.013 0 0.029 0 0.042 0 0.016 0 0.029 0 0.042 0 0.016 0 0.029 0 0.045 0 0.013 0 0.029 0 0.042 0v-52.513zM795.21 865.824c-9.014 0-16.864 1.575-22.174 2.46l8.633 51.796c7.297-1.216 9.949-1.743 13.54-1.743v-52.513zM772.655 868.349c-10.072 1.83-21.357 2.794-34.241 3.868l4.361 52.332c12.32-1.027 26.241-2.164 39.274-4.534l-9.395-51.665zM738.414 872.217c-12.858 1.071-24.324 2.009-34.58 2.009v52.513c12.853 0 26.592-1.161 38.941-2.19l-4.361-52.332zM703.835 874.226c-11.356 0-25.689 1.258-42.958 4.713l10.3 51.491c14.239-2.846 25.109-3.692 32.658-3.692v-52.513zM662.313 878.692c-7.677 1.098-13.173 1.838-18.343 1.838v52.513c9.534 0 18.744-1.363 25.771-2.366l-7.428-51.985zM640.257 880.792c-7.733 1.105-15.426 2.353-24.505 4.947l14.428 50.494c5.624-1.607 10.534-2.46 17.505-3.455l-7.428-51.985zM617.27 885.356c-8.554 1.901-15.171 2.665-22.777 3.933l8.633 51.796c4.999-0.832 15.187-2.169 25.537-4.469l-11.393-51.26zM595.096 889.194c-7.733 1.105-15.426 2.353-24.505 4.947l14.428 50.494c5.624-1.607 10.534-2.46 17.505-3.455l-7.428-51.985zM570.591 894.141c-4.653 1.331-10.581 2.143-16.943 2.143v52.513c10.445 0 21.32-1.289 31.371-4.162l-14.428-50.494zM553.648 896.284c-10.471 0-21.835 1.294-33.002 3.776l11.393 51.26c7.738-1.72 15.276-2.523 21.609-2.523v-52.513zM519.129 900.443c-2.36 0.675-6.036 0.908-10.573-0.226l-12.737 50.945c12.267 3.067 25.395 3.3 37.738-0.226l-14.428-50.494zM502.185 899.432c-19.015 0-37.956 2.381-56.779 7.087l12.737 50.945c14.785-3.697 29.452-5.519 44.043-5.519v-52.513zM446.078 906.361c-9.463 2.101-18.464 4.099-29.46 6.099l9.395 51.665c12.112-2.2 22.013-4.403 31.458-6.504l-11.393-51.26zM416.167 912.547c-7.089 1.418-15.872 1.575-26.080 0.649l-4.755 52.295c12.897 1.174 27.22 1.331 41.133-1.452l-10.298-51.491zM387.707 913.088c-9.762 0-18.513-1.641-25.303-3.904l-16.607 49.816c12.112 4.038 26.469 6.601 41.91 6.601v-52.513zM360.469 908.619c-12.288-3.072-23.896 0.423-30.825 3.195l19.503 48.756c0.622-0.247 1.129-0.417 1.512-0.53 0.186-0.055 0.331-0.092 0.433-0.113 0.102-0.024 0.15-0.032 0.144-0.032s-0.076 0.013-0.21 0.024c-0.134 0.011-0.347 0.021-0.628 0.016-0.554-0.008-1.481-0.074-2.668-0.37l12.737-50.945zM332.183 910.945c-2.647 0.756-5.477 1.376-9.266 2.161-3.579 0.74-8.147 1.654-12.994 2.865l12.737 50.945c3.552-0.887 6.863-1.552 10.896-2.387 3.826-0.79 8.35-1.746 13.055-3.090l-14.428-50.494zM309.077 916.196c-7.78 2.224-13.577 3.844-18.109 4.6l8.633 51.796c8.074-1.344 16.98-3.925 23.904-5.902l-14.428-50.494zM283.543 923.21c1.833-0.916 3.387-1.347 4.324-1.554 0.898-0.197 1.434-0.228 1.334-0.221-0.087 0.008-0.438 0.029-1.26 0.039-0.824 0.013-1.791 0.016-3.156 0.016v52.513c2.25 0 5.506 0.016 8.444-0.21 2.904-0.223 8.224-0.824 13.8-3.613l-23.486-46.97zM284.785 921.49c-10.847 0-14.95-2.72-17.145-4.915l-37.131 37.134c14.61 14.609 33.613 20.294 54.276 20.294v-52.513zM272.56 923.399c-1.308-2.61-2.694-4.731-3.923-6.372-0.617-0.822-1.2-1.531-1.72-2.127-0.263-0.299-0.509-0.57-0.738-0.814-0.116-0.123-0.226-0.239-0.333-0.349-0.053-0.055-0.105-0.108-0.155-0.16-0.026-0.026-0.050-0.050-0.076-0.076-0.011-0.011-0.024-0.024-0.037-0.037-0.005-0.005-0.011-0.013-0.018-0.018-0.003-0.003-0.008-0.008-0.008-0.008-0.005-0.005-0.011-0.011-18.578 18.555-18.568 18.563-18.573 18.558-18.577 18.553-0.002 0-0.006-0.005-0.009-0.008-0.006-0.005-0.012-0.013-0.018-0.018-0.012-0.011-0.024-0.024-0.036-0.037-0.024-0.024-0.047-0.047-0.071-0.071-0.047-0.047-0.093-0.095-0.138-0.142-0.090-0.092-0.177-0.184-0.261-0.273-0.168-0.179-0.325-0.352-0.472-0.52-0.292-0.333-0.546-0.649-0.769-0.945-0.442-0.591-0.779-1.137-1.034-1.646l46.97-23.486zM246.974 905.736c8.741 0 15.629 4.471 19.56 9.712 3.807 5.075 4.595 10.24 4.595 13.393h-52.512c0 9.108 6.307 29.407 28.357 29.407v-52.513zM266.72 914.277c-0.84-1.26-1.357-2.25-1.662-2.954-0.305-0.701-0.352-1.013-0.344-0.966 0.013 0.074 0.068 0.483-0.018 1.129-0.089 0.67-0.291 1.297-0.538 1.791l-46.969-23.486c-10.178 20.357-3.056 40.272 5.838 53.616l43.694-29.129zM265.581 909.837c-0.029 0.089-0.016 0.018 0.102-0.179 0.11-0.184 0.37-0.575 0.908-1.111l-37.133-37.134c-7.409 7.41-11.509 15.26-13.695 21.816l49.817 16.607zM269.031 905.733c8.313-11.085 18.744-22.533 32.568-35.373l-35.732-38.479c-15.583 14.467-28.258 28.226-38.847 42.344l42.011 31.508zM298.296 872.968c9.171-6.112 13.648-8.302 16.807-9.203l-14.428-50.494c-11.545 3.3-21.772 9.515-31.508 16.003l29.129 43.693zM319.632 862.003c9.521-4.76 20.829-8.024 33.065-8.841l-3.495-52.395c-19.272 1.284-37.371 6.422-53.056 14.265l23.486 46.97zM354.207 853.018c3.353-0.417 6.554-0.638 10.495-0.908 3.707-0.257 8.305-0.572 13.068-1.252l-7.428-51.985c-2.589 0.37-5.343 0.58-9.253 0.848-3.671 0.255-8.347 0.559-13.396 1.192l6.514 52.106zM374.054 851.123c4.771 0 9.381-0.341 12.9-0.593 3.833-0.273 6.575-0.457 9.156-0.457v-52.513c-4.768 0-9.379 0.339-12.897 0.591-3.833 0.273-6.575 0.459-9.158 0.459v52.513zM396.109 850.072c4.243 0 10.757 0.047 18.802-1.562l-10.298-51.491c-2.455 0.491-4.343 0.541-8.504 0.541v52.513zM414.912 848.51c1.397-0.278 2.865-0.586 3.894-0.798 1.142-0.234 2.001-0.404 2.741-0.536 1.494-0.263 1.922-0.257 1.869-0.257v-52.513c-7.575 0-15.478 1.948-18.802 2.613l10.298 51.491zM435.161 844.149c7.299-3.652 16.928-6.225 30.92-9.455l-11.808-51.166c-13.315 3.072-28.893 6.8-42.598 13.651l23.486 46.97zM471.92 832.596c0.58-0.291 1.413-0.641 3.429-1.352 1.733-0.612 4.944-1.691 8.231-3.006l-19.503-48.756c-1.961 0.785-3.476 1.281-6.207 2.245-2.45 0.864-5.816 2.090-9.437 3.899l23.486 46.97zM485.57 827.345c2.883-1.441 5.86-2.539 8.111-2.991l-10.298-51.491c-8.252 1.649-15.777 4.752-21.297 7.512l23.484 46.97zM505.62 818.544c10.652-9.129 20.764-22.187 22.693-41.477l-52.253-5.225c-0.134 1.334-0.449 2.085-0.851 2.754-0.504 0.84-1.531 2.164-3.765 4.078l34.175 39.87zM528.442 774.454v-10.503h-52.513v10.503h52.513zM527.095 755.646c-1.473-4.419-2.255-8.139-3.211-13.866l-51.796 8.633c1.145 6.874 2.463 13.656 5.191 21.84l49.816-16.607zM523.884 741.78c-1.003-6.018-2.337-14.331-5.191-22.893l-49.816 16.607c1.347 4.041 2.111 8.331 3.211 14.919l51.796-8.633zM519.031 719.977c-2.985-10.445-9.1-21.304-12.264-27.635l-46.97 23.486c5.238 10.474 7.525 14.318 8.741 18.576l50.494-14.428zM500.090 683.914c-5.506-4.587-8.011-7.307-9.458-9.234l-42.010 31.508c4.857 6.472 10.755 12.154 17.852 18.070l33.616-40.343zM490.633 674.679c-2.985-3.983-6.178-7.079-8.47-9.219-2.794-2.607-3.812-3.44-5.519-5.149l-37.132 37.134c2.492 2.492 5.674 5.335 6.819 6.404 1.644 1.536 2.129 2.116 2.292 2.337l42.010-31.508zM478.247 662.071c-7.305-8.767-9.809-10.781-13.028-15.609l-43.693 29.129c5.18 7.772 13.183 16.261 16.379 20.097l40.343-33.616zM465.219 646.462c-6.953-10.432-16.481-17.967-24.088-23.037l-29.129 43.693c4.999 3.332 8.074 6.299 9.523 8.473l43.693-29.129zM440.076 622.757c-8.775-5.267-16.954-11.582-24.573-18.251l-34.58 39.519c9.182 8.034 19.908 16.423 32.135 23.759l27.018-45.027zM415.502 604.507c-10.558-9.237-16.19-13.12-22.88-19.813l-37.134 37.134c8.013 8.011 19.186 16.731 25.435 22.197l34.58-39.519zM395.902 588.698c-3.6-5.401-10.043-15.499-19.096-22.743l-32.805 41.005c1.447 1.158 3.405 3.663 8.208 10.868l43.693-29.129zM376.806 565.954c-1.502-1.2-2.634-2.358-5.829-5.385-2.765-2.62-6.698-6.236-11.763-9.612l-29.131 43.693c1.237 0.824 2.555 1.935 4.779 4.041 1.793 1.699 5.388 5.267 9.14 8.268l32.805-41.005zM361.456 552.632c-7.268-6.057-15.449-11.878-22.2-16.379l-29.129 43.693c5.855 3.902 12.377 8.583 17.713 13.028l33.616-40.343zM339.256 536.253c-2.922-1.948-6.139-4.175-9.597-6.567-3.369-2.334-6.979-4.834-10.358-7.087l-29.129 43.693c2.925 1.948 6.139 4.175 9.597 6.569 3.369 2.332 6.982 4.831 10.358 7.084l29.129-43.693zM321.365 524.125c-12.782-10.458-26.438-19.527-38.24-27.036l-28.192 44.302c11.304 7.194 22.854 14.929 33.178 23.376l33.254-40.642zM282.259 496.561c-12.658-7.386-22.852-13.924-34.379-20.84l-27.018 45.027c9.478 5.687 22.391 13.853 34.938 21.171l26.459-45.358zM247.2 475.325c-26.023-14.572-50.553-28.895-74.933-45.148l-29.129 43.693c26.032 17.355 51.913 32.44 78.403 47.275l25.658-45.82zM172.267 430.177c-25.602-17.067-51.367-33.18-76.213-47.222l-25.839 45.715c23.466 13.265 48.113 28.659 72.924 45.2l29.129-43.693zM101.701 387.245c-3.095-3.093-7.441-7.486-13.315-11.889l-31.508 42.010c2.528 1.896 4.484 3.805 7.691 7.013l37.132-37.134zM91.197 377.793c-4.884-4.884-10.45-8.691-13.315-10.839l-31.508 42.010c5.537 4.151 6.273 4.545 7.69 5.963l37.132-37.134zM75.638 365.445c-1.272-0.764-2.393-1.581-3.851-2.728-0.385-0.302-0.76-0.601-1.213-0.961-0.426-0.339-0.934-0.74-1.453-1.147-1.021-0.796-2.398-1.843-3.98-2.899l-29.129 43.693c-0.006-0.005 0.192 0.129 0.812 0.612 1.039 0.811 0.962 0.772 2.52 1.995 2.218 1.741 5.297 4.075 9.277 6.462l27.018-45.027zM70.2 362.113c-4.972-5.593-6.626-9.862-7.129-15.392l-52.297 4.755c1.598 17.576 8.345 32.211 20.177 45.523l39.249-34.887zM63.179 349.1c0-7.389 1.189-11.878 2.274-14.281 0.949-2.106 1.711-2.479 1.897-2.578l-25.146-46.101c-23.607 12.876-31.538 38.379-31.538 62.96h52.513zM69.342 331.036c0.912-0.607 1.955-1.105 3.188-1.352l-10.299-51.491c-9.27 1.854-16.629 5.558-22.019 9.15l29.129 43.693zM69.993 330.064c6.901-0.691 14.465 0.003 22.023 2.749l17.946-49.349c-15.548-5.656-31.089-7.063-45.194-5.653l5.225 52.253zM89.247 331.624c2.756 1.378 6.064 2.668 10.050 3.332 3.336 0.557 6.409 0.491 6.943 0.491v-52.513c-0.654 0-0.578-0.005-0.402 0.003 0.295 0.011 1.068 0.053 2.094 0.223 1.079 0.179 2.113 0.446 3.058 0.775 0.886 0.307 1.495 0.596 1.741 0.719l-23.485 46.97zM106.239 335.447c0.654 0 0.578 0.003 0.402-0.005-0.295-0.011-1.067-0.050-2.093-0.221-1.078-0.181-2.112-0.449-3.058-0.777-0.887-0.307-1.495-0.596-1.743-0.719l23.485-46.97c-2.758-1.378-6.066-2.668-10.052-3.332-3.335-0.557-6.408-0.488-6.942-0.488v52.513zM99.749 333.724c3.358 1.678 6.882 3.006 8.162 3.518 0.859 0.344 1.211 0.499 1.369 0.575 0.133 0.063-0.213-0.089-0.8-0.48l29.129-43.693c-4.081-2.72-8.219-4.366-10.196-5.157-2.659-1.063-3.337-1.31-4.179-1.733l-23.485 46.97zM108.48 337.337c4.802 3.201 10.65 6.076 14.375 7.94l23.484-46.97c-4.677-2.337-7.231-3.663-8.731-4.663l-29.129 43.693zM122.855 345.277c-0.152-0.076-1.082-0.612 0.728 0.473 0.569 0.341 2.243 1.347 4.414 2.242 2.328 0.958 6.075 2.158 10.801 2.158v-52.513c4.202 0 7.423 1.066 9.193 1.796 0.888 0.365 1.559 0.709 1.942 0.914 0.382 0.202 0.636 0.357 0.667 0.375 0.016 0.008 0.008 0.005-0.225-0.139-0.181-0.113-0.506-0.312-0.875-0.536-0.772-0.462-1.847-1.082-3.162-1.741l-23.484 46.97zM120.232 342.46c3.123 3.122 6.507 5.154 8.924 6.362 1.587 0.793 6.945 3.429 13.843 3.429v-52.513c3.565 0 6.151 0.78 7.009 1.056 1.174 0.373 2.052 0.769 2.632 1.058 0.842 0.423 2.651 1.402 4.723 3.474l-37.132 37.134zM122.496 342.394c6.537 8.174 14.358 14.312 21.698 18.716l27.018-45.027c-3.163-1.898-5.845-4.162-7.709-6.491l-41.006 32.802zM144.194 361.11c4.159 2.497 13.516 8.465 24.113 10.584l10.299-51.491c0.538 0.108 0.242 0.137-1.283-0.628-1.564-0.78-3.313-1.814-6.111-3.492l-27.018 45.027zM166.243 371.195c4.508 1.287 10.526 4.191 19.627 8.741l23.485-46.97c-7.703-3.852-18.49-9.35-28.685-12.264l-14.426 50.494zM187.269 380.584c15.433 6.614 26.041 11.075 34.643 16.234l27.018-45.027c-12.402-7.444-27.001-13.485-40.975-19.474l-20.686 48.267zM221.913 396.818c5.533 3.321 11.294 6.611 16.761 9.736 5.561 3.177 10.827 6.189 15.797 9.169l27.017-45.027c-5.532-3.321-11.293-6.611-16.759-9.736-5.561-3.177-10.828-6.189-15.797-9.169l-27.018 45.027zM249.413 411.777c9.277 9.276 19.597 14.979 26.778 18.571l23.486-46.97c-5.422-2.71-9.807-5.409-13.133-8.736l-37.131 37.134zM276.191 430.348c3.684 1.841 12.333 6.711 18.794 9.295l19.503-48.756c-4.038-1.615-5.892-3.048-14.811-7.509l-23.486 46.97zM290.173 437.111c7.281 4.855 15.586 9.594 22.777 13.191l23.486-46.97c-5.411-2.704-11.813-6.367-17.135-9.914l-29.129 43.693zM312.95 450.303c5.516 2.757 12.18 6.556 19.721 10.865l26.054-45.594c-7.163-4.093-15.202-8.696-22.289-12.241l-23.486 46.97zM337.395 463.279c1.528 0.509 3.193 1.237 5.225 2.253 1.027 0.512 2.040 1.045 3.23 1.673 1.090 0.575 2.494 1.321 3.86 2.003l23.484-46.97c-1.972-0.987-10.529-5.889-19.191-8.775l-16.607 49.816zM349.709 469.207c5.383 2.689 11.75 5.217 16.694 7.194l19.503-48.756c-5.558-2.224-9.691-3.896-12.713-5.409l-23.484 46.97zM352.671 463.767c0.685 1.371 7.701 16.090 25.19 16.090 7.323 0 12.669-2.88 15.255-4.537 2.702-1.73 4.695-3.618 5.805-4.729l-37.132-37.132c0.063-0.063 1.137-1.163 3.019-2.368 1.764-1.132 6.388-3.747 13.052-3.747 7.641 0 13.522 3.379 17.093 6.74 2.977 2.804 4.361 5.551 4.687 6.197l-46.97 23.486zM406.612 452.025v-2.101h-52.513v2.101h52.513zM403.842 438.18c0.134 0.268 0.202 0.449 0.129 0.268-0.032-0.074-0.045-0.105-0.102-0.244-0.042-0.105-0.113-0.276-0.194-0.467-0.144-0.339-0.457-1.066-0.882-1.914-0.664-1.331-2.857-5.632-7.507-9.353-5.59-4.474-11.871-5.952-17.030-5.952v52.513c-4.632 0-10.518-1.35-15.78-5.561-4.324-3.458-6.252-7.365-6.656-8.171-0.394-0.79-0.772-1.73-0.323-0.656 0.252 0.609 0.717 1.707 1.376 3.025l46.97-23.486zM378.255 446.774c18.563-18.571 18.569-18.566 18.574-18.561 0 0 0.005 0.005 0.008 0.008 0.008 0.005 0.013 0.013 0.018 0.018 0.013 0.013 0.024 0.024 0.037 0.037 0.024 0.024 0.047 0.047 0.071 0.071 0.045 0.047 0.092 0.095 0.137 0.142 0.092 0.092 0.179 0.184 0.263 0.273 0.168 0.181 0.326 0.354 0.473 0.52 0.291 0.336 0.546 0.651 0.769 0.948 0.441 0.588 0.78 1.137 1.037 1.649l-46.97 23.486c1.308 2.613 2.694 4.737 3.925 6.375 0.617 0.824 1.2 1.531 1.722 2.129 0.26 0.297 0.509 0.57 0.738 0.814 0.116 0.123 0.226 0.239 0.333 0.349 0.053 0.055 0.105 0.108 0.155 0.16 0.026 0.026 0.050 0.050 0.076 0.076 0.011 0.011 0.024 0.024 0.037 0.037 0.005 0.005 0.011 0.013 0.018 0.018 0.003 0.003 0.008 0.008 0.008 0.008 0.005 0.005 0.011 0.011 18.571-18.558zM394.72 425.055c-16.473-16.473-33.002-34.031-49.858-51.94l-38.24 35.99c16.754 17.799 33.831 35.95 50.966 53.085l37.132-37.134zM344.862 373.114c-17.505-18.603-36.168-36.176-54.939-51.636l-33.384 40.537c16.937 13.947 33.983 29.982 50.083 47.088l38.24-35.99zM292.47 323.881c-14.517-15.636-28.971-28.963-43.239-41.036l-33.92 40.086c13.038 11.033 25.892 22.911 38.68 36.683l38.48-35.732zM249.231 282.845c-14.177-11.997-29.58-24.107-47.246-36.252l-29.75 43.273c15.943 10.959 29.947 21.956 43.076 33.065l33.92-40.086zM205.676 249.663c-5.703-5.703-12.305-10.878-20.11-16.453l-30.522 42.732c6.899 4.928 10.801 8.155 13.499 10.854l37.132-37.133zM182.048 231.091c-5.409-2.704-11.809-6.366-17.132-9.915l-29.129 43.693c7.28 4.852 15.582 9.594 22.776 13.191l23.485-46.969zM164.915 221.176c-6.24-4.16-13.249-8.842-21.493-13.553l-26.054 45.594c6.459 3.691 12.055 7.411 18.418 11.653l29.129-43.693zM147.686 210.66c-7.619-6.666-15.377-14.41-24.98-24.012l-37.132 37.132c9.302 9.302 18.347 18.363 27.532 26.4l34.58-39.52zM123.764 187.77c-9.755-10.974-20.448-20.41-31.579-29.315l-32.804 41.005c9.874 7.899 18.085 15.267 25.135 23.198l39.249-34.888zM92.184 158.455c-2.32-1.856-3.328-3.41-3.853-4.547-0.548-1.188-0.997-2.861-0.997-5.408h-52.513c0 18.912 7.361 37.203 24.558 50.96l32.804-41.005zM86.551 142.132c-0.037-0.147-0.131-0.612-0.193-1.547-0.065-0.98-0.073-1.994-0.073-3.638h-52.513c0 2.875-0.107 10.158 1.834 17.921l50.945-12.736zM86.285 136.947c0 0.013-0.021-0.088 0.261-2.065 0.243-1.699 0.788-5.273 0.788-9.487h-52.513c0-0.014 0.021 0.088-0.261 2.065-0.243 1.699-0.788 5.273-0.788 9.487h52.513zM87.335 125.394c0-0.148-0.023-1.467 1.892-4.34l-43.693-29.129c-6.487 9.73-10.712 21.014-10.712 33.469h52.513zM91.759 116.241c-0.275 0.686-0.636 1.338-1.038 1.902-0.389 0.546-0.715 0.87-0.83 0.978-0.098 0.091-0.003-0.012 0.436-0.32 0.449-0.316 1.104-0.741 2.116-1.349l-27.018-45.029c-5.94 3.564-16.891 10.487-22.422 24.316l48.757 19.503zM97.5 113.503c-0.26 0.26-0.635 0.601-1.119 0.968-0.488 0.37-0.973 0.679-1.414 0.924-0.819 0.455-1.208 0.527-0.379 0.25l-16.606-49.818c-5.276 1.759-11.567 4.496-17.615 10.544l37.132 37.132zM94.588 115.645c5.276-1.759 11.567-4.496 17.615-10.544l-37.132-37.132c0.26-0.26 0.635-0.601 1.119-0.968 0.488-0.37 0.973-0.679 1.414-0.924 0.819-0.455 1.208-0.527 0.379-0.25l16.606 49.818zM105.379 110.019c2.106-1.053 4.274-1.429 6.112-1.429v-52.513c-8.665 0-19.099 1.724-29.596 6.973l23.485 46.969zM106.342 108.080c5.123 1.025 7.324 1.546 10.211 2.989l23.484-46.969c-9.716-4.858-18.017-6.438-23.397-7.513l-10.299 51.493zM109.729 106.151c3.926 3.926 8.161 6.216 9.801 7.11 0.475 0.259 0.967 0.521 1.283 0.691 0.363 0.194 0.61 0.328 0.828 0.448 0.426 0.236 0.53 0.308 0.492 0.283l29.129-43.693c-1.613-1.075-3.086-1.922-4.202-2.54-0.553-0.306-1.069-0.583-1.457-0.791-0.434-0.232-0.681-0.364-0.928-0.499-0.499-0.272-0.389-0.23-0.060-0.011 0.371 0.247 1.232 0.855 2.246 1.869l-37.132 37.132zM122.133 114.683c2.357 1.571 8.569 5.932 15.714 8.314l16.606-49.818c0.793 0.265 0.952 0.436 0.2-0.003-0.332-0.194-0.763-0.459-1.348-0.837-0.6-0.387-1.228-0.806-2.043-1.349l-29.129 43.693zM127.584 116.654c5.412 5.412 11.014 8.064 13.125 9.119l23.485-46.969c-0.275-0.137-0.464-0.232-0.641-0.322-0.169-0.086-0.28-0.144-0.357-0.185-0.153-0.081-0.116-0.067 0.022 0.020 0.149 0.093 0.388 0.252 0.673 0.475 0.288 0.225 0.568 0.472 0.826 0.729l-37.132 37.132zM140.709 125.773c-0.964-0.482-1.539-0.884-1.558-0.897-0.035-0.024-0.007-0.005 0.121 0.088 0.138 0.101 0.294 0.218 0.575 0.429 0.443 0.332 1.406 1.059 2.454 1.78 1.069 0.735 2.694 1.793 4.709 2.8l23.485-46.969c0.964 0.482 1.539 0.884 1.558 0.896 0.035 0.024 0.007 0.006-0.121-0.088-0.138-0.101-0.294-0.218-0.575-0.429-0.443-0.332-1.406-1.059-2.454-1.78-1.069-0.735-2.694-1.793-4.709-2.8l-23.485 46.969zM141.943 126.66c6.526 5.438 11.963 9.787 17.211 13.985l32.804-41.005c-5.255-4.204-10.32-8.257-16.398-13.321l-33.618 40.342zM159.155 140.646c5.546 4.437 9.568 7.695 12.54 10.666l37.132-37.132c-5.43-5.43-11.911-10.575-16.867-14.54l-32.804 41.005zM173.451 152.917c8.978 7.482 18.93 12.947 31.214 17.861l19.503-48.757c-8.721-3.488-13.474-6.425-17.099-9.446l-33.618 40.342zM208.048 171.872c4.123 1.031 8.128 3.259 10.971 5.533l32.804-41.006c-7.66-6.128-18.358-12.302-31.039-15.472l-12.736 50.945zM219.019 177.405c2.626 2.101 5.251 4.201 7.877 6.302s5.251 4.201 7.877 6.302l32.803-41.005c-2.626-2.101-5.25-4.201-7.876-6.302s-5.251-4.201-7.877-6.302l-32.804 41.006zM232.609 188.071c5.017 5.018 10.272 9.994 15.33 14.792 5.143 4.879 10.155 9.643 15.126 14.615l37.134-37.132c-5.53-5.53-11.022-10.744-16.119-15.579-5.183-4.917-9.904-9.393-14.339-13.828l-37.133 37.132zM263.971 218.34c12.277 11.161 23.983 20.586 37.174 28.98l28.192-44.303c-9.914-6.31-19.212-13.689-30.043-23.533l-35.323 38.856zM299.121 245.894c9.893 7.694 17.762 13.327 24.66 17.925l29.129-43.693c-5.706-3.804-12.537-8.674-21.549-15.683l-32.24 41.451zM326.603 265.458c6.582 3.29 16.329 8.171 30.746 12.976l16.607-49.817c-10.789-3.596-17.849-7.118-23.87-10.128l-23.484 46.969zM347.086 272.093c13.916 13.913 31.904 9.699 41.532 3.279l-29.129-43.693c1.644-1.094 5.054-2.834 9.97-2.834 5.39 0 10.797 2.151 14.759 6.115l-37.132 37.133zM400.31 253.525c0 4.276-1.155 10.118-5.346 15.511-4.017 5.162-8.932 7.473-11.949 8.478-2.862 0.956-5.165 1.126-5.884 1.176-0.785 0.053-1.426 0.042-0.977 0.042v-52.514c-0.076 0-1.239-0.011-2.518 0.075-1.21 0.081-3.975 0.319-7.231 1.405-3.408 1.137-8.651 3.644-12.897 9.103-4.422 5.686-5.711 11.923-5.711 16.724h52.513zM352.668 240.738l-1.050 2.101 46.975 23.475 1.050-2.101-46.975-23.475zM401.363 254.576c0-0.452 0.011 0.187-0.042 0.97-0.047 0.718-0.221 3.020-1.174 5.881-1.003 3.015-3.311 7.933-8.476 11.953-5.393 4.196-11.238 5.354-15.518 5.354v-52.514c-4.802 0-11.043 1.289-16.731 5.715-5.461 4.249-7.964 9.495-9.098 12.904-1.084 3.255-1.323 6.016-1.402 7.227-0.087 1.275-0.074 2.439-0.074 2.512h52.513zM376.155 226.219c-1.536 0-0.593-0.051 0.696 0.133 0.814 0.117 2.502 0.412 4.592 1.23 2.15 0.842 5.157 2.407 8.029 5.277l-37.134 37.133c6.582 6.582 14.299 7.945 17.085 8.344 3.127 0.446 6.168 0.396 6.732 0.396v-52.514zM389.472 232.859c-8.245-8.244-17.432-16.251-28.423-25.042l-32.802 41.006c10.014 8.013 17.631 14.708 24.090 21.17l37.134-37.133zM360.768 207.594c-7.95-6.183-15.221-13.406-23.809-21.996l-37.134 37.132c8.216 8.214 17.749 17.794 28.704 26.315l32.24-41.451zM340.753 190.403c-9.647-15.677-19.763-27.295-29.431-35.582l-34.175 39.871c5.036 4.317 11.726 11.603 18.884 23.233l44.723-27.522zM310.637 154.253c-2.626-2.101-5.251-4.201-7.877-6.302s-5.251-4.201-7.877-6.301l-32.804 41.006c2.625 2.101 5.25 4.201 7.876 6.302 2.628 2.101 5.251 4.201 7.877 6.301l32.805-41.006zM294.883 141.65c-5.545-4.437-9.568-7.695-12.54-10.666l-37.131 37.132c5.43 5.43 11.91 10.574 16.867 14.54l32.804-41.006zM282.343 130.984c-1.218-1.219-2.4-2.252-3.088-2.85-0.901-0.781-1.163-0.998-1.589-1.382-0.712-0.64-0.142-0.238 0.607 0.882l-43.694 29.129c2.847 4.271 6.044 7.299 7.958 9.021 0.886 0.797 1.937 1.696 2.285 1.998 0.558 0.485 0.558 0.503 0.389 0.333l37.131-37.132zM278.273 127.634c-2.032-3.049-5.419-8.241-10.634-13.454l-37.131 37.132c1.088 1.088 1.903 2.198 4.071 5.451l43.694-29.129zM272.56 121.004c-3.077-6.151-8.1-13.038-8.99-14.375l-43.694 29.129c0.673 1.010 1.406 2.067 1.984 2.904 0.628 0.909 1.171 1.697 1.692 2.478 1.083 1.624 1.704 2.68 2.038 3.348l46.97-23.485zM265.208 109.451c-2.116-4.232-4.651-7.692-5.795-9.295-1.481-2.073-1.573-2.289-1.557-2.258l-46.969 23.485c2.116 4.232 4.649 7.692 5.795 9.295 1.481 2.073 1.573 2.289 1.557 2.258l46.97-23.485zM257.168 96.613c-2.796-4.892-5.144-10.969-6.776-17.497l-50.945 12.736c2.569 10.276 6.521 21.003 12.127 30.815l45.594-26.054zM250.392 79.116c-1.031-4.121-1.325-10.092-0.397-19.376l-52.252-5.225c-1.172 11.721-1.467 24.655 1.704 37.338l50.945-12.736zM250.125 57.127c0-0.925 0.163-0.068-0.675 1.478-0.401 0.741-0.892 1.37-1.371 1.843-0.462 0.456-0.758 0.615-0.681 0.571l-26.054-45.594c-7.35 4.2-13.737 10.172-18.068 18.169-4.251 7.848-5.664 16.056-5.664 23.533h52.513zM252.937 56.789c-1.014 1.014-1.875 1.622-2.246 1.869-0.329 0.22-0.44 0.262 0.060-0.011 0.247-0.135 0.494-0.267 0.928-0.499 0.388-0.208 0.904-0.485 1.457-0.791 1.116-0.617 2.588-1.464 4.202-2.54l-29.129-43.693c0.038-0.025-0.065 0.047-0.492 0.283-0.218 0.121-0.465 0.254-0.828 0.448-0.316 0.17-0.808 0.432-1.283 0.691-1.64 0.894-5.874 3.184-9.801 7.11l37.132 37.132zM257.338 54.818c1-0.667 1.83-1.169 3.145-1.958 1.311-0.786 3.105-1.86 5.258-3.294l-29.13-43.693c-1 0.667-1.83 1.168-3.145 1.957-1.31 0.786-3.106 1.86-5.257 3.294l29.129 43.693zM257.544 53.193c2.484-0.621 3.912-0.702 4.674-0.676 0.628 0.022 1.098 0.12 1.72 0.387l20.687-48.267c-14.066-6.028-27.588-5.447-39.817-2.389l12.736 50.945zM267.067 54.017c5.742 1.641 8.019 3.239 8.602 3.822l37.132-37.132c-9.92-9.92-22.344-14.622-31.306-17.183l-14.428 50.492zM275.669 57.839c1.050 1.050 2.363 2.363 3.676 3.676s2.626 2.626 3.676 3.676l37.132-37.132c-1.050-1.050-2.36-2.363-3.676-3.676-1.31-1.313-2.626-2.626-3.676-3.676l-37.132 37.132zM283.020 65.191c-0.197-0.198-0.168-0.188 0.063 0.093 0.21 0.253 0.494 0.617 0.814 1.066 0.685 0.959 1.239 1.882 1.557 2.52l46.97-23.485c-3.295-6.588-8.069-13.125-12.272-17.326l-37.132 37.132zM287.933 72.881c6.984 9.311 14.092 17.615 22.394 25.918l37.134-37.132c-6.401-6.401-11.897-12.8-17.518-20.294l-42.010 31.508zM310.327 98.799c10.161 10.16 21.344 16.904 33.080 22.773l23.486-46.969c-9.269-4.633-14.89-8.392-19.432-12.936l-37.134 37.132zM340.585 119.934c5.495 3.662 9.589 6.978 14.564 10.711l31.508-42.010c-3.424-2.568-9.833-7.654-16.943-12.394l-29.129 43.694zM352.337 128.206c1.378 1.377 2.794 2.707 3.87 3.721 1.171 1.105 2.085 1.972 2.956 2.843 1.686 1.686 2.754 2.95 3.547 4.138l43.693-29.129c-6.123-9.186-15.184-16.955-16.933-18.705l-37.134 37.132zM365.991 142.91c0.557 0.557 0.985 1.079 1.271 1.471 0.139 0.191 0.221 0.32 0.252 0.369 0.034 0.058-0.021-0.025-0.139-0.262l46.97-23.485c-2.379-4.758-6.183-10.187-11.222-15.226l-37.132 37.132zM370.047 148.755c11.802 15.343 24.584 28.060 36.759 39.128l35.323-38.856c-10.931-9.937-21.255-20.325-30.457-32.289l-41.624 32.018zM406.806 187.883c5.545 5.043 10.353 9.594 15.476 14.455 5.102 4.841 10.51 9.979 17.001 15.93l35.486-38.71c-6.112-5.602-11.206-10.442-16.345-15.316-5.117-4.855-10.287-9.755-16.295-15.215l-35.323 38.856zM483.281 198.912c0-0.903 0.039 0.646-0.144 2.296-0.16 1.458-0.974 8.918-7.42 15.358-6.443 6.437-13.9 7.247-15.352 7.408-1.646 0.183-3.193 0.144-2.287 0.144v-52.513c-0.053 0-0.459-0.001-0.882 0.007-0.399 0.008-1.394 0.033-2.623 0.169-1.746 0.194-9.4 1.069-15.974 7.638-6.577 6.571-7.457 14.228-7.651 15.981-0.137 1.231-0.163 2.227-0.171 2.627-0.008 0.425-0.008 0.832-0.008 0.884h52.513zM458.077 224.118c0.903 0-0.643 0.039-2.292-0.144-1.452-0.161-8.919-0.973-15.363-7.422-6.443-6.446-7.249-13.91-7.41-15.357-0.181-1.644-0.144-3.19-0.144-2.283h52.513c0-0.050 0.003-0.456-0.005-0.878-0.011-0.398-0.034-1.391-0.171-2.619-0.192-1.742-1.066-9.402-7.638-15.98-6.575-6.581-14.239-7.458-15.988-7.652-1.229-0.137-2.224-0.161-2.623-0.169-0.423-0.009-0.83-0.007-0.88-0.007v52.513zM459.125 172.656h-2.101v52.513h2.101v-52.513z"/></svg>