<svg xmlns="http://www.w3.org/2000/svg" viewBox="62.8 75.9 924.0 924.0" fill="currentColor"><path d="M297.516 751.992l-216.932-213.268 13.601-13.238c7.481-7.28 35.405-34.667 62.055-60.858l48.454-47.62 1.811-34.235c0.996-18.829 2.404-38.495 3.132-43.702 4.28-30.693 31.121-49.807 75.335-53.647 9.341-0.81 26.892-2.702 39-4.202l22.016-2.729 170.802-168.058 19.492 18.429c10.721 10.133 40.798 38.58 66.837 63.209l47.349 44.784 14.698-0.885c12.807-0.765 15.482-0.536 20.818 1.841 7.935 3.528 15.299 11.242 20.803 21.785 2.422 4.641 11.664 21.117 20.537 36.617l16.135 28.18 225.592 212.806-5.923 5.733c-3.258 3.153-32.951 31.184-65.98 62.295l-60.053 56.563 2.628 4.372c20.73 34.46 26.967 47.712 26.967 57.301 0 14.793-9.954 23.152-33.762 28.35-6.755 1.475-13.725 3.269-15.482 3.99s-16.938 3.281-33.731 5.693c-16.793 2.412-30.63 4.479-30.749 4.595-0.123 0.123 1.899 18.95 4.483 41.85s4.71 43.098 4.725 44.878c0.027 3.059-1.073 2.665-19.749-7.061-21.602-11.251-40.538-22.648-52.328-31.491-4.16-3.122-8.003-5.509-8.536-5.309-0.536 0.211-38.182 35.5-83.661 78.442s-82.861 78.024-83.067 77.966c-0.208-0.060-97.994-96.076-217.308-213.373zM560.395 868.092c22.488-18.894 54.643-54.897 69.837-78.195 3.485-5.343 9.189-15.505 12.675-22.583l6.339-12.868 7.803 10.9c14.751 20.602 38.403 39.941 72.837 59.549 9.677 5.509 17.728 9.881 17.894 9.715s-2.055-20.992-4.935-46.277l-5.235-45.973-9.914-13.364c-8.122-10.948-9.918-14.307-9.935-18.566-0.009-2.861-0.786-6.526-1.734-8.143-0.941-1.618-2.757-4.769-4.032-7.004s-4.88-17.772-8.009-34.533c-3.129-16.761-6.042-32.19-6.467-34.289-0.536-2.655-1.633-3.817-3.591-3.817-2.99 0-193.773 30.222-196.133 31.069-1.288 0.461 0.148 42.317 1.496 43.729 0.286 0.292 6.88-0.175 14.648-1.061s14.253-1.44 14.414-1.241c0.166 0.196-0.536 11.606-1.55 25.348-1.661 22.556-1.626 25.119 0.36 26.371 8.799 5.555 11.188 7.555 13.975 11.689 3.891 5.774 3.885 4.845 0.395 69.507-1.505 27.863-2.748 52.139-2.761 53.946l-0.023 3.288 5.206-3.88c2.862-2.133 10.267-8.129 16.454-13.328zM483.219 784.634l47.882-7.229v-13.879l-9.37-4.706c-6.523-3.275-9.37-5.488-9.37-7.286 0-1.422-0.601-2.582-1.342-2.582s-16.286 2.185-34.55 4.857c-18.265 2.672-35.928 4.843-39.254 4.828-13.093-0.066-22.373-7.78-27.751-23.074-2.742-7.794-2.798-9.288-1.328-36.579 0.842-15.648 1.53-34.073 1.533-40.943 0.004-15.591 1.658-21.671 7.725-28.384 9.076-10.047 10.305-10.349 90.806-22.253 83.512-12.349 233.632-34.691 243.964-36.308 5.553-0.876 10.433-1.244 10.845-0.83 0.414 0.414-0.82 5.963-2.736 12.339-5.362 17.843-6.895 28.174-6.862 46.292 0.045 26.444 6.83 48.819 21.245 70.047 3.225 4.752 5.336 9.131 4.683 9.732-0.658 0.604-10.866 2.466-22.698 4.147s-21.757 3.296-22.056 3.595c-0.295 0.292 2.981 5.223 7.286 10.944s7.83 11.633 7.83 13.139c0 1.506 0.471 3.004 1.038 3.33 1.618 0.918 57.58-8.206 74.251-12.103 18.921-4.425 20.995-5.496 20.028-10.337-1.092-5.437-36.68-67.213-51.29-89.019-6.904-10.307-13.702-22.001-15.106-25.988-5.895-16.738-1.562-32.592 10.628-38.911 7.265-3.765 13.364-4.378 31.092-3.12 14.303 1.018 17.959 0.876 21.259-0.83 5.408-2.796 7.234-7.185 5.542-13.316-0.742-2.683-36.006-65.081-78.365-138.661s-78.416-136.593-80.128-140.028c-3.342-6.706-7.624-11.98-11.376-14.003-1.496-0.809-11.446-0.002-27.758 2.24-183.622 25.264-336.031 45.090-362.619 47.172-28.008 2.192-47.088 11.593-53.683 26.447-3.45 7.769-10.217 123.69-8.089 138.548 1.389 9.71 5.324 20.537 8.074 22.24 0.832 0.515 36.214 61.767 78.629 136.115 75.778 132.836 77.279 135.334 86.657 144.013 11.837 10.96 23.699 17.631 31.295 17.602 3.053-0.010 27.1-3.275 53.435-7.25z"/></svg>