<svg xmlns="http://www.w3.org/2000/svg" viewBox="164.3 129.3 727.3 727.3" fill="currentColor"><path d="M528 160.4l-349.7 254 133.6 411h432.2l133.5-411zM528 223.6l289.5 210.3-110.6 340.3h-357.8l-110.6-340.3zM371.4 367.3l-38.8 33.4c37.884 44.198 58.932 85.762 77.9 129.8-32.239-6.318-64.661-12.398-96.4-26l-20.2 47c46.128 19.769 92.794 31.576 138.2 38.2 13.388 50.795 22.3 104.125 22.3 178.3h51.2c0-70.257-10.932-123.125-23.5-175.9 31.786 1.912 62.558 3.905 91.6 1.6-12.326 52.408-23.3 104.681-23.3 174.3h51.2c0-77.294 8.534-133.498 23.2-185.8 52.474-9.009 108.452-18.337 137.3-30.7l-20.2-47c-17.957 7.696-60.548 12.889-93 20.2 18.831-41.789 38.298-81.764 74.5-124l-38.8-33.4c-48.097 56.113-80.138 110.473-101.4 171.7-35.327 3.677-69.885 4.154-109.8 1.1-21.246-61.704-53.601-116.334-102-172.8z"/></svg>