<svg xmlns="http://www.w3.org/2000/svg" viewBox="60.6 41.2 902.7 902.7" fill="currentColor"><path d="M511.7 454.4c-120.374 0-226.938 86.598-248.9 207.9l-2 11.2 6.8 8.9c58.28 76.375 153.588 111.2 244.1 111.2 90.188 0 186.622-34.317 244.7-111.3l6.8-8.9-2-11.1c-21.777-120.288-127.985-207.9-249.5-207.9zM511.7 505.6c24.365 0 49.428 12.827 68.4 33.2s30.7 47.545 30.7 71.4c0 51.223-34.833 100.6-99.1 100.6-64.195 0-99.1-49.77-99.1-100.6 0-24.129 11.919-51.278 31-71.6s44.23-33 68.1-33zM386.3 551c-9.513 19.704-24.9 37.009-24.9 59.2 0 42.414 19.728 83.248 51.8 112.4-36.439-13.228-68.006-34.010-93.3-62.5 11.099-43.751 32.991-82.389 66.4-109.1zM637.4 551.2c33.658 26.875 55.658 65.467 66.7 109-25.232 28.605-57.211 49.311-94 62.5 32.131-29.111 51.9-69.903 51.9-112.5 0-21.995-15.185-39.331-24.6-59z"/><path d="M512 143.5l-21.7 35-412.3 663.1h868zM512 240.4l341.9 550h-683.8z"/></svg>