<svg xmlns="http://www.w3.org/2000/svg" viewBox="76.0 76.0 870.0 870.0" fill="currentColor"><path d="M811.063 493.435l46.481-202.498 4.34-17.361-18.151 0.079h-197.526l-123.977-165.329-11.364-15.546-11.364 15.546-123.898 165.25h-215.835l4.498 17.283 46.481 202.498-117.979 157.358 171.879 77.416 46.245 201.156 200.13-90.122 200.13 90.122 46.245-201.156 171.879-77.416zM788.809 463.762l-78.6-104.879 113.639-47.507zM773.183 301.906l-80.494 33.618-25.253-33.697h105.747zM665.384 346.414l-80.731 31.172c-6.55-21.544-10.969-52.242-17.204-75.759h64.553zM610.775 273.575h-49.717c-7.576-30.461-14.994-60.923-21.623-95.172zM503.923 149.756c7.97 46.481 18.308 83.809 28.173 123.819h-120.978zM210.908 301.906h143.469l-67.157 89.569c-20.755-31.014-46.166-60.686-76.312-89.569zM203.333 334.735c25.727 26.516 47.744 53.031 65.737 80.889l-36.065 48.060zM136.649 639.429l82.388-109.93 37.643 164.066zM330.703 889.276l-33.697-146.626 179.454 80.889zM724.808 742.651l-33.697 146.626-145.836-65.737zM732.7 708.164l-221.832 99.907-221.753-99.907-47.744-208.259 43.798-58.398c4.893 8.602 12.074 17.756 16.257 26.042 13.889 27.384 23.99 52.716 30.461 72.997 5.287 16.572 6.708 26.674 7.576 33.934-24.937 9.707-43.325 33.302-26.042 67.631 2.999 5.998 7.655 10.969 13.337 14.521 37.564 22.964 77.101-4.261 77.101-40.089 0-21.939-16.257-37.564-36.38-43.483-1.026-11.206-2.92-23.201-8.681-41.036-6.945-21.781-17.519-48.375-32.119-77.101-6.077-11.916-15.862-24.937-23.359-37.485l86.492-115.375h148.677c7.024 27.068 12.232 61.396 19.729 85.939l-105.984 40.878c-14.363-15.467-37.090-22.57-62.58-8.049-5.287 2.999-9.707 7.339-12.784 12.548-22.57 37.406 4.577 76.785 40.326 76.785 26.674 0 48.612-21.939 48.612-48.612 0-2.525-0.947-4.577-1.342-7.024l102.906-39.774c19.887 62.343 40.405 120.425 58.319 171.879 15.704 47.034-0.631 71.34-19.808 78.6-18.466 6.945-43.956-1.815-59.503-38.195 7.024-8.444 15.941-15.941 15.941-27.699 0-26.674-21.939-48.612-48.612-48.612s-48.612 21.939-48.612 48.612 21.939 48.612 48.612 48.612c4.498 0 8.286-2.21 12.469-3.393 21.386 40.089 58.24 58.95 89.648 47.113 34.881-13.179 55.399-57.687 36.617-114.033l-0.079-0.079v-0.079c-18.23-52.4-38.827-110.403-58.713-172.826l89.254-34.486 97.461 129.974zM341.593 600.287c21.623-13.495 43.167 7.97 29.83 29.672-0.552 0.868-1.657 1.973-2.525 2.525-21.544 13.495-43.325-7.97-29.83-29.672 0.473-0.868 1.657-1.973 2.525-2.525zM433.293 474.968c-0.552 0.868-1.657 1.973-2.525 2.525-21.623 13.416-43.167-8.049-29.83-29.672 0.552-0.868 1.657-1.973 2.525-2.525 21.623-13.574 43.404 7.97 29.83 29.672zM523.888 616.78c-6.234 3.63-14.363 3.946-23.28-1.026-0.947-0.552-2.21-1.736-2.841-2.683-13.81-21.702 7.655-43.483 29.436-30.146 1.026 0.631 1.894 1.499 2.525 2.525 8.207 13.021 3.709 25.805-5.84 31.33zM802.777 529.499l82.388 109.93-120.031 54.136z"/></svg>