<svg xmlns="http://www.w3.org/2000/svg" viewBox="173.7 130.8 708.4 708.4" fill="currentColor"><path d="M636.8 144.4l-25.6 44.4c125.767 72.611 168.611 232.633 96 358.4s-232.633 168.611-358.4 96l-25.6 44.4c41.581 24.007 86.242 35.12 131.2 38.7v48.1h-134.4v51.2h320v-51.2h-134.4v-51.7c98.798-8.454 192.781-57.722 246-149.9 86.446-149.73 34.93-341.954-114.8-428.4zM480 198.4c-70.69 0-133.787 33.88-173.5 86.3-27.631 36.473-44.1 82.116-44.1 131.3 0 119.876 97.726 217.6 217.6 217.6 75.498 0 142.325-38.675 181.3-97.3 22.91-34.457 36.3-75.922 36.3-120.3 0-119.873-97.725-217.6-217.6-217.6zM480 249.6c92.205 0 166.4 74.197 166.4 166.4 0 24.266-10.425 44.697-19.7 65.4l-258.5-183.3c29.79-28.251 67.342-48.5 111.8-48.5zM339 340.2l261 185c-30.394 33.317-71.168 57.2-120 57.2-92.204 0-166.4-74.194-166.4-166.4 0-28.556 12.805-52.402 25.4-75.8z"/></svg>