<svg xmlns="http://www.w3.org/2000/svg" viewBox="19.5 -12.5 985.1 985.1" fill="currentColor"><path d="M512 99.4l-11.4 5.7c0 0-8.001 4.259-15.9 11.5s-17.597 18.42-26.9 34.7c-15.897 27.821-28.4 74.769-32.3 138.6-55.024-6.595-129.4-26.2-129.4-26.2l-3.9-1.3h-253.8v25.6c0 33.956 18.357 64.649 44.3 92.8s60.784 54.407 100.5 77.4c70.5 40.816 155.34 67.856 234.4 74.3-4.693 63.16-24.586 131.725-42.1 180.2-6.988 19.344-12.87 35.38-16.3 49.1l-5 19.9 157.8 78.9 157.8-78.9-5-19.9c-3.431-13.712-9.311-29.755-16.3-49.1-17.514-48.474-37.407-117.040-42.1-180.2 79.060-6.444 163.9-33.484 234.4-74.3 39.716-22.993 74.557-49.249 100.5-77.4s44.3-58.844 44.3-92.8v-25.6h-253.8l-3.9 1.3c0 0-74.376 19.605-129.4 26.2-3.9-63.831-16.403-110.779-32.3-138.6-9.303-16.28-19.001-27.459-26.9-34.7s-15.9-11.5-15.9-11.5zM512 163.9c3.233 3.854 5.958 6.077 9.8 12.8 13.395 23.441 28.6 66.713 28.6 143.3v25.6h25.6c69.686 0 154.468-29.586 161.5-32h183.4c-4.951 10.812-5.405 19.801-17.2 32.6-21.057 22.849-52.216 46.594-88.5 67.6-72.568 42.013-166.027 72.6-239.2 72.6h-25.6v25.6c0 81.936 30.393 164.109 49.9 218.1 3.945 10.919 5.691 16.811 8.4 24.9l-96.7 48.4-96.7-48.4c2.709-8.088 4.455-13.98 8.4-24.9 19.507-53.991 49.9-136.164 49.9-218.1v-25.6h-25.6c-73.173 0-166.632-30.587-239.2-72.6-36.284-21.006-67.443-44.751-88.5-67.6-11.795-12.799-12.249-21.788-17.2-32.6h183.4c7.032 2.414 91.814 32 161.5 32h25.6v-25.6c0-76.587 15.205-119.859 28.6-143.3 3.842-6.723 6.567-8.946 9.8-12.8z"/></svg>