<svg xmlns="http://www.w3.org/2000/svg" viewBox="-229.9 -20.5 1065.0 1065.0" fill="currentColor"><path d="M90.273 0c-49.976 0-90.273 41.583-90.273 91.636v840.727c0 50.054 40.297 91.636 90.273 91.636h424.545c49.975 0 90.273-41.582 90.273-91.636v-840.727c0-50.054-40.298-91.636-90.273-91.636h-424.545zM90.273 23.273h424.545c37.079 0 67 30.736 67 68.364v840.727c0 37.628-29.921 68.364-67 68.364h-424.545c-37.081 0-67-30.735-67-68.364v-840.727c0-37.628 29.919-68.364 67-68.364zM198.682 327.818l14.045 131.045-118.227 53.136 118.227 53.136-14.045 131.045 104.136-77.864 104.182 77.864-14.091-131.045 118.227-53.136-118.227-53.136 14.091-131.045-104.182 77.864-104.136-77.864zM227.5 378.409l75.318 56.318 13.955-10.409 61.364-45.864-8.364 77.909-1.818 16.773 15.409 6.955 71.045 31.909-86.455 38.864 1.818 16.773 8.364 77.909-75.318-56.273-75.318 56.318 8.364-77.955 1.818-16.773-15.409-6.955-71.045-31.909 86.455-38.864-1.818-16.773-8.364-77.955z"/></svg>