<svg xmlns="http://www.w3.org/2000/svg" viewBox="63.1 49.3 937.2 937.2" fill="currentColor"><path d="M508.868 967.468c-13.973-3.527-28.529-13.951-39.304-28.142-9.126-12.019-11.345-16.229-17.249-32.717l-4.475-12.496-180.261-185.080c-99.144-101.795-180.261-185.772-180.261-186.615 0-0.796 35.332-38.765 78.515-84.27l78.515-82.737 2.401-13.12c5.524-30.194 13.766-50.473 30.408-74.818 25.164-36.811 61.282-61.057 126.85-85.151 5.871-2.162 13.602-9.728 59.963-58.738l53.223-56.261 54.957 54.888c36.055 36.011 55.962 54.889 57.879 54.889 1.608 0 11.991 2.23 23.076 4.961 31.784 7.817 68.618 23.591 92.593 39.645 42.478 28.443 67.123 72.282 76.467 136.019l2.436 16.617 151.521 151.873-188.52 177.588c-187.922 177.025-188.523 177.608-189.473 184.16-3.419 23.563-9.978 38.937-23.23 54.449-7.017 8.215-22.020 18.79-32.411 22.85-7.621 2.981-25.837 4.176-33.618 2.207zM538.057 939.102c9.267-4.619 21.176-16.356 26.359-25.98 12.155-22.569 11.975-68.831-0.364-95.091-4.097-8.715-18.217-23.206-26.099-26.783-16.832-7.634-36.551 0.569-52.891 21.968-5.158 6.758-6.153 9.421-8.798 23.517-4.402 23.46-4.928 30.952-3.106 44.257 2.949 21.543 10.528 38.027 23.088 50.215 12.759 12.382 27.304 15.129 41.817 7.896zM547.803 713.81c14.36-2.97 23.291-6.576 34.974-14.157 10.16-6.588 16.427-12.522 11.122-10.524-7.281 2.731-24.14 3.925-32.938 2.332-35.777-6.485-44.695-31.361-22.376-62.404 3.585-4.983 9.018-11.424 12.074-14.304 15.221-14.353 47.054-34.635 99.478-63.381 83.247-45.649 93.853-52.427 114.153-72.947 14.905-15.068 21.565-24.641 27.686-39.795 10.002-24.763 10.118-59.501 0.341-101.572-11.533-49.626-38.337-84.503-81.628-106.21-50.771-25.458-106.962-36.99-179.764-36.895-55.222 0.074-100.45 5.734-127.711 15.989-58.284 21.92-90.61 45.988-112.54 83.789-22.543 38.859-27.696 92.59-12.626 131.667 13.861 35.945 49.971 66.979 90.089 77.428 26.115 6.804 67.898 5.894 97.995-2.128 7.921-2.116 22.165-13.323 27.863-21.933 6.799-10.274 9.003-20.105 11.652-51.988 2.212-26.618 3.921-34.884 8.728-42.222 1.338-2.037 1.764-3.709 0.944-3.709s-7.884 2.651-15.7 5.882c-33.032 13.67-37.883 15.509-46.866 17.762-17.538 4.403-37.401 2.514-52.047-4.949-8.083-4.119-20.764-16.469-27.836-27.113-21.516-32.387-16.602-71.274 12.978-102.717 23.915-25.423 49.587-36.64 93.017-40.644 54.834-5.052 97.023 4.756 128.416 29.858 20.597 16.472 33.907 36.135 42.706 63.089 11.39 34.893 15.654 92.034 8.755 117.356-4.371 16.049-13.201 30.651-26.65 44.072-16.802 16.767-39.281 35.837-73.27 62.156-31.671 24.524-51.711 43.536-65.47 62.112-10.835 14.628-14.914 23.031-18.976 39.093-7.893 31.212 2.485 56.953 26.717 66.271 9.424 3.63 31.086 3.971 46.707 0.796z"/></svg>